<svg width="49" height="50" viewBox="0 0 49 50" fill="none" xmlns="http://www.w3.org/2000/svg">
<rect width="49" height="49.0108" rx="8" fill="#333333"/>
<g clip-path="url(#clip0_379_362)">
<g filter="url(#filter0_d_379_362)">
<path d="M14.4375 27.125C14.4375 27.4068 14.3256 27.677 14.1263 27.8763C13.927 28.0756 13.6568 28.1875 13.375 28.1875H10.1875C9.90571 28.1875 9.63546 28.0756 9.4362 27.8763C9.23694 27.677 9.125 27.4068 9.125 27.125C9.125 26.8432 9.23694 26.573 9.4362 26.3737C9.63546 26.1744 9.90571 26.0625 10.1875 26.0625H11.25V17.5625H10.1875C9.90571 17.5625 9.63546 17.4506 9.4362 17.2513C9.23694 17.052 9.125 16.7818 9.125 16.5C9.125 16.2182 9.23694 15.948 9.4362 15.7487C9.63546 15.5494 9.90571 15.4375 10.1875 15.4375H12.3125C12.4924 15.4373 12.6693 15.4828 12.8268 15.5697C12.9843 15.6565 13.1172 15.782 13.213 15.9342L17.625 22.9959L22.037 15.9369C22.1325 15.7841 22.2652 15.6582 22.4227 15.5708C22.5802 15.4835 22.7574 15.4376 22.9375 15.4375H25.0625C25.3443 15.4375 25.6145 15.5494 25.8138 15.7487C26.0131 15.948 26.125 16.2182 26.125 16.5C26.125 16.7818 26.0131 17.052 25.8138 17.2513C25.6145 17.4506 25.3443 17.5625 25.0625 17.5625H24V26.0625H25.0625C25.3443 26.0625 25.6145 26.1744 25.8138 26.3737C26.0131 26.573 26.125 26.8432 26.125 27.125C26.125 27.4068 26.0131 27.677 25.8138 27.8763C25.6145 28.0756 25.3443 28.1875 25.0625 28.1875H21.875C21.5932 28.1875 21.323 28.0756 21.1237 27.8763C20.9244 27.677 20.8125 27.4068 20.8125 27.125C20.8125 26.8432 20.9244 26.573 21.1237 26.3737C21.323 26.1744 21.5932 26.0625 21.875 26.0625V20.2041L18.5255 25.5631C18.4299 25.7157 18.2971 25.8415 18.1396 25.9287C17.9821 26.0159 17.805 26.0617 17.625 26.0617C17.445 26.0617 17.2679 26.0159 17.1104 25.9287C16.9529 25.8415 16.8201 25.7157 16.7245 25.5631L13.375 20.2041V26.0625C13.6568 26.0625 13.927 26.1744 14.1263 26.3737C14.3256 26.573 14.4375 26.8432 14.4375 27.125ZM38.875 23.9375H29.3125C29.0307 23.9375 28.7605 24.0494 28.5612 24.2487C28.3619 24.448 28.25 24.7182 28.25 25V27.125C28.25 27.4068 28.3619 27.677 28.5612 27.8763C28.7605 28.0756 29.0307 28.1875 29.3125 28.1875H38.875C39.1568 28.1875 39.427 28.0756 39.6263 27.8763C39.8256 27.677 39.9375 27.4068 39.9375 27.125V25C39.9375 24.7182 39.8256 24.448 39.6263 24.2487C39.427 24.0494 39.1568 23.9375 38.875 23.9375ZM38.875 30.3125H16.5625C16.2807 30.3125 16.0105 30.4244 15.8112 30.6237C15.6119 30.823 15.5 31.0932 15.5 31.375V33.5C15.5 33.7818 15.6119 34.052 15.8112 34.2513C16.0105 34.4506 16.2807 34.5625 16.5625 34.5625H38.875C39.1568 34.5625 39.427 34.4506 39.6263 34.2513C39.8256 34.052 39.9375 33.7818 39.9375 33.5V31.375C39.9375 31.0932 39.8256 30.823 39.6263 30.6237C39.427 30.4244 39.1568 30.3125 38.875 30.3125ZM38.875 17.5625H29.3125C29.0307 17.5625 28.7605 17.6744 28.5612 17.8737C28.3619 18.073 28.25 18.3432 28.25 18.625V20.75C28.25 21.0318 28.3619 21.302 28.5612 21.5013C28.7605 21.7006 29.0307 21.8125 29.3125 21.8125H38.875C39.1568 21.8125 39.427 21.7006 39.6263 21.5013C39.8256 21.302 39.9375 21.0318 39.9375 20.75V18.625C39.9375 18.3432 39.8256 18.073 39.6263 17.8737C39.427 17.6744 39.1568 17.5625 38.875 17.5625Z" fill="#F7971D"/>
</g>
</g>
<defs>
<filter id="filter0_d_379_362" x="2.125" y="10.4375" width="44.8125" height="33.125" filterUnits="userSpaceOnUse" color-interpolation-filters="sRGB">
<feFlood flood-opacity="0" result="BackgroundImageFix"/>
<feColorMatrix in="SourceAlpha" type="matrix" values="0 0 0 0 0 0 0 0 0 0 0 0 0 0 0 0 0 0 127 0" result="hardAlpha"/>
<feOffset dy="2"/>
<feGaussianBlur stdDeviation="3.5"/>
<feComposite in2="hardAlpha" operator="out"/>
<feColorMatrix type="matrix" values="0 0 0 0 1 0 0 0 0 0.559634 0 0 0 0 0 0 0 0 0.5 0"/>
<feBlend mode="normal" in2="BackgroundImageFix" result="effect1_dropShadow_379_362"/>
<feBlend mode="normal" in="SourceGraphic" in2="effect1_dropShadow_379_362" result="shape"/>
</filter>
<clipPath id="clip0_379_362">
<rect width="34" height="34" fill="white" transform="translate(7 8)"/>
</clipPath>
</defs>
</svg>
