<svg width="49" height="50" viewBox="0 0 49 50" fill="none" xmlns="http://www.w3.org/2000/svg">
<rect y="0.163086" width="49" height="49.0108" rx="8" fill="#333333"/>
<g clip-path="url(#clip0_379_344)">
<g filter="url(#filter0_d_379_344)">
<path d="M20.2813 36.9C20.3265 36.9403 20.3836 36.9647 20.4439 36.9695C20.5042 36.9743 20.5644 36.9593 20.6154 36.9267C20.6664 36.8942 20.7053 36.8459 20.7264 36.7891C20.7474 36.7324 20.7493 36.6704 20.7318 36.6125L17.1618 24.3753C17.1294 24.2639 17.0637 24.1652 16.9736 24.0922C16.8834 24.0193 16.7731 23.9757 16.6575 23.9673C16.0795 23.9248 15.5029 23.878 14.9263 23.8256L10.1521 23.3907C10.1017 23.3858 10.0508 23.3947 10.005 23.4164C9.95913 23.4381 9.92004 23.4718 9.89184 23.5139C9.86364 23.5561 9.8474 23.6051 9.84484 23.6557C9.84228 23.7064 9.8535 23.7568 9.8773 23.8015C12.4599 28.6324 16.1786 33.2365 20.2813 36.9ZM23.7833 39.4869C23.8116 39.586 23.8966 39.6597 24 39.6597C24.05 39.6582 24.0982 39.6406 24.1372 39.6094C24.1763 39.5783 24.2042 39.5353 24.2168 39.4869L28.5858 24.5084C28.5988 24.465 28.6012 24.419 28.5927 24.3744C28.5842 24.3298 28.5651 24.2879 28.5371 24.2522C28.509 24.2165 28.4728 24.1881 28.4315 24.1694C28.3902 24.1506 28.345 24.142 28.2996 24.1444C25.4346 24.2673 22.5655 24.2673 19.7005 24.1444C19.6553 24.1421 19.6102 24.1507 19.5691 24.1694C19.5279 24.188 19.4918 24.2163 19.4638 24.2518C19.4357 24.2873 19.4166 24.329 19.408 24.3734C19.3994 24.4178 19.4016 24.4636 19.4143 24.507L23.7833 39.4869ZM27.2683 36.6125C27.189 36.8816 27.5091 37.087 27.7188 36.9C31.8215 33.2351 35.5402 28.6324 38.1228 23.8015C38.1465 23.7569 38.1577 23.7066 38.1552 23.6561C38.1527 23.6056 38.1366 23.5567 38.1085 23.5146C38.0805 23.4725 38.0417 23.4388 37.996 23.417C37.9504 23.3951 37.8997 23.3861 37.8494 23.3907L33.0752 23.8256C32.4972 23.878 31.9206 23.9248 31.3426 23.9673C31.227 23.9757 31.1167 24.0193 31.0265 24.0922C30.9363 24.1652 30.8707 24.2639 30.8383 24.3753L27.2683 36.6125ZM37.8848 21.2544C37.9342 21.25 37.9816 21.2328 38.0222 21.2044C38.0629 21.176 38.0954 21.1374 38.1165 21.0926C38.1376 21.0477 38.1465 20.998 38.1424 20.9486C38.1383 20.8992 38.1213 20.8517 38.093 20.811L33.5059 14.1597C33.3104 13.8764 33.049 13.6449 32.7443 13.485C32.4395 13.3251 32.1005 13.2416 31.7563 13.2417H28.2288C28.1823 13.2417 28.1365 13.2532 28.0954 13.2751C28.0544 13.297 28.0193 13.3286 27.9934 13.3673C27.9675 13.4059 27.9515 13.4504 27.9469 13.4966C27.9422 13.5429 27.949 13.5897 27.9667 13.6327L31.1641 21.4569C31.2096 21.5676 31.2888 21.6611 31.3906 21.7239C31.4924 21.7868 31.6115 21.8158 31.7308 21.8069C32.1133 21.7771 32.4986 21.7445 32.8825 21.7077L37.8848 21.2544ZM25.6505 13.5902C25.6073 13.4868 25.5345 13.3985 25.4412 13.3365C25.3479 13.2744 25.2383 13.2415 25.1263 13.2417H22.8738C22.7618 13.2415 22.6522 13.2744 22.5589 13.3365C22.4656 13.3985 22.3928 13.4868 22.3496 13.5902L19.0091 21.6057C18.9918 21.6476 18.9849 21.6931 18.9888 21.7383C18.9927 21.7835 19.0075 21.8271 19.0318 21.8654C19.0561 21.9038 19.0892 21.9357 19.1284 21.9585C19.1676 21.9814 19.2117 21.9945 19.257 21.9967C22.4162 22.1497 25.5839 22.1497 28.7445 21.9967C28.7897 21.9942 28.8336 21.981 28.8726 21.9581C28.9116 21.9351 28.9446 21.9032 28.9687 21.8649C28.9929 21.8266 29.0075 21.7831 29.0114 21.738C29.0152 21.6929 29.0082 21.6475 28.991 21.6057L25.6505 13.5902ZM20.0334 13.6327C20.0511 13.5897 20.0579 13.5429 20.0532 13.4966C20.0485 13.4504 20.0326 13.4059 20.0067 13.3673C19.9807 13.3286 19.9457 13.297 19.9047 13.2751C19.8636 13.2532 19.8178 13.2417 19.7713 13.2417H16.2438C15.8996 13.2416 15.5606 13.3251 15.2558 13.485C14.9511 13.6449 14.6897 13.8764 14.4942 14.1597L9.90705 20.811C9.87884 20.8517 9.86183 20.8992 9.85772 20.9486C9.85361 20.998 9.86254 21.0477 9.88362 21.0926C9.9047 21.1374 9.93719 21.176 9.97785 21.2044C10.0185 21.2328 10.0659 21.25 10.1153 21.2544L15.1175 21.7077C15.5015 21.7445 15.8854 21.7771 16.2693 21.8069C16.3886 21.816 16.5078 21.7871 16.6096 21.7242C16.7115 21.6613 16.7907 21.5678 16.836 21.4569L20.0334 13.6327Z" fill="#F7971D"/>
</g>
</g>
<defs>
<filter id="filter0_d_379_344" x="2.84448" y="8.2417" width="42.311" height="40.418" filterUnits="userSpaceOnUse" color-interpolation-filters="sRGB">
<feFlood flood-opacity="0" result="BackgroundImageFix"/>
<feColorMatrix in="SourceAlpha" type="matrix" values="0 0 0 0 0 0 0 0 0 0 0 0 0 0 0 0 0 0 127 0" result="hardAlpha"/>
<feOffset dy="2"/>
<feGaussianBlur stdDeviation="3.5"/>
<feComposite in2="hardAlpha" operator="out"/>
<feColorMatrix type="matrix" values="0 0 0 0 1 0 0 0 0 0.559634 0 0 0 0 0 0 0 0 0.5 0"/>
<feBlend mode="normal" in2="BackgroundImageFix" result="effect1_dropShadow_379_344"/>
<feBlend mode="normal" in="SourceGraphic" in2="effect1_dropShadow_379_344" result="shape"/>
</filter>
<clipPath id="clip0_379_344">
<rect width="34" height="34" fill="white" transform="translate(7 8)"/>
</clipPath>
</defs>
</svg>
