<svg width="49" height="50" viewBox="0 0 49 50" fill="none" xmlns="http://www.w3.org/2000/svg">
<rect width="49" height="49.0108" rx="8" fill="#333333"/>
<g clip-path="url(#clip0_379_371)">
<g filter="url(#filter0_d_379_371)">
<path d="M35.3334 10.8335H12.6667C11.9153 10.8335 11.1946 11.132 10.6632 11.6634C10.1319 12.1947 9.83337 12.9154 9.83337 13.6668V39.1668L15.5 33.5002H35.3334C36.0848 33.5002 36.8055 33.2017 37.3368 32.6703C37.8682 32.1389 38.1667 31.4183 38.1667 30.6668V13.6668C38.1667 12.9154 37.8682 12.1947 37.3368 11.6634C36.8055 11.132 36.0848 10.8335 35.3334 10.8335ZM18.3334 27.8335H15.5V25.0002H18.3334V27.8335ZM18.3334 23.5835H15.5V20.7502H18.3334V23.5835ZM18.3334 19.3335H15.5V16.5002H18.3334V19.3335ZM28.25 27.8335H21.1667V25.0002H28.25V27.8335ZM32.5 23.5835H21.1667V20.7502H32.5V23.5835ZM32.5 19.3335H21.1667V16.5002H32.5V19.3335Z" fill="#F7971D"/>
</g>
</g>
<defs>
<filter id="filter0_d_379_371" x="2.83337" y="5.8335" width="42.3334" height="42.3335" filterUnits="userSpaceOnUse" color-interpolation-filters="sRGB">
<feFlood flood-opacity="0" result="BackgroundImageFix"/>
<feColorMatrix in="SourceAlpha" type="matrix" values="0 0 0 0 0 0 0 0 0 0 0 0 0 0 0 0 0 0 127 0" result="hardAlpha"/>
<feOffset dy="2"/>
<feGaussianBlur stdDeviation="3.5"/>
<feComposite in2="hardAlpha" operator="out"/>
<feColorMatrix type="matrix" values="0 0 0 0 1 0 0 0 0 0.559634 0 0 0 0 0 0 0 0 0.5 0"/>
<feBlend mode="normal" in2="BackgroundImageFix" result="effect1_dropShadow_379_371"/>
<feBlend mode="normal" in="SourceGraphic" in2="effect1_dropShadow_379_371" result="shape"/>
</filter>
<clipPath id="clip0_379_371">
<rect width="34" height="34" fill="white" transform="translate(7 8)"/>
</clipPath>
</defs>
</svg>
