<svg width="25" height="26" viewBox="0 0 25 26" fill="none" xmlns="http://www.w3.org/2000/svg">
<path d="M14.8316 13.0004L23.4316 4.42037C23.8082 4.04376 24.0198 3.53297 24.0198 3.00037C24.0198 2.46777 23.8082 1.95698 23.4316 1.58037C23.055 1.20376 22.5442 0.992187 22.0116 0.992188C21.479 0.992188 20.9682 1.20376 20.5916 1.58037L12.0116 10.1804L3.4316 1.58037C3.05499 1.20376 2.5442 0.992187 2.0116 0.992188C1.47899 0.992188 0.968204 1.20376 0.591596 1.58037C0.214989 1.95698 0.0034132 2.46777 0.0034132 3.00037C0.0034132 3.53297 0.214989 4.04376 0.591596 4.42037L9.1916 13.0004L0.591596 21.5804C0.40414 21.7663 0.255352 21.9875 0.153814 22.2312C0.0522769 22.4749 0 22.7363 0 23.0004C0 23.2644 0.0522769 23.5258 0.153814 23.7695C0.255352 24.0132 0.40414 24.2344 0.591596 24.4204C0.777522 24.6078 0.998724 24.7566 1.24244 24.8582C1.48616 24.9597 1.74757 25.012 2.0116 25.012C2.27562 25.012 2.53703 24.9597 2.78075 24.8582C3.02447 24.7566 3.24567 24.6078 3.4316 24.4204L12.0116 15.8204L20.5916 24.4204C20.7775 24.6078 20.9987 24.7566 21.2424 24.8582C21.4862 24.9597 21.7476 25.012 22.0116 25.012C22.2756 25.012 22.537 24.9597 22.7807 24.8582C23.0245 24.7566 23.2457 24.6078 23.4316 24.4204C23.619 24.2344 23.7678 24.0132 23.8694 23.7695C23.9709 23.5258 24.0232 23.2644 24.0232 23.0004C24.0232 22.7363 23.9709 22.4749 23.8694 22.2312C23.7678 21.9875 23.619 21.7663 23.4316 21.5804L14.8316 13.0004Z" fill="black"/>
</svg>
