<svg width="21" height="16" viewBox="0 0 21 16" fill="none" xmlns="http://www.w3.org/2000/svg">
<g clip-path="url(#clip0_220_747)">
<path d="M8.3999 0H20.9999V16H8.3999V0Z" fill="#FF0000"/>
<path d="M0 0H8.4V16H0V0Z" fill="#006600"/>
<path fill-rule="evenodd" clip-rule="evenodd" d="M11.14 10.2067C10.0801 10.1734 5.23374 7.10007 5.20093 6.60674L5.46671 6.15674C5.94905 6.86674 10.9037 9.85674 11.3926 9.75007L11.14 10.2067Z" fill="#FFFF00" stroke="black" stroke-width="0.6" stroke-linecap="round" stroke-linejoin="round"/>
<path fill-rule="evenodd" clip-rule="evenodd" d="M5.41084 6.09359C5.31569 6.35359 6.6774 7.20692 8.31147 8.22025C9.94881 9.23025 11.3597 9.85359 11.4615 9.76692L11.5107 9.67359C11.491 9.70692 11.4451 9.71692 11.3696 9.69359C10.9266 9.56359 9.7749 9.02692 8.34756 8.14692C6.91694 7.26692 5.67662 6.45692 5.48303 6.11359C5.46794 6.0814 5.46116 6.04584 5.46334 6.01025H5.45678L5.4174 6.08359L5.41084 6.09359ZM11.1629 10.2203C11.1465 10.2536 11.1104 10.2536 11.048 10.2469C10.6543 10.2036 9.45334 9.61025 8.03256 8.74692C6.37881 7.74025 5.01381 6.82692 5.16475 6.58692L5.20412 6.51359L5.21069 6.51692C5.07944 6.92359 7.90459 8.56359 8.07194 8.67025C9.706 9.69692 11.0841 10.3003 11.2055 10.1436L11.1629 10.2203Z" fill="#FFFF00" stroke="black" stroke-width="0.6" stroke-linecap="round" stroke-linejoin="round"/>
<path fill-rule="evenodd" clip-rule="evenodd" d="M8.40658 6.90663C9.46314 6.89663 10.7691 6.75997 11.5238 6.4533L11.3597 6.18663C10.9167 6.43663 9.60424 6.6033 8.39674 6.62663C6.97268 6.6133 5.96533 6.47663 5.46002 6.1333L5.30908 6.41997C6.23439 6.81997 7.18596 6.9033 8.40658 6.90663Z" fill="#FFFF00" stroke="black" stroke-width="0.6" stroke-linecap="round" stroke-linejoin="round"/>
<path fill-rule="evenodd" clip-rule="evenodd" d="M11.5664 6.46018C11.5402 6.50352 11.048 6.67352 10.3261 6.80018C9.68977 6.89814 9.04692 6.94606 8.40331 6.94352C7.78666 6.94587 7.17056 6.90577 6.55925 6.82352C5.80128 6.70352 5.41081 6.53685 5.26315 6.47685L5.29925 6.40352C5.71597 6.57018 6.10972 6.67018 6.56909 6.74352C7.17595 6.82676 7.78767 6.86796 8.40003 6.86685C9.04031 6.86753 9.67974 6.81962 10.313 6.72352C11.0513 6.60018 11.4549 6.44352 11.5139 6.37352L11.5664 6.46352V6.46018ZM11.4221 6.19018C11.3433 6.25685 10.943 6.40018 10.2408 6.51352C9.63445 6.60263 9.02255 6.64719 8.40987 6.64685C7.688 6.64685 7.09409 6.59352 6.64456 6.52685C5.92925 6.43352 5.54862 6.26018 5.41081 6.21352L5.45347 6.14018C5.56175 6.19685 5.92597 6.34685 6.65112 6.45018C7.23406 6.5295 7.82174 6.56737 8.40987 6.56352C9.01818 6.56371 9.62571 6.51915 10.2277 6.43018C10.9332 6.33018 11.3138 6.15018 11.3728 6.10352L11.4221 6.19018ZM4.93175 8.20018C5.58144 8.55685 7.02847 8.73352 8.39675 8.74685C9.64362 8.75018 11.2646 8.55352 11.8716 8.22685L11.8552 7.87018C11.6649 8.17018 9.92581 8.46018 8.38362 8.45018C6.84144 8.43685 5.40753 8.19685 4.92847 7.88352V8.20018" fill="#FFFF00"/>
<path d="M4.93175 8.20018C5.58144 8.55685 7.02847 8.73352 8.39675 8.74685C9.64362 8.75018 11.2646 8.55352 11.8716 8.22685L11.8552 7.87018C11.6649 8.17018 9.92581 8.46018 8.38362 8.45018C6.84144 8.43685 5.40753 8.19685 4.92847 7.88352V8.20018M11.5664 6.46018C11.5402 6.50352 11.048 6.67352 10.3261 6.80018C9.68977 6.89814 9.04692 6.94606 8.40331 6.94352C7.78666 6.94587 7.17056 6.90577 6.55925 6.82352C5.80128 6.70352 5.41081 6.53685 5.26315 6.47685L5.29925 6.40352C5.71597 6.57018 6.10972 6.67018 6.56909 6.74352C7.17595 6.82676 7.78767 6.86796 8.40003 6.86685C9.04031 6.86753 9.67974 6.81962 10.313 6.72352C11.0513 6.60018 11.4549 6.44352 11.5139 6.37352L11.5664 6.46352V6.46018ZM11.4221 6.19018C11.3433 6.25685 10.943 6.40018 10.2408 6.51352C9.63445 6.60263 9.02255 6.64719 8.40987 6.64685C7.688 6.64685 7.09409 6.59352 6.64456 6.52685C5.92925 6.43352 5.54862 6.26018 5.41081 6.21352L5.45347 6.14018C5.56175 6.19685 5.92597 6.34685 6.65112 6.45018C7.23406 6.5295 7.82174 6.56737 8.40987 6.56352C9.01818 6.56371 9.62571 6.51915 10.2277 6.43018C10.9332 6.33018 11.3138 6.15018 11.3728 6.10352L11.4221 6.19018Z" stroke="black" stroke-width="0.6" stroke-linecap="round" stroke-linejoin="round"/>
<path fill-rule="evenodd" clip-rule="evenodd" d="M11.9045 8.15025V8.23358C11.8126 8.34691 11.2417 8.51358 10.5263 8.63358C9.8157 8.73735 9.09834 8.78638 8.38041 8.78025C7.69965 8.78614 7.01947 8.73822 6.34604 8.63691C5.84353 8.57792 5.3525 8.44311 4.88916 8.23691V8.14025C5.20744 8.35358 6.06713 8.51358 6.35588 8.56025C6.87432 8.64025 7.54041 8.70025 8.38041 8.70025C9.26307 8.70025 9.96854 8.63691 10.5132 8.55358C11.0284 8.47691 11.7601 8.28025 11.9045 8.15025ZM11.9045 7.85025V7.93358C11.8126 8.04358 11.2417 8.21025 10.5263 8.33025C9.81578 8.43513 9.09842 8.48528 8.38041 8.48025C7.69971 8.48432 7.01967 8.4364 6.34604 8.33691C5.84353 8.27792 5.3525 8.14311 4.88916 7.93691V7.83691C5.20744 8.05358 6.07041 8.21025 6.35588 8.25691C7.02618 8.35666 7.70297 8.40458 8.38041 8.40025C9.26307 8.40025 9.97182 8.33358 10.5132 8.25025C11.0284 8.17691 11.7601 7.98025 11.9045 7.85025ZM8.39354 10.1436C6.89729 10.1369 5.61432 9.73025 5.34197 9.66358L5.53885 9.97691C6.45921 10.3081 7.43041 10.4695 8.40666 10.4536C9.54525 10.4202 10.5395 10.3302 11.2384 9.98358L11.4418 9.65691C10.966 9.88691 9.34182 10.1436 8.39025 10.1436" fill="#FFFF00"/>
<path d="M8.39354 10.1436C6.89729 10.1369 5.61432 9.73025 5.34197 9.66358L5.53885 9.97691C6.45921 10.3081 7.43041 10.4695 8.40666 10.4536C9.54525 10.4202 10.5395 10.3302 11.2384 9.98358L11.4418 9.65691C10.966 9.88691 9.34182 10.1436 8.39025 10.1436M11.9045 8.15025V8.23358C11.8126 8.34691 11.2417 8.51358 10.5263 8.63358C9.8157 8.73735 9.09834 8.78638 8.38041 8.78025C7.69965 8.78614 7.01947 8.73822 6.34604 8.63691C5.84353 8.57792 5.3525 8.44311 4.88916 8.23691V8.14025C5.20744 8.35358 6.06713 8.51358 6.35588 8.56025C6.87432 8.64025 7.54041 8.70025 8.38041 8.70025C9.26307 8.70025 9.96854 8.63691 10.5132 8.55358C11.0284 8.47691 11.7601 8.28025 11.9045 8.15025ZM11.9045 7.85025V7.93358C11.8126 8.04358 11.2417 8.21025 10.5263 8.33025C9.81578 8.43513 9.09842 8.48528 8.38041 8.48025C7.69971 8.48432 7.01967 8.4364 6.34604 8.33691C5.84353 8.27792 5.3525 8.14311 4.88916 7.93691V7.83691C5.20744 8.05358 6.07041 8.21025 6.35588 8.25691C7.02618 8.35666 7.70297 8.40458 8.38041 8.40025C9.26307 8.40025 9.97182 8.33358 10.5132 8.25025C11.0284 8.17691 11.7601 7.98025 11.9045 7.85025Z" stroke="black" stroke-width="0.6" stroke-linecap="round" stroke-linejoin="round"/>
<path fill-rule="evenodd" clip-rule="evenodd" d="M11.3172 9.90995C11.2873 9.95492 11.2567 9.99937 11.2253 10.0433C10.8972 10.1633 10.3722 10.2899 10.1556 10.3233C9.5745 10.4333 8.9847 10.4891 8.39358 10.4899C7.06796 10.4699 5.98187 10.2066 5.47327 9.97995L5.43062 9.90995L5.43718 9.89661L5.50608 9.92661C6.43994 10.2405 7.41651 10.4036 8.40015 10.4099C9.01702 10.4099 9.63062 10.3399 10.1261 10.2499C10.8873 10.0933 11.1958 9.97662 11.2909 9.92328L11.3139 9.90995H11.3172ZM11.4911 9.61661C11.4695 9.65566 11.4476 9.69455 11.4255 9.73328C11.2483 9.79995 10.7692 9.93995 10.0703 10.0399C9.61093 10.1033 9.32546 10.1666 8.40999 10.1833C7.36347 10.1726 6.32339 10.0156 5.31905 9.71661L5.28296 9.63328C6.30338 9.91978 7.35485 10.0765 8.41327 10.0999C9.24999 10.0833 9.60765 10.0199 10.0637 9.95662C10.8775 9.82995 11.2876 9.68995 11.4091 9.65328C11.4091 9.65106 11.4091 9.64884 11.4091 9.64661L11.4944 9.61328L11.4911 9.61661Z" fill="#FFFF00" stroke="black" stroke-width="0.6" stroke-linecap="round" stroke-linejoin="round"/>
<path fill-rule="evenodd" clip-rule="evenodd" d="M11.5107 7.92C11.5139 8.92 11.0086 9.82 10.605 10.2133C10.0089 10.8039 9.2129 11.1403 8.38035 11.1533C7.38613 11.17 6.45097 10.5133 6.19832 10.2233C5.6331 9.61442 5.3114 8.81346 5.29597 7.97667C5.35503 6.88333 5.77832 6.12333 6.38863 5.6C6.9815 5.10419 7.7273 4.8363 8.49519 4.84333C8.94345 4.86541 9.38222 4.98237 9.7834 5.18672C10.1846 5.39107 10.5393 5.67829 10.8249 6.03C11.235 6.53667 11.4155 7.08667 11.5107 7.92ZM8.38691 4.5C9.30484 4.49997 10.1856 4.86857 10.8371 5.52544C11.4886 6.18232 11.8581 7.0742 11.865 8.00667C11.865 8.46936 11.7753 8.92752 11.601 9.35499C11.4267 9.78246 11.1713 10.1709 10.8492 10.498C10.5271 10.8252 10.1448 11.0847 9.72401 11.2618C9.30322 11.4389 8.85221 11.53 8.39675 11.53C7.94129 11.53 7.49029 11.4389 7.0695 11.2618C6.64871 11.0847 6.26637 10.8252 5.94431 10.498C5.62225 10.1709 5.36678 9.78246 5.19248 9.35499C5.01818 8.92752 4.92847 8.46936 4.92847 8.00667C4.92519 6.07333 6.4805 4.5 8.38691 4.5Z" fill="#FFFF00" stroke="black" stroke-width="0.6" stroke-linecap="round" stroke-linejoin="round"/>
<path fill-rule="evenodd" clip-rule="evenodd" d="M8.39678 4.4834C10.3065 4.4834 11.8618 6.0634 11.8618 8.0034C11.8618 9.9434 10.3065 11.5234 8.40006 11.5234C6.49365 11.5234 4.93506 9.9434 4.93506 8.0034C4.93506 6.0634 6.49037 4.4834 8.40006 4.4834H8.39678ZM5.00725 8.00007C5.00725 9.8934 6.53959 11.4434 8.39678 11.4434C10.254 11.4434 11.7863 9.8934 11.7863 8.00007C11.7863 6.10673 10.254 4.55673 8.39678 4.55673C6.53959 4.55673 5.00725 6.10673 5.00725 8.00007Z" fill="#FFFF00" stroke="black" stroke-width="0.6" stroke-linecap="round" stroke-linejoin="round"/>
<path fill-rule="evenodd" clip-rule="evenodd" d="M8.40002 4.77686C9.24074 4.77949 10.0463 5.11994 10.6408 5.72386C11.2353 6.32778 11.5704 7.14612 11.573 8.00019C11.5704 8.85457 11.2354 9.67325 10.641 10.2777C10.0466 10.8822 9.24104 11.2233 8.40002 11.2269C6.66096 11.2269 5.22705 9.77352 5.22705 8.00019C5.23051 7.14639 5.56591 6.32856 6.16021 5.72483C6.75451 5.12109 7.55956 4.78037 8.40002 4.77686ZM5.30252 8.00019C5.30252 9.73352 6.70033 11.1469 8.40002 11.1469C10.0997 11.1469 11.4975 9.73019 11.4975 8.00019C11.4975 6.26686 10.0997 4.85352 8.40002 4.85352C7.57958 4.85703 6.79372 5.18968 6.21357 5.77904C5.63343 6.36839 5.30597 7.16672 5.30252 8.00019Z" fill="#FFFF00" stroke="black" stroke-width="0.6" stroke-linecap="round" stroke-linejoin="round"/>
<path fill-rule="evenodd" clip-rule="evenodd" d="M8.54127 4.4668H8.24268V11.5435H8.53799L8.54127 4.4668Z" fill="#FFFF00" stroke="black" stroke-width="0.6" stroke-linecap="round" stroke-linejoin="round"/>
<path fill-rule="evenodd" clip-rule="evenodd" d="M8.50845 4.42676H8.58392V11.5834H8.51173V4.42676H8.50845ZM8.21313 4.42676H8.29188V11.5834H8.21642V4.42676H8.21313Z" fill="#FFFF00" stroke="black" stroke-width="0.6" stroke-linecap="round" stroke-linejoin="round"/>
<path fill-rule="evenodd" clip-rule="evenodd" d="M11.8651 8.14026V7.88026L11.6551 7.68026L10.464 7.36026L8.7512 7.18359L6.68401 7.29026L5.21401 7.64359L4.9187 7.86693V8.13026L5.67011 7.78693L7.45511 7.50359H9.1712L10.4312 7.64359L11.304 7.85693L11.8651 8.14026Z" fill="#FFFF00" stroke="black" stroke-width="0.6" stroke-linecap="round" stroke-linejoin="round"/>
<path fill-rule="evenodd" clip-rule="evenodd" d="M8.4001 7.4602C9.21713 7.4602 10.0079 7.53687 10.6412 7.6602C11.2909 7.79354 11.747 7.9602 11.9045 8.14354V8.23687C11.7142 8.00354 11.1006 7.83687 10.6248 7.73687C10.0013 7.61687 9.21385 7.53687 8.39682 7.53687C7.54041 7.53687 6.73979 7.62354 6.12291 7.74354C5.63072 7.84354 4.97119 8.04354 4.88916 8.23687V8.1402C4.93182 8.00687 5.424 7.80687 6.11307 7.66354C6.73322 7.5402 7.53385 7.4602 8.39682 7.4602H8.4001ZM8.4001 7.15687C9.15151 7.15534 9.90155 7.22227 10.6412 7.35687C11.2909 7.4902 11.747 7.65687 11.9045 7.84354V7.93354C11.7142 7.70354 11.1006 7.53354 10.6248 7.43687C10.0013 7.31354 9.21385 7.23687 8.39682 7.23687C7.63528 7.23442 6.87517 7.30361 6.12619 7.44354C5.65041 7.53354 4.96463 7.7402 4.88916 7.93354V7.8402C4.9351 7.70687 5.43385 7.49687 6.11307 7.36354C6.7365 7.2402 7.53385 7.15687 8.4001 7.15687ZM8.38041 5.61687C9.66994 5.6102 10.7954 5.8002 11.3106 6.06687L11.4976 6.4002C11.0513 6.15354 9.83729 5.9002 8.38369 5.93354C7.19916 5.94354 5.9326 6.06687 5.29932 6.41354L5.52244 6.03354C6.04416 5.75687 7.27135 5.61687 8.38041 5.61687Z" fill="#FFFF00" stroke="black" stroke-width="0.6" stroke-linecap="round" stroke-linejoin="round"/>
<path fill-rule="evenodd" clip-rule="evenodd" d="M8.40012 5.88998C9.07341 5.87844 9.74641 5.92639 10.4115 6.03331C10.9365 6.13331 11.4386 6.27998 11.5107 6.35998L11.5665 6.45998C11.3926 6.34664 10.9562 6.21664 10.3984 6.10998C9.84059 6.00331 9.12855 5.96664 8.39684 5.96998C7.56668 5.96664 6.92027 6.00998 6.36902 6.10998C5.98902 6.16408 5.62008 6.28001 5.27637 6.45331L5.33215 6.34998C5.52902 6.24998 5.83418 6.12664 6.35262 6.02998C6.92684 5.92331 7.5798 5.89331 8.40012 5.88998ZM8.40012 5.58998C9.1023 5.58331 9.79793 5.62331 10.3393 5.72331C10.6901 5.77622 11.0296 5.88891 11.3434 6.05664L11.4254 6.18998C11.2876 6.03331 10.7692 5.88331 10.3065 5.80331C9.7684 5.70664 9.1023 5.66998 8.40012 5.66331C7.74647 5.65739 7.09346 5.70645 6.44777 5.80998C6.11016 5.85777 5.78226 5.96017 5.47652 6.11331L5.54871 6.00331C5.73902 5.90331 6.04746 5.80998 6.43465 5.73331C7.08459 5.62842 7.74207 5.57936 8.40012 5.58664V5.58998ZM10.1195 9.46664C9.55076 9.36661 8.97392 9.32197 8.39684 9.33331C6.24762 9.35998 5.55527 9.78331 5.46996 9.90998L5.3059 9.64331C5.85715 9.24331 7.02527 9.01664 8.40996 9.03664C9.12855 9.04998 9.74871 9.09998 10.2671 9.20331L10.1195 9.46998" fill="#FFFF00"/>
<path d="M10.1195 9.46664C9.55076 9.36661 8.97392 9.32197 8.39684 9.33331C6.24762 9.35998 5.55527 9.78331 5.46996 9.90998L5.3059 9.64331C5.85715 9.24331 7.02527 9.01664 8.40996 9.03664C9.12855 9.04998 9.74871 9.09998 10.2671 9.20331L10.1195 9.46998M8.40012 5.88998C9.07341 5.87844 9.74641 5.92639 10.4115 6.03331C10.9365 6.13331 11.4386 6.27998 11.5107 6.35998L11.5665 6.45998C11.3926 6.34664 10.9562 6.21664 10.3984 6.10998C9.84059 6.00331 9.12855 5.96664 8.39684 5.96998C7.56668 5.96664 6.92027 6.00998 6.36902 6.10998C5.98902 6.16408 5.62008 6.28001 5.27637 6.45331L5.33215 6.34998C5.52902 6.24998 5.83418 6.12664 6.35262 6.02998C6.92684 5.92331 7.5798 5.89331 8.40012 5.88998ZM8.40012 5.58998C9.1023 5.58331 9.79793 5.62331 10.3393 5.72331C10.6901 5.77622 11.0296 5.88891 11.3434 6.05664L11.4254 6.18998C11.2876 6.03331 10.7692 5.88331 10.3065 5.80331C9.7684 5.70664 9.1023 5.66998 8.40012 5.66331C7.74647 5.65739 7.09346 5.70645 6.44777 5.80998C6.11016 5.85777 5.78226 5.96017 5.47652 6.11331L5.54871 6.00331C5.73902 5.90331 6.04746 5.80998 6.43465 5.73331C7.08459 5.62842 7.74207 5.57936 8.40012 5.58664V5.58998Z" stroke="black" stroke-width="0.6" stroke-linecap="round" stroke-linejoin="round"/>
<path fill-rule="evenodd" clip-rule="evenodd" d="M8.38688 9.29691C8.98407 9.30691 9.56813 9.33024 10.1358 9.43691L10.0964 9.51024C9.57142 9.41024 9.00704 9.37691 8.39017 9.37691C7.59282 9.37024 6.7922 9.44691 6.09329 9.65024C5.87345 9.71357 5.50923 9.85691 5.46985 9.97691L5.43048 9.91024C5.4436 9.83691 5.66017 9.69024 6.0736 9.57691C6.87423 9.34357 7.62235 9.30024 8.38688 9.29691ZM8.41313 8.99024C9.04346 8.98959 9.67261 9.04536 10.2933 9.15691L10.2506 9.23357C9.64454 9.12063 9.02932 9.06594 8.41313 9.07024C7.61907 9.07024 6.77579 9.13024 6.00798 9.35691C5.76189 9.43024 5.33204 9.59024 5.31892 9.71357L5.27954 9.64024C5.2861 9.52691 5.65689 9.37691 5.99157 9.28024C6.76267 9.05024 7.60923 8.99357 8.41313 8.99024Z" fill="#FFFF00" stroke="black" stroke-width="0.6" stroke-linecap="round" stroke-linejoin="round"/>
<path fill-rule="evenodd" clip-rule="evenodd" d="M11.4649 9.68359L11.209 10.0936L10.4641 9.42359L8.54131 8.10692L6.36912 6.89692L5.24365 6.50692L5.48318 6.05359L5.56521 6.01025L6.26412 6.18692L8.57412 7.39692L9.90631 8.25025L11.0252 9.06692L11.4813 9.60025L11.4649 9.68359Z" fill="#FFFF00" stroke="black" stroke-width="0.6" stroke-linecap="round" stroke-linejoin="round"/>
<path fill-rule="evenodd" clip-rule="evenodd" d="M5.20428 6.51694C5.40115 6.38361 6.85146 7.03694 8.37396 7.97028C9.88662 8.90361 11.3369 9.95694 11.2057 10.1536L11.163 10.2236L11.1433 10.2403C11.1466 10.2369 11.1696 10.2069 11.1433 10.1369C11.0777 9.92028 10.0474 9.08694 8.34443 8.04028C6.68084 7.03694 5.29615 6.43028 5.16162 6.60361L5.20428 6.51694ZM11.5174 9.68028C11.6421 9.42694 10.2968 8.39694 8.62662 7.39361C6.92037 6.41028 5.68662 5.83028 5.46021 6.00361L5.41428 6.10028C5.41428 6.10361 5.41428 6.09361 5.4274 6.08361C5.46678 6.05028 5.53568 6.05028 5.56521 6.05028C5.9524 6.05694 7.05818 6.57361 8.61021 7.47694C9.29271 7.87694 11.4846 9.31028 11.4747 9.71028C11.4747 9.74361 11.478 9.75028 11.4649 9.77028L11.5207 9.68361L11.5174 9.68028Z" fill="#FFFF00" stroke="black" stroke-width="0.6" stroke-linecap="round" stroke-linejoin="round"/>
<path d="M6.32104 8.39232C6.32156 8.66832 6.37597 8.94148 6.4811 9.19598C6.58624 9.45048 6.74002 9.68127 6.93355 9.87499C7.12471 10.0722 7.3524 10.229 7.60349 10.3364C7.85458 10.4438 8.12411 10.4997 8.39655 10.5008C8.94792 10.5007 9.4767 10.2782 9.86656 9.8821C10.0594 9.68731 10.2125 9.45574 10.317 9.2007C10.4215 8.94565 10.4754 8.67214 10.4756 8.39587V5.57986L6.32104 5.57275V8.39232Z" fill="white" stroke="black" stroke-width="0.746669"/>
<path d="M6.39795 8.39571C6.39869 8.66047 6.45103 8.92246 6.55195 9.16656C6.65287 9.41066 6.80037 9.63205 6.98595 9.81794C7.35858 10.1985 7.86459 10.4133 8.39296 10.4153C8.92039 10.4156 9.4264 10.2033 9.79996 9.82505C9.9849 9.63887 10.1318 9.41735 10.2321 9.17326C10.3324 8.92917 10.3842 8.66733 10.3845 8.40283V5.66504H6.40495V8.39571M9.58996 6.48637V8.22505L9.58646 8.40638C9.58764 8.56522 9.55725 8.72267 9.49711 8.8693C9.43697 9.01593 9.34831 9.14872 9.23646 9.25972C9.01388 9.48661 8.71177 9.61449 8.39646 9.61527C8.06745 9.61527 7.77695 9.47305 7.55995 9.25261C7.33661 9.0265 7.21072 8.71959 7.20995 8.39927V6.47926L9.58996 6.48637Z" fill="#FF0000"/>
<path d="M6.39795 8.39571C6.39869 8.66047 6.45103 8.92246 6.55195 9.16656C6.65287 9.41066 6.80037 9.63205 6.98595 9.81794C7.35858 10.1985 7.86459 10.4133 8.39296 10.4153C8.92039 10.4156 9.4264 10.2033 9.79996 9.82505C9.9849 9.63887 10.1318 9.41735 10.2321 9.17326C10.3324 8.92917 10.3842 8.66733 10.3845 8.40283V5.66504H6.40495V8.39571M9.58996 6.48637V8.22505L9.58646 8.40638C9.58764 8.56522 9.55725 8.72267 9.49711 8.8693C9.43697 9.01593 9.34831 9.14872 9.23646 9.25972C9.01388 9.48661 8.71177 9.61449 8.39646 9.61527C8.06745 9.61527 7.77695 9.47305 7.55995 9.25261C7.33661 9.0265 7.21072 8.71959 7.20995 8.39927V6.47926L9.58996 6.48637Z" stroke="black" stroke-width="0.533335"/>
<path d="M6.65698 6.37996C6.66048 6.18441 6.79698 6.13818 6.79698 6.13818C6.80048 6.13818 6.94748 6.18796 6.94748 6.38352H6.65698" fill="#FFFF00"/>
<path d="M6.53793 6.14174L6.51343 6.36574H6.66043C6.66043 6.18085 6.80043 6.15241 6.80043 6.15241C6.80393 6.15241 6.94043 6.19152 6.94393 6.36574H7.09094L7.06294 6.13818H6.53793V6.14174ZM6.50293 6.3693H7.09794C7.10844 6.3693 7.11894 6.37996 7.11894 6.39418C7.11894 6.41196 7.10844 6.42263 7.09794 6.42263H6.50293C6.49243 6.42263 6.48193 6.41196 6.48193 6.39418C6.48193 6.37996 6.49243 6.3693 6.50643 6.3693H6.50293Z" fill="#FFFF00" stroke="black" stroke-width="0.533335"/>
<path d="M6.71985 6.36586C6.71985 6.24853 6.80035 6.21653 6.80035 6.21653C6.80035 6.21653 6.88085 6.25208 6.88085 6.36586H6.71985ZM6.51685 6.04586H7.08735C7.09785 6.04586 7.10835 6.06008 7.10835 6.07431C7.10835 6.08497 7.09785 6.09564 7.08735 6.09564H6.51685C6.50635 6.09564 6.49585 6.08497 6.49585 6.07075C6.49585 6.06008 6.50635 6.04942 6.51685 6.04942V6.04586ZM6.53085 6.0992H7.06985C7.08035 6.0992 7.09085 6.10986 7.09085 6.12408C7.09085 6.13831 7.08035 6.14897 7.06985 6.14897H6.52735C6.51335 6.14897 6.50635 6.13831 6.50635 6.12408C6.50635 6.10986 6.51335 6.0992 6.52735 6.0992H6.53085ZM6.70585 5.72231H6.74785V5.75075H6.77935V5.72231H6.82485V5.75431H6.85635V5.71875H6.89835V5.78986C6.89835 5.80408 6.89135 5.81119 6.88085 5.81119H6.72685C6.71635 5.81119 6.70585 5.80408 6.70585 5.79342V5.72231ZM6.86685 5.81831L6.87735 6.04586H6.72685L6.73735 5.81475H6.86685" fill="#FFFF00"/>
<path d="M6.86685 5.81831L6.87735 6.04586H6.72685L6.73735 5.81475H6.86685M6.71985 6.36586C6.71985 6.24853 6.80035 6.21653 6.80035 6.21653C6.80035 6.21653 6.88085 6.25208 6.88085 6.36586H6.71985ZM6.51685 6.04586H7.08735C7.09785 6.04586 7.10835 6.06008 7.10835 6.07431C7.10835 6.08497 7.09785 6.09564 7.08735 6.09564H6.51685C6.50635 6.09564 6.49585 6.08497 6.49585 6.07075C6.49585 6.06008 6.50635 6.04942 6.51685 6.04942V6.04586ZM6.53085 6.0992H7.06985C7.08035 6.0992 7.09085 6.10986 7.09085 6.12408C7.09085 6.13831 7.08035 6.14897 7.06985 6.14897H6.52735C6.51335 6.14897 6.50635 6.13831 6.50635 6.12408C6.50635 6.10986 6.51335 6.0992 6.52735 6.0992H6.53085ZM6.70585 5.72231H6.74785V5.75075H6.77935V5.72231H6.82485V5.75431H6.85635V5.71875H6.89835V5.78986C6.89835 5.80408 6.89135 5.81119 6.88085 5.81119H6.72685C6.71635 5.81119 6.70585 5.80408 6.70585 5.79342V5.72231Z" stroke="black" stroke-width="0.533335"/>
<path d="M6.68492 5.9248V6.04569H6.54492V5.9248H6.68492Z" fill="#FFFF00" stroke="black" stroke-width="0.533335"/>
<path d="M7.05602 5.9248V6.04569H6.91602V5.9248H7.05602Z" fill="#FFFF00" stroke="black" stroke-width="0.533335"/>
<path d="M6.52051 5.83252H6.56251V5.86808H6.59401V5.83252H6.63601V5.86808H6.66751V5.83252H6.70951V5.90363C6.70951 5.91785 6.70251 5.92496 6.69201 5.92496H6.54151C6.53594 5.92496 6.5306 5.92272 6.52666 5.91872C6.52272 5.91472 6.52051 5.90929 6.52051 5.90363V5.83252Z" fill="#FFFF00" stroke="black" stroke-width="0.533335"/>
<path d="M6.89136 5.83252H6.93336V5.86808H6.96486V5.83252H7.00686V5.86808H7.03836V5.83252H7.08036V5.90363C7.08036 5.91785 7.07336 5.92496 7.06286 5.92496H6.91236C6.90679 5.92496 6.90145 5.92272 6.89751 5.91872C6.89357 5.91472 6.89136 5.90929 6.89136 5.90363V5.83252Z" fill="#FFFF00" stroke="black" stroke-width="0.533335"/>
<path d="M6.78638 5.88954C6.78638 5.8682 6.81788 5.8682 6.81788 5.88954V5.94642H6.78638V5.88954Z" fill="black"/>
<path d="M6.60083 5.96766C6.60083 5.94633 6.62883 5.94633 6.62883 5.96766V6.01033H6.60083V5.96766Z" fill="black"/>
<path d="M6.97192 5.96766C6.97192 5.94633 6.99992 5.94633 6.99992 5.96766V6.01033H6.97192V5.96766Z" fill="black"/>
<path d="M6.65698 8.02596C6.66048 7.8304 6.79698 7.78418 6.79698 7.78418C6.80048 7.78418 6.94748 7.83396 6.94748 8.02951H6.65698" fill="#FFFF00"/>
<path d="M6.53793 7.78773L6.51343 8.01174H6.66043C6.66043 7.82685 6.80043 7.7984 6.80043 7.7984C6.80393 7.7984 6.94043 7.83751 6.94393 8.01174H7.09094L7.06294 7.78418H6.53793V7.78773ZM6.50293 8.01529H7.09794C7.10844 8.01529 7.11894 8.02596 7.11894 8.04018C7.11894 8.05796 7.10844 8.06863 7.09794 8.06863H6.50293C6.49243 8.06863 6.48193 8.05796 6.48193 8.04018C6.48193 8.02596 6.49243 8.01529 6.50643 8.01529H6.50293Z" fill="#FFFF00" stroke="black" stroke-width="0.533335"/>
<path d="M6.71985 8.01186C6.71985 7.89453 6.80035 7.86253 6.80035 7.86253C6.80035 7.86253 6.88085 7.89808 6.88085 8.01186H6.71985ZM6.51685 7.69186H7.08735C7.09785 7.69186 7.10835 7.70608 7.10835 7.7203C7.10835 7.73097 7.09785 7.74164 7.08735 7.74164H6.51685C6.50635 7.74164 6.49585 7.73097 6.49585 7.71675C6.49585 7.70608 6.50635 7.69541 6.51685 7.69541V7.69186ZM6.53085 7.74519H7.06985C7.08035 7.74519 7.09085 7.75586 7.09085 7.77008C7.09085 7.7843 7.08035 7.79497 7.06985 7.79497H6.52735C6.51335 7.79497 6.50635 7.7843 6.50635 7.77008C6.50635 7.75586 6.51335 7.74519 6.52735 7.74519H6.53085ZM6.70585 7.3683H6.74785V7.39675H6.77935V7.3683H6.82485V7.4003H6.85635V7.36475H6.89835V7.43586C6.89835 7.45008 6.89135 7.45719 6.88085 7.45719H6.72685C6.71635 7.45719 6.70585 7.45008 6.70585 7.43941V7.3683ZM6.86685 7.4643L6.87735 7.69186H6.72685L6.73735 7.46075H6.86685" fill="#FFFF00"/>
<path d="M6.86685 7.4643L6.87735 7.69186H6.72685L6.73735 7.46075H6.86685M6.71985 8.01186C6.71985 7.89453 6.80035 7.86253 6.80035 7.86253C6.80035 7.86253 6.88085 7.89808 6.88085 8.01186H6.71985ZM6.51685 7.69186H7.08735C7.09785 7.69186 7.10835 7.70608 7.10835 7.7203C7.10835 7.73097 7.09785 7.74164 7.08735 7.74164H6.51685C6.50635 7.74164 6.49585 7.73097 6.49585 7.71675C6.49585 7.70608 6.50635 7.69541 6.51685 7.69541V7.69186ZM6.53085 7.74519H7.06985C7.08035 7.74519 7.09085 7.75586 7.09085 7.77008C7.09085 7.7843 7.08035 7.79497 7.06985 7.79497H6.52735C6.51335 7.79497 6.50635 7.7843 6.50635 7.77008C6.50635 7.75586 6.51335 7.74519 6.52735 7.74519H6.53085ZM6.70585 7.3683H6.74785V7.39675H6.77935V7.3683H6.82485V7.4003H6.85635V7.36475H6.89835V7.43586C6.89835 7.45008 6.89135 7.45719 6.88085 7.45719H6.72685C6.71635 7.45719 6.70585 7.45008 6.70585 7.43941V7.3683Z" stroke="black" stroke-width="0.533335"/>
<path d="M6.68492 7.5708V7.69169H6.54492V7.5708H6.68492Z" fill="#FFFF00" stroke="black" stroke-width="0.533335"/>
<path d="M7.05602 7.5708V7.69169H6.91602V7.5708H7.05602Z" fill="#FFFF00" stroke="black" stroke-width="0.533335"/>
<path d="M6.52051 7.47852H6.56251V7.51407H6.59401V7.47852H6.63601V7.51407H6.66751V7.47852H6.70951V7.54963C6.70951 7.56385 6.70251 7.57096 6.69201 7.57096H6.54151C6.53594 7.57096 6.5306 7.56871 6.52666 7.56471C6.52272 7.56071 6.52051 7.55528 6.52051 7.54963V7.47852Z" fill="#FFFF00" stroke="black" stroke-width="0.533335"/>
<path d="M6.89136 7.47852H6.93336V7.51407H6.96486V7.47852H7.00686V7.51407H7.03836V7.47852H7.08036V7.54963C7.08036 7.56385 7.07336 7.57096 7.06286 7.57096H6.91236C6.90679 7.57096 6.90145 7.56871 6.89751 7.56471C6.89357 7.56071 6.89136 7.55528 6.89136 7.54963V7.47852Z" fill="#FFFF00" stroke="black" stroke-width="0.533335"/>
<path d="M6.78638 7.53553C6.78638 7.5142 6.81788 7.5142 6.81788 7.53553V7.59242H6.78638V7.53553Z" fill="black"/>
<path d="M6.60083 7.61366C6.60083 7.59232 6.62883 7.59232 6.62883 7.61366V7.65632H6.60083V7.61366Z" fill="black"/>
<path d="M6.97192 7.61366C6.97192 7.59232 6.99992 7.59232 6.99992 7.61366V7.65632H6.97192V7.61366Z" fill="black"/>
<path d="M7.28852 9.74215C7.15438 9.60183 7.21827 9.47087 7.21827 9.47087C7.22074 9.46834 7.35909 9.39746 7.49569 9.53527L7.291 9.74466" fill="#FFFF00"/>
<path d="M7.03828 9.65989L7.17749 9.8354L7.28107 9.72944C7.15192 9.59916 7.23069 9.4782 7.23069 9.4782C7.23316 9.47567 7.35666 9.40485 7.48083 9.52509L7.5844 9.41914L7.40572 9.27896L7.0358 9.65739L7.03828 9.65989ZM7.17258 9.84548L7.59182 9.4166C7.59922 9.40903 7.61407 9.40898 7.624 9.419C7.63642 9.43153 7.63647 9.44661 7.62908 9.45418L7.20983 9.88306C7.20243 9.89063 7.18758 9.89068 7.17516 9.87815C7.16523 9.86813 7.16518 9.85305 7.17504 9.84296L7.17258 9.84548Z" fill="#FFFF00" stroke="black" stroke-width="0.533335"/>
<path d="M7.32299 9.68663C7.24103 9.60395 7.27539 9.52338 7.27539 9.52338C7.27539 9.52338 7.35695 9.49041 7.43643 9.57059L7.32299 9.68663ZM6.95643 9.60746L7.3584 9.19625C7.3658 9.18868 7.38313 9.19113 7.39306 9.20115C7.40052 9.20867 7.40057 9.22375 7.39317 9.23132L6.9912 9.64254C6.9838 9.65011 6.96895 9.65016 6.95901 9.64014C6.95156 9.63262 6.95151 9.61753 6.95891 9.60997L6.95643 9.60746ZM7.00354 9.63495L7.38332 9.24644C7.39072 9.23887 7.40557 9.23882 7.4155 9.24884C7.42544 9.25887 7.42549 9.27395 7.41809 9.28152L7.03585 9.67255C7.02599 9.68264 7.0136 9.68017 7.00367 9.67015C6.99373 9.66013 6.99121 9.64757 7.00108 9.63747L7.00354 9.63495ZM6.86358 9.24323L6.89318 9.21295L6.91305 9.233L6.93524 9.21029L6.91537 9.19025L6.94743 9.15745L6.96978 9.18L6.99198 9.1573L6.96714 9.13224L6.99673 9.10197L7.04641 9.15208C7.05634 9.1621 7.05638 9.17216 7.04898 9.17973L6.94047 9.29073C6.93307 9.2983 6.92071 9.30085 6.91326 9.29334L6.86358 9.24323ZM7.04408 9.19483L7.21043 9.34761L7.10439 9.45609L6.95035 9.28567L7.0416 9.19232" fill="#FFFF00"/>
<path d="M7.04408 9.19483L7.21043 9.34761L7.10439 9.45609L6.95035 9.28567L7.0416 9.19232M7.32299 9.68663C7.24103 9.60395 7.27539 9.52338 7.27539 9.52338C7.27539 9.52338 7.35695 9.49041 7.43643 9.57059L7.32299 9.68663ZM6.95643 9.60746L7.3584 9.19625C7.3658 9.18868 7.38313 9.19113 7.39306 9.20115C7.40052 9.20867 7.40057 9.22375 7.39317 9.23132L6.9912 9.64254C6.9838 9.65011 6.96895 9.65016 6.95901 9.64014C6.95156 9.63262 6.95151 9.61753 6.95891 9.60997L6.95643 9.60746ZM7.00354 9.63495L7.38332 9.24644C7.39072 9.23887 7.40557 9.23882 7.4155 9.24884C7.42544 9.25887 7.42549 9.27395 7.41809 9.28152L7.03585 9.67255C7.02599 9.68264 7.0136 9.68017 7.00367 9.67015C6.99373 9.66013 6.99121 9.64757 7.00108 9.63747L7.00354 9.63495ZM6.86358 9.24323L6.89318 9.21295L6.91305 9.233L6.93524 9.21029L6.91537 9.19025L6.94743 9.15745L6.96978 9.18L6.99198 9.1573L6.96714 9.13224L6.99673 9.10197L7.04641 9.15208C7.05634 9.1621 7.05638 9.17216 7.04898 9.17973L6.94047 9.29073C6.93307 9.2983 6.92071 9.30085 6.91326 9.29334L6.86358 9.24323Z" stroke="black" stroke-width="0.533335"/>
<path d="M6.99049 9.40153L7.07493 9.48672L6.97629 9.58763L6.89185 9.50244L6.99049 9.40153Z" fill="#FFFF00" stroke="black" stroke-width="0.533335"/>
<path d="M7.25196 9.13395L7.33641 9.21914L7.23776 9.32005L7.15332 9.23486L7.25196 9.13395Z" fill="#FFFF00" stroke="black" stroke-width="0.533335"/>
<path d="M6.81006 9.45459L6.83965 9.42432L6.86449 9.44937L6.88668 9.42667L6.86185 9.40161L6.89144 9.37134L6.91628 9.39639L6.93847 9.37369L6.91364 9.34863L6.94323 9.31836L6.9929 9.36847C7.00284 9.37849 7.00287 9.38855 6.99548 9.39612L6.88943 9.5046C6.88551 9.50861 6.88017 9.51088 6.8746 9.5109C6.86903 9.51092 6.86368 9.50869 6.85973 9.5047L6.81006 9.45459Z" fill="#FFFF00" stroke="black" stroke-width="0.533335"/>
<path d="M7.07129 9.1875L7.10088 9.15723L7.12572 9.18228L7.14791 9.15958L7.12308 9.13452L7.15267 9.10425L7.17751 9.1293L7.1997 9.1066L7.17487 9.08154L7.20446 9.05127L7.25413 9.10138C7.26407 9.1114 7.2641 9.12146 7.25671 9.12903L7.15066 9.23751C7.14674 9.24152 7.1414 9.24379 7.13583 9.24381C7.13026 9.24383 7.12492 9.2416 7.12096 9.23761L7.07129 9.1875Z" fill="#FFFF00" stroke="black" stroke-width="0.533335"/>
<path d="M7.03706 9.30327C7.02215 9.28823 7.04435 9.26553 7.05925 9.28056L7.09899 9.32065L7.07679 9.34335L7.03706 9.30327Z" fill="black"/>
<path d="M6.96113 9.49174C6.94623 9.47671 6.96595 9.45653 6.98086 9.47156L7.01066 9.50163L6.99093 9.52181L6.96113 9.49174Z" fill="black"/>
<path d="M7.2226 9.22465C7.2077 9.20962 7.22743 9.18944 7.24233 9.20447L7.27213 9.23454L7.25241 9.25472L7.2226 9.22465Z" fill="black"/>
<path d="M8.25659 6.37996C8.26009 6.18441 8.39659 6.13818 8.39659 6.13818C8.40009 6.13818 8.54709 6.18796 8.54709 6.38352H8.25659" fill="#FFFF00"/>
<path d="M8.13754 6.14174L8.11304 6.36574H8.26004C8.26004 6.18085 8.40004 6.15241 8.40004 6.15241C8.40354 6.15241 8.54004 6.19152 8.54354 6.36574H8.69055L8.66254 6.13818H8.13754V6.14174ZM8.10254 6.3693H8.69755C8.70805 6.3693 8.71854 6.37996 8.71854 6.39418C8.71854 6.41196 8.70805 6.42263 8.69755 6.42263H8.10254C8.09204 6.42263 8.08154 6.41196 8.08154 6.39418C8.08154 6.37996 8.09204 6.3693 8.10604 6.3693H8.10254Z" fill="#FFFF00" stroke="black" stroke-width="0.533335"/>
<path d="M8.31946 6.36586C8.31946 6.24853 8.39996 6.21653 8.39996 6.21653C8.39996 6.21653 8.48046 6.25208 8.48046 6.36586H8.31946ZM8.11646 6.04586H8.68696C8.69746 6.04586 8.70796 6.06008 8.70796 6.07431C8.70796 6.08497 8.69746 6.09564 8.68696 6.09564H8.11646C8.10596 6.09564 8.09546 6.08497 8.09546 6.07075C8.09546 6.06008 8.10596 6.04942 8.11646 6.04942V6.04586ZM8.13046 6.0992H8.66946C8.67996 6.0992 8.69046 6.10986 8.69046 6.12408C8.69046 6.13831 8.67996 6.14897 8.66946 6.14897H8.12696C8.11296 6.14897 8.10596 6.13831 8.10596 6.12408C8.10596 6.10986 8.11296 6.0992 8.12696 6.0992H8.13046ZM8.30546 5.72231H8.34746V5.75075H8.37896V5.72231H8.42446V5.75431H8.45596V5.71875H8.49796V5.78986C8.49796 5.80408 8.49096 5.81119 8.48046 5.81119H8.32646C8.31596 5.81119 8.30546 5.80408 8.30546 5.79342V5.72231ZM8.46646 5.81831L8.47696 6.04586H8.32646L8.33696 5.81475H8.46646" fill="#FFFF00"/>
<path d="M8.46646 5.81831L8.47696 6.04586H8.32646L8.33696 5.81475H8.46646M8.31946 6.36586C8.31946 6.24853 8.39996 6.21653 8.39996 6.21653C8.39996 6.21653 8.48046 6.25208 8.48046 6.36586H8.31946ZM8.11646 6.04586H8.68696C8.69746 6.04586 8.70796 6.06008 8.70796 6.07431C8.70796 6.08497 8.69746 6.09564 8.68696 6.09564H8.11646C8.10596 6.09564 8.09546 6.08497 8.09546 6.07075C8.09546 6.06008 8.10596 6.04942 8.11646 6.04942V6.04586ZM8.13046 6.0992H8.66946C8.67996 6.0992 8.69046 6.10986 8.69046 6.12408C8.69046 6.13831 8.67996 6.14897 8.66946 6.14897H8.12696C8.11296 6.14897 8.10596 6.13831 8.10596 6.12408C8.10596 6.10986 8.11296 6.0992 8.12696 6.0992H8.13046ZM8.30546 5.72231H8.34746V5.75075H8.37896V5.72231H8.42446V5.75431H8.45596V5.71875H8.49796V5.78986C8.49796 5.80408 8.49096 5.81119 8.48046 5.81119H8.32646C8.31596 5.81119 8.30546 5.80408 8.30546 5.79342V5.72231Z" stroke="black" stroke-width="0.533335"/>
<path d="M8.28453 5.9248V6.04569H8.14453V5.9248H8.28453Z" fill="#FFFF00" stroke="black" stroke-width="0.533335"/>
<path d="M8.65563 5.9248V6.04569H8.51562V5.9248H8.65563Z" fill="#FFFF00" stroke="black" stroke-width="0.533335"/>
<path d="M8.12012 5.83252H8.16212V5.86808H8.19362V5.83252H8.23562V5.86808H8.26712V5.83252H8.30912V5.90363C8.30912 5.91785 8.30212 5.92496 8.29162 5.92496H8.14112C8.13555 5.92496 8.13021 5.92272 8.12627 5.91872C8.12233 5.91472 8.12012 5.90929 8.12012 5.90363V5.83252Z" fill="#FFFF00" stroke="black" stroke-width="0.533335"/>
<path d="M8.49097 5.83252H8.53297V5.86808H8.56447V5.83252H8.60647V5.86808H8.63797V5.83252H8.67997V5.90363C8.67997 5.91785 8.67297 5.92496 8.66247 5.92496H8.51197C8.5064 5.92496 8.50106 5.92272 8.49712 5.91872C8.49318 5.91472 8.49097 5.90929 8.49097 5.90363V5.83252Z" fill="#FFFF00" stroke="black" stroke-width="0.533335"/>
<path d="M8.38599 5.88954C8.38599 5.8682 8.41749 5.8682 8.41749 5.88954V5.94642H8.38599V5.88954Z" fill="black"/>
<path d="M8.20044 5.96766C8.20044 5.94633 8.22844 5.94633 8.22844 5.96766V6.01033H8.20044V5.96766Z" fill="black"/>
<path d="M8.57153 5.96766C8.57153 5.94633 8.59953 5.94633 8.59953 5.96766V6.01033H8.57153V5.96766Z" fill="black"/>
<path d="M10.136 6.37996C10.1325 6.18441 9.99599 6.13818 9.99599 6.13818C9.99249 6.13818 9.84549 6.18796 9.84549 6.38352H10.136" fill="#FFFF00"/>
<path d="M10.255 6.14174L10.2795 6.36574H10.1325C10.1325 6.18085 9.99253 6.15241 9.99253 6.15241C9.98903 6.15241 9.85253 6.19152 9.84903 6.36574H9.70203L9.73003 6.13818H10.255V6.14174ZM10.29 6.3693H9.69503C9.68453 6.3693 9.67403 6.37996 9.67403 6.39418C9.67403 6.41196 9.68453 6.42263 9.69503 6.42263H10.29C10.3005 6.42263 10.311 6.41196 10.311 6.39418C10.311 6.37996 10.3005 6.3693 10.2865 6.3693H10.29Z" fill="#FFFF00" stroke="black" stroke-width="0.533335"/>
<path d="M10.0731 6.36586C10.0731 6.24853 9.99262 6.21653 9.99262 6.21653C9.99262 6.21653 9.91212 6.25208 9.91212 6.36586H10.0731ZM10.2761 6.04586H9.70562C9.69512 6.04586 9.68462 6.06008 9.68462 6.07431C9.68462 6.08497 9.69512 6.09564 9.70562 6.09564H10.2761C10.2866 6.09564 10.2971 6.08497 10.2971 6.07075C10.2971 6.06008 10.2866 6.04942 10.2761 6.04942V6.04586ZM10.2621 6.0992H9.72312C9.71262 6.0992 9.70212 6.10986 9.70212 6.12408C9.70212 6.13831 9.71262 6.14897 9.72312 6.14897H10.2656C10.2796 6.14897 10.2866 6.13831 10.2866 6.12408C10.2866 6.10986 10.2796 6.0992 10.2656 6.0992H10.2621ZM10.0871 5.72231H10.0451V5.75075H10.0136V5.72231H9.96812V5.75431H9.93662V5.71875H9.89462V5.78986C9.89462 5.80408 9.90162 5.81119 9.91212 5.81119H10.0661C10.0766 5.81119 10.0871 5.80408 10.0871 5.79342V5.72231ZM9.92612 5.81831L9.91562 6.04586H10.0661L10.0556 5.81475H9.92612" fill="#FFFF00"/>
<path d="M9.92612 5.81831L9.91562 6.04586H10.0661L10.0556 5.81475H9.92612M10.0731 6.36586C10.0731 6.24853 9.99262 6.21653 9.99262 6.21653C9.99262 6.21653 9.91212 6.25208 9.91212 6.36586H10.0731ZM10.2761 6.04586H9.70562C9.69512 6.04586 9.68462 6.06008 9.68462 6.07431C9.68462 6.08497 9.69512 6.09564 9.70562 6.09564H10.2761C10.2866 6.09564 10.2971 6.08497 10.2971 6.07075C10.2971 6.06008 10.2866 6.04942 10.2761 6.04942V6.04586ZM10.2621 6.0992H9.72312C9.71262 6.0992 9.70212 6.10986 9.70212 6.12408C9.70212 6.13831 9.71262 6.14897 9.72312 6.14897H10.2656C10.2796 6.14897 10.2866 6.13831 10.2866 6.12408C10.2866 6.10986 10.2796 6.0992 10.2656 6.0992H10.2621ZM10.0871 5.72231H10.0451V5.75075H10.0136V5.72231H9.96812V5.75431H9.93662V5.71875H9.89462V5.78986C9.89462 5.80408 9.90162 5.81119 9.91212 5.81119H10.0661C10.0766 5.81119 10.0871 5.80408 10.0871 5.79342V5.72231Z" stroke="black" stroke-width="0.533335"/>
<path d="M10.108 5.9248V6.04569H10.248V5.9248H10.108Z" fill="#FFFF00" stroke="black" stroke-width="0.533335"/>
<path d="M9.73695 5.9248V6.04569H9.87695V5.9248H9.73695Z" fill="#FFFF00" stroke="black" stroke-width="0.533335"/>
<path d="M10.2725 5.83252H10.2305V5.86808H10.199V5.83252H10.157V5.86808H10.1255V5.83252H10.0835V5.90363C10.0835 5.91785 10.0905 5.92496 10.101 5.92496H10.2515C10.257 5.92496 10.2624 5.92272 10.2663 5.91872C10.2702 5.91472 10.2725 5.90929 10.2725 5.90363V5.83252Z" fill="#FFFF00" stroke="black" stroke-width="0.533335"/>
<path d="M9.90161 5.83252H9.85961V5.86808H9.82811V5.83252H9.78611V5.86808H9.75461V5.83252H9.71261V5.90363C9.71261 5.91785 9.71961 5.92496 9.73011 5.92496H9.88061C9.88618 5.92496 9.89152 5.92272 9.89546 5.91872C9.8994 5.91472 9.90161 5.90929 9.90161 5.90363V5.83252Z" fill="#FFFF00" stroke="black" stroke-width="0.533335"/>
<path d="M10.0066 5.88954C10.0066 5.8682 9.97509 5.8682 9.97509 5.88954V5.94642H10.0066V5.88954Z" fill="black"/>
<path d="M10.1921 5.96766C10.1921 5.94633 10.1641 5.94633 10.1641 5.96766V6.01033H10.1921V5.96766Z" fill="black"/>
<path d="M9.82104 5.96766C9.82104 5.94633 9.79305 5.94633 9.79305 5.96766V6.01033H9.82104V5.96766Z" fill="black"/>
<path d="M10.136 8.02596C10.1325 7.8304 9.99599 7.78418 9.99599 7.78418C9.99249 7.78418 9.84549 7.83396 9.84549 8.02951H10.136" fill="#FFFF00"/>
<path d="M10.255 7.78773L10.2795 8.01174H10.1325C10.1325 7.82685 9.99253 7.7984 9.99253 7.7984C9.98903 7.7984 9.85253 7.83751 9.84903 8.01174H9.70203L9.73003 7.78418H10.255V7.78773ZM10.29 8.01529H9.69503C9.68453 8.01529 9.67403 8.02596 9.67403 8.04018C9.67403 8.05796 9.68453 8.06863 9.69503 8.06863H10.29C10.3005 8.06863 10.311 8.05796 10.311 8.04018C10.311 8.02596 10.3005 8.01529 10.2865 8.01529H10.29Z" fill="#FFFF00" stroke="black" stroke-width="0.533335"/>
<path d="M10.0731 8.01186C10.0731 7.89453 9.99262 7.86253 9.99262 7.86253C9.99262 7.86253 9.91212 7.89808 9.91212 8.01186H10.0731ZM10.2761 7.69186H9.70562C9.69512 7.69186 9.68462 7.70608 9.68462 7.7203C9.68462 7.73097 9.69512 7.74164 9.70562 7.74164H10.2761C10.2866 7.74164 10.2971 7.73097 10.2971 7.71675C10.2971 7.70608 10.2866 7.69541 10.2761 7.69541V7.69186ZM10.2621 7.74519H9.72312C9.71262 7.74519 9.70212 7.75586 9.70212 7.77008C9.70212 7.7843 9.71262 7.79497 9.72312 7.79497H10.2656C10.2796 7.79497 10.2866 7.7843 10.2866 7.77008C10.2866 7.75586 10.2796 7.74519 10.2656 7.74519H10.2621ZM10.0871 7.3683H10.0451V7.39675H10.0136V7.3683H9.96812V7.4003H9.93662V7.36475H9.89462V7.43586C9.89462 7.45008 9.90162 7.45719 9.91212 7.45719H10.0661C10.0766 7.45719 10.0871 7.45008 10.0871 7.43941V7.3683ZM9.92612 7.4643L9.91562 7.69186H10.0661L10.0556 7.46075H9.92612" fill="#FFFF00"/>
<path d="M9.92612 7.4643L9.91562 7.69186H10.0661L10.0556 7.46075H9.92612M10.0731 8.01186C10.0731 7.89453 9.99262 7.86253 9.99262 7.86253C9.99262 7.86253 9.91212 7.89808 9.91212 8.01186H10.0731ZM10.2761 7.69186H9.70562C9.69512 7.69186 9.68462 7.70608 9.68462 7.7203C9.68462 7.73097 9.69512 7.74164 9.70562 7.74164H10.2761C10.2866 7.74164 10.2971 7.73097 10.2971 7.71675C10.2971 7.70608 10.2866 7.69541 10.2761 7.69541V7.69186ZM10.2621 7.74519H9.72312C9.71262 7.74519 9.70212 7.75586 9.70212 7.77008C9.70212 7.7843 9.71262 7.79497 9.72312 7.79497H10.2656C10.2796 7.79497 10.2866 7.7843 10.2866 7.77008C10.2866 7.75586 10.2796 7.74519 10.2656 7.74519H10.2621ZM10.0871 7.3683H10.0451V7.39675H10.0136V7.3683H9.96812V7.4003H9.93662V7.36475H9.89462V7.43586C9.89462 7.45008 9.90162 7.45719 9.91212 7.45719H10.0661C10.0766 7.45719 10.0871 7.45008 10.0871 7.43941V7.3683Z" stroke="black" stroke-width="0.533335"/>
<path d="M10.108 7.5708V7.69169H10.248V7.5708H10.108Z" fill="#FFFF00" stroke="black" stroke-width="0.533335"/>
<path d="M9.73695 7.5708V7.69169H9.87695V7.5708H9.73695Z" fill="#FFFF00" stroke="black" stroke-width="0.533335"/>
<path d="M10.2725 7.47852H10.2305V7.51407H10.199V7.47852H10.157V7.51407H10.1255V7.47852H10.0835V7.54963C10.0835 7.56385 10.0905 7.57096 10.101 7.57096H10.2515C10.257 7.57096 10.2624 7.56871 10.2663 7.56471C10.2702 7.56071 10.2725 7.55528 10.2725 7.54963V7.47852Z" fill="#FFFF00" stroke="black" stroke-width="0.533335"/>
<path d="M9.90161 7.47852H9.85961V7.51407H9.82811V7.47852H9.78611V7.51407H9.75461V7.47852H9.71261V7.54963C9.71261 7.56385 9.71961 7.57096 9.73011 7.57096H9.88061C9.88618 7.57096 9.89152 7.56871 9.89546 7.56471C9.8994 7.56071 9.90161 7.55528 9.90161 7.54963V7.47852Z" fill="#FFFF00" stroke="black" stroke-width="0.533335"/>
<path d="M10.0066 7.53553C10.0066 7.5142 9.97509 7.5142 9.97509 7.53553V7.59242H10.0066V7.53553Z" fill="black"/>
<path d="M10.1921 7.61366C10.1921 7.59232 10.1641 7.59232 10.1641 7.61366V7.65632H10.1921V7.61366Z" fill="black"/>
<path d="M9.82104 7.61366C9.82104 7.59232 9.79305 7.59232 9.79305 7.61366V7.65632H9.82104V7.61366Z" fill="black"/>
<path d="M9.50445 9.74215C9.63859 9.60183 9.5747 9.47087 9.5747 9.47087C9.57223 9.46834 9.43388 9.39746 9.29728 9.53527L9.50197 9.74466" fill="#FFFF00"/>
<path d="M9.75469 9.65989L9.61548 9.8354L9.5119 9.72944C9.64105 9.59916 9.56228 9.4782 9.56228 9.4782C9.55981 9.47567 9.43631 9.40485 9.31214 9.52509L9.20857 9.41914L9.38725 9.27896L9.75717 9.65739L9.75469 9.65989ZM9.62039 9.84548L9.20115 9.4166C9.19375 9.40903 9.1789 9.40898 9.16897 9.419C9.15655 9.43153 9.1565 9.44661 9.16389 9.45418L9.58314 9.88306C9.59054 9.89063 9.60539 9.89068 9.6178 9.87815C9.62774 9.86813 9.62779 9.85305 9.61793 9.84296L9.62039 9.84548Z" fill="#FFFF00" stroke="black" stroke-width="0.533335"/>
<path d="M9.46998 9.68663C9.55194 9.60395 9.51757 9.52338 9.51757 9.52338C9.51757 9.52338 9.43602 9.49041 9.35654 9.57059L9.46998 9.68663ZM9.83654 9.60746L9.43457 9.19625C9.42717 9.18868 9.40984 9.19113 9.3999 9.20115C9.39245 9.20867 9.3924 9.22375 9.3998 9.23132L9.80177 9.64254C9.80917 9.65011 9.82402 9.65016 9.83395 9.64014C9.8414 9.63262 9.84146 9.61753 9.83406 9.60997L9.83654 9.60746ZM9.78942 9.63495L9.40965 9.24644C9.40225 9.23887 9.3874 9.23882 9.37746 9.24884C9.36753 9.25887 9.36748 9.27395 9.37488 9.28152L9.75712 9.67255C9.76698 9.68264 9.77937 9.68017 9.7893 9.67015C9.79924 9.66013 9.80175 9.64757 9.79189 9.63747L9.78942 9.63495ZM9.92939 9.24323L9.89979 9.21295L9.87992 9.233L9.85773 9.21029L9.8776 9.19025L9.84554 9.15745L9.82319 9.18L9.80099 9.1573L9.82583 9.13224L9.79623 9.10197L9.74656 9.15208C9.73663 9.1621 9.73659 9.17216 9.74399 9.17973L9.8525 9.29073C9.8599 9.2983 9.87226 9.30085 9.87971 9.29334L9.92939 9.24323ZM9.74889 9.19483L9.58254 9.34761L9.68858 9.45609L9.84262 9.28567L9.75137 9.19232" fill="#FFFF00"/>
<path d="M9.74889 9.19483L9.58254 9.34761L9.68858 9.45609L9.84262 9.28567L9.75137 9.19232M9.46998 9.68663C9.55194 9.60395 9.51757 9.52338 9.51757 9.52338C9.51757 9.52338 9.43602 9.49041 9.35654 9.57059L9.46998 9.68663ZM9.83654 9.60746L9.43457 9.19625C9.42717 9.18868 9.40984 9.19113 9.3999 9.20115C9.39245 9.20867 9.3924 9.22375 9.3998 9.23132L9.80177 9.64254C9.80917 9.65011 9.82402 9.65016 9.83395 9.64014C9.8414 9.63262 9.84146 9.61753 9.83406 9.60997L9.83654 9.60746ZM9.78942 9.63495L9.40965 9.24644C9.40225 9.23887 9.3874 9.23882 9.37746 9.24884C9.36753 9.25887 9.36748 9.27395 9.37488 9.28152L9.75712 9.67255C9.76698 9.68264 9.77937 9.68017 9.7893 9.67015C9.79924 9.66013 9.80175 9.64757 9.79189 9.63747L9.78942 9.63495ZM9.92939 9.24323L9.89979 9.21295L9.87992 9.233L9.85773 9.21029L9.8776 9.19025L9.84554 9.15745L9.82319 9.18L9.80099 9.1573L9.82583 9.13224L9.79623 9.10197L9.74656 9.15208C9.73663 9.1621 9.73659 9.17216 9.74399 9.17973L9.8525 9.29073C9.8599 9.2983 9.87226 9.30085 9.87971 9.29334L9.92939 9.24323Z" stroke="black" stroke-width="0.533335"/>
<path d="M9.80248 9.40153L9.71803 9.48672L9.81668 9.58763L9.90112 9.50244L9.80248 9.40153Z" fill="#FFFF00" stroke="black" stroke-width="0.533335"/>
<path d="M9.541 9.13395L9.45656 9.21914L9.5552 9.32005L9.63965 9.23486L9.541 9.13395Z" fill="#FFFF00" stroke="black" stroke-width="0.533335"/>
<path d="M9.98291 9.45459L9.95332 9.42432L9.92848 9.44937L9.90628 9.42667L9.93112 9.40161L9.90153 9.37134L9.87669 9.39639L9.8545 9.37369L9.87933 9.34863L9.84974 9.31836L9.80007 9.36847C9.79013 9.37849 9.79009 9.38855 9.79749 9.39612L9.90354 9.5046C9.90746 9.50861 9.9128 9.51088 9.91836 9.5109C9.92393 9.51092 9.92928 9.50869 9.93324 9.5047L9.98291 9.45459Z" fill="#FFFF00" stroke="black" stroke-width="0.533335"/>
<path d="M9.72168 9.1875L9.69209 9.15723L9.66725 9.18228L9.64505 9.15958L9.66989 9.13452L9.6403 9.10425L9.61546 9.1293L9.59327 9.1066L9.6181 9.08154L9.58851 9.05127L9.53883 9.10138C9.5289 9.1114 9.52886 9.12146 9.53626 9.12903L9.64231 9.23751C9.64623 9.24152 9.65156 9.24379 9.65713 9.24381C9.6627 9.24383 9.66805 9.2416 9.67201 9.23761L9.72168 9.1875Z" fill="#FFFF00" stroke="black" stroke-width="0.533335"/>
<path d="M9.75591 9.30327C9.77082 9.28823 9.74862 9.26553 9.73372 9.28056L9.69398 9.32065L9.71618 9.34335L9.75591 9.30327Z" fill="black"/>
<path d="M9.83184 9.49174C9.84674 9.47671 9.82701 9.45653 9.81211 9.47156L9.78231 9.50163L9.80204 9.52181L9.83184 9.49174Z" fill="black"/>
<path d="M9.57037 9.22465C9.58527 9.20962 9.56554 9.18944 9.55064 9.20447L9.52084 9.23454L9.54056 9.25472L9.57037 9.22465Z" fill="black"/>
<path d="M8.14112 8.08664C8.14049 8.16168 8.16802 8.23415 8.21812 8.28931C8.2415 8.31586 8.27007 8.33716 8.30201 8.35185C8.33395 8.36655 8.36856 8.37431 8.40362 8.37464C8.47713 8.37464 8.54362 8.33908 8.58912 8.28931C8.63922 8.23415 8.66676 8.16168 8.66613 8.08664V7.70264H8.14112V8.08664Z" fill="#003399"/>
<path d="M8.26368 7.90159C8.29268 7.90159 8.31618 7.87771 8.31618 7.84826C8.31618 7.8188 8.29268 7.79492 8.26368 7.79492C8.23469 7.79492 8.21118 7.8188 8.21118 7.84826C8.21118 7.87771 8.23469 7.90159 8.26368 7.90159Z" fill="white"/>
<path d="M8.55421 7.90159C8.5832 7.90159 8.60671 7.87771 8.60671 7.84826C8.60671 7.8188 8.5832 7.79492 8.55421 7.79492C8.52521 7.79492 8.50171 7.8188 8.50171 7.84826C8.50171 7.87771 8.52521 7.90159 8.55421 7.90159Z" fill="white"/>
<path d="M8.40724 8.04417C8.43623 8.04417 8.45974 8.02029 8.45974 7.99083C8.45974 7.96138 8.43623 7.9375 8.40724 7.9375C8.37824 7.9375 8.35474 7.96138 8.35474 7.99083C8.35474 8.02029 8.37824 8.04417 8.40724 8.04417Z" fill="white"/>
<path d="M8.26368 8.19309C8.29268 8.19309 8.31618 8.16921 8.31618 8.13976C8.31618 8.1103 8.29268 8.08643 8.26368 8.08643C8.23469 8.08643 8.21118 8.1103 8.21118 8.13976C8.21118 8.16921 8.23469 8.19309 8.26368 8.19309Z" fill="white"/>
<path d="M8.55421 8.19309C8.5832 8.19309 8.60671 8.16921 8.60671 8.13976C8.60671 8.1103 8.5832 8.08643 8.55421 8.08643C8.52521 8.08643 8.50171 8.1103 8.50171 8.13976C8.50171 8.16921 8.52521 8.19309 8.55421 8.19309Z" fill="white"/>
<path d="M8.14112 7.16232C8.14049 7.23737 8.16802 7.30984 8.21812 7.36499C8.2415 7.39154 8.27007 7.41284 8.30201 7.42754C8.33395 7.44223 8.36856 7.44999 8.40362 7.45032C8.47713 7.45032 8.54362 7.41477 8.58912 7.36499C8.63922 7.30984 8.66676 7.23737 8.66613 7.16232V6.77832H8.14112V7.16232Z" fill="#003399"/>
<path d="M8.26368 6.97727C8.29268 6.97727 8.31618 6.95339 8.31618 6.92394C8.31618 6.89448 8.29268 6.87061 8.26368 6.87061C8.23469 6.87061 8.21118 6.89448 8.21118 6.92394C8.21118 6.95339 8.23469 6.97727 8.26368 6.97727Z" fill="white"/>
<path d="M8.55421 6.97727C8.5832 6.97727 8.60671 6.95339 8.60671 6.92394C8.60671 6.89448 8.5832 6.87061 8.55421 6.87061C8.52521 6.87061 8.50171 6.89448 8.50171 6.92394C8.50171 6.95339 8.52521 6.97727 8.55421 6.97727Z" fill="white"/>
<path d="M8.40724 7.11985C8.43623 7.11985 8.45974 7.09597 8.45974 7.06652C8.45974 7.03706 8.43623 7.01318 8.40724 7.01318C8.37824 7.01318 8.35474 7.03706 8.35474 7.06652C8.35474 7.09597 8.37824 7.11985 8.40724 7.11985Z" fill="white"/>
<path d="M8.26368 7.26878C8.29268 7.26878 8.31618 7.2449 8.31618 7.21544C8.31618 7.18599 8.29268 7.16211 8.26368 7.16211C8.23469 7.16211 8.21118 7.18599 8.21118 7.21544C8.21118 7.2449 8.23469 7.26878 8.26368 7.26878Z" fill="white"/>
<path d="M8.55421 7.26878C8.5832 7.26878 8.60671 7.2449 8.60671 7.21544C8.60671 7.18599 8.5832 7.16211 8.55421 7.16211C8.52521 7.16211 8.50171 7.18599 8.50171 7.21544C8.50171 7.2449 8.52521 7.26878 8.55421 7.26878Z" fill="white"/>
<path d="M7.4131 8.08664C7.41246 8.16168 7.44 8.23415 7.4901 8.28931C7.51347 8.31586 7.54204 8.33716 7.57398 8.35185C7.60593 8.36655 7.64053 8.37431 7.6756 8.37464C7.7491 8.37464 7.8156 8.33908 7.8611 8.28931C7.9112 8.23415 7.93873 8.16168 7.9381 8.08664V7.70264H7.4131V8.08664Z" fill="#003399"/>
<path d="M7.53565 7.90159C7.56465 7.90159 7.58815 7.87771 7.58815 7.84826C7.58815 7.8188 7.56465 7.79492 7.53565 7.79492C7.50666 7.79492 7.48315 7.8188 7.48315 7.84826C7.48315 7.87771 7.50666 7.90159 7.53565 7.90159Z" fill="white"/>
<path d="M7.82618 7.90159C7.85518 7.90159 7.87868 7.87771 7.87868 7.84826C7.87868 7.8188 7.85518 7.79492 7.82618 7.79492C7.79719 7.79492 7.77368 7.8188 7.77368 7.84826C7.77368 7.87771 7.79719 7.90159 7.82618 7.90159Z" fill="white"/>
<path d="M7.67921 8.04417C7.7082 8.04417 7.73171 8.02029 7.73171 7.99083C7.73171 7.96138 7.7082 7.9375 7.67921 7.9375C7.65021 7.9375 7.62671 7.96138 7.62671 7.99083C7.62671 8.02029 7.65021 8.04417 7.67921 8.04417Z" fill="white"/>
<path d="M7.53565 8.19309C7.56465 8.19309 7.58815 8.16921 7.58815 8.13976C7.58815 8.1103 7.56465 8.08643 7.53565 8.08643C7.50666 8.08643 7.48315 8.1103 7.48315 8.13976C7.48315 8.16921 7.50666 8.19309 7.53565 8.19309Z" fill="white"/>
<path d="M7.82618 8.19309C7.85518 8.19309 7.87868 8.16921 7.87868 8.13976C7.87868 8.1103 7.85518 8.08643 7.82618 8.08643C7.79719 8.08643 7.77368 8.1103 7.77368 8.13976C7.77368 8.16921 7.79719 8.19309 7.82618 8.19309Z" fill="white"/>
<path d="M8.86915 8.08664C8.86852 8.16168 8.89605 8.23415 8.94615 8.28931C8.96953 8.31586 8.9981 8.33716 9.03004 8.35185C9.06198 8.36655 9.09659 8.37431 9.13165 8.37464C9.20515 8.37464 9.27165 8.33908 9.31715 8.28931C9.36725 8.23415 9.39479 8.16168 9.39415 8.08664V7.70264H8.86915V8.08664Z" fill="#003399"/>
<path d="M8.99171 7.90159C9.0207 7.90159 9.04421 7.87771 9.04421 7.84826C9.04421 7.8188 9.0207 7.79492 8.99171 7.79492C8.96271 7.79492 8.93921 7.8188 8.93921 7.84826C8.93921 7.87771 8.96271 7.90159 8.99171 7.90159Z" fill="white"/>
<path d="M9.28224 7.90159C9.31123 7.90159 9.33474 7.87771 9.33474 7.84826C9.33474 7.8188 9.31123 7.79492 9.28224 7.79492C9.25324 7.79492 9.22974 7.8188 9.22974 7.84826C9.22974 7.87771 9.25324 7.90159 9.28224 7.90159Z" fill="white"/>
<path d="M9.13526 8.04417C9.16426 8.04417 9.18776 8.02029 9.18776 7.99083C9.18776 7.96138 9.16426 7.9375 9.13526 7.9375C9.10627 7.9375 9.08276 7.96138 9.08276 7.99083C9.08276 8.02029 9.10627 8.04417 9.13526 8.04417Z" fill="white"/>
<path d="M8.99171 8.19309C9.0207 8.19309 9.04421 8.16921 9.04421 8.13976C9.04421 8.1103 9.0207 8.08643 8.99171 8.08643C8.96271 8.08643 8.93921 8.1103 8.93921 8.13976C8.93921 8.16921 8.96271 8.19309 8.99171 8.19309Z" fill="white"/>
<path d="M9.28224 8.19309C9.31123 8.19309 9.33474 8.16921 9.33474 8.13976C9.33474 8.1103 9.31123 8.08643 9.28224 8.08643C9.25324 8.08643 9.22974 8.1103 9.22974 8.13976C9.22974 8.16921 9.25324 8.19309 9.28224 8.19309Z" fill="white"/>
<path d="M8.14112 9.00412C8.14049 9.07916 8.16802 9.15163 8.21812 9.20679C8.2415 9.23334 8.27007 9.25464 8.30201 9.26933C8.33395 9.28403 8.36856 9.29179 8.40362 9.29212C8.47713 9.29212 8.54362 9.25656 8.58912 9.20679C8.63922 9.15163 8.66676 9.07916 8.66613 9.00412V8.62012H8.14112V9.00412Z" fill="#003399"/>
<path d="M8.26368 8.81907C8.29268 8.81907 8.31618 8.79519 8.31618 8.76574C8.31618 8.73628 8.29268 8.7124 8.26368 8.7124C8.23469 8.7124 8.21118 8.73628 8.21118 8.76574C8.21118 8.79519 8.23469 8.81907 8.26368 8.81907Z" fill="white"/>
<path d="M8.55421 8.81907C8.5832 8.81907 8.60671 8.79519 8.60671 8.76574C8.60671 8.73628 8.5832 8.7124 8.55421 8.7124C8.52521 8.7124 8.50171 8.73628 8.50171 8.76574C8.50171 8.79519 8.52521 8.81907 8.55421 8.81907Z" fill="white"/>
<path d="M8.40724 8.96165C8.43623 8.96165 8.45974 8.93777 8.45974 8.90831C8.45974 8.87886 8.43623 8.85498 8.40724 8.85498C8.37824 8.85498 8.35474 8.87886 8.35474 8.90831C8.35474 8.93777 8.37824 8.96165 8.40724 8.96165Z" fill="white"/>
<path d="M8.26368 9.11057C8.29268 9.11057 8.31618 9.0867 8.31618 9.05724C8.31618 9.02778 8.29268 9.00391 8.26368 9.00391C8.23469 9.00391 8.21118 9.02778 8.21118 9.05724C8.21118 9.0867 8.23469 9.11057 8.26368 9.11057Z" fill="white"/>
<path d="M8.55421 9.11057C8.5832 9.11057 8.60671 9.0867 8.60671 9.05724C8.60671 9.02778 8.5832 9.00391 8.55421 9.00391C8.52521 9.00391 8.50171 9.02778 8.50171 9.05724C8.50171 9.0867 8.52521 9.11057 8.55421 9.11057Z" fill="white"/>
</g>
<defs>
<clipPath id="clip0_220_747">
<rect width="21" height="16" rx="3" fill="white"/>
</clipPath>
</defs>
</svg>
