<svg width="30" height="30" viewBox="0 0 30 30" fill="none" xmlns="http://www.w3.org/2000/svg">
<path d="M20.4232 11.6515C20.5433 11.5396 20.6402 11.4051 20.7083 11.2557C20.7764 11.1063 20.8144 10.945 20.8201 10.7809C20.8259 10.6168 20.7992 10.4532 20.7418 10.2995C20.6843 10.1457 20.5971 10.0047 20.4851 9.88465C20.3732 9.76457 20.2387 9.66772 20.0893 9.59963C19.9399 9.53153 19.7786 9.49353 19.6145 9.48778C19.4504 9.48203 19.2868 9.50866 19.1331 9.56614C18.9793 9.62362 18.8383 9.71082 18.7182 9.82277L15.0607 13.2328L11.6507 9.57402C11.4226 9.34033 11.112 9.20522 10.7855 9.19761C10.459 9.18999 10.1424 9.31048 9.90362 9.53328C9.66481 9.75608 9.52269 10.0635 9.50767 10.3898C9.49264 10.716 9.60591 11.0352 9.82324 11.279L13.2332 14.9365L9.57449 18.3465C9.45017 18.4573 9.34925 18.5919 9.27766 18.7422C9.20606 18.8926 9.16523 19.0558 9.15757 19.2221C9.14991 19.3885 9.17557 19.5547 9.23305 19.711C9.29052 19.8673 9.37866 20.0106 9.49226 20.1323C9.60587 20.2541 9.74267 20.352 9.89462 20.4201C10.0466 20.4883 10.2106 20.5254 10.3771 20.5293C10.5436 20.5332 10.7092 20.5037 10.8642 20.4427C11.0191 20.3817 11.1603 20.2904 11.2795 20.174L14.937 16.7653L18.347 20.4228C18.4571 20.5494 18.5916 20.6525 18.7424 20.7261C18.8932 20.7996 19.0573 20.842 19.2248 20.8508C19.3924 20.8596 19.56 20.8345 19.7177 20.7772C19.8754 20.7198 20.0199 20.6312 20.1426 20.5168C20.2653 20.4024 20.3638 20.2644 20.4321 20.1112C20.5003 19.9579 20.5371 19.7925 20.54 19.6247C20.543 19.4569 20.5122 19.2903 20.4494 19.1347C20.3866 18.9791 20.2931 18.8377 20.1745 18.719L16.7657 15.0615L20.4232 11.6515Z" fill="#333333"/>
<path fill-rule="evenodd" clip-rule="evenodd" d="M1.25 15C1.25 7.40625 7.40625 1.25 15 1.25C22.5938 1.25 28.75 7.40625 28.75 15C28.75 22.5938 22.5938 28.75 15 28.75C7.40625 28.75 1.25 22.5938 1.25 15ZM15 26.25C13.5226 26.25 12.0597 25.959 10.6948 25.3936C9.3299 24.8283 8.08971 23.9996 7.04505 22.955C6.00039 21.9103 5.17172 20.6701 4.60636 19.3052C4.04099 17.9403 3.75 16.4774 3.75 15C3.75 13.5226 4.04099 12.0597 4.60636 10.6948C5.17172 9.3299 6.00039 8.08971 7.04505 7.04505C8.08971 6.00039 9.3299 5.17172 10.6948 4.60636C12.0597 4.04099 13.5226 3.75 15 3.75C17.9837 3.75 20.8452 4.93526 22.955 7.04505C25.0647 9.15483 26.25 12.0163 26.25 15C26.25 17.9837 25.0647 20.8452 22.955 22.955C20.8452 25.0647 17.9837 26.25 15 26.25Z" fill="#333333"/>
</svg>
