<svg width="11" height="11" viewBox="0 0 11 11" fill="none" xmlns="http://www.w3.org/2000/svg">
<path d="M11 5.5C11 6.95869 10.4205 8.35764 9.38909 9.38909C8.35764 10.4205 6.95869 11 5.5 11C4.04131 11 2.64236 10.4205 1.61091 9.38909C0.579463 8.35764 0 6.95869 0 5.5C0 4.04131 0.579463 2.64236 1.61091 1.61091C2.64236 0.579463 4.04131 0 5.5 0C6.95869 0 8.35764 0.579463 9.38909 1.61091C10.4205 2.64236 11 4.04131 11 5.5ZM3.37229 3.37229C3.29911 3.44527 3.24106 3.53198 3.20145 3.62743C3.16184 3.72289 3.14145 3.82522 3.14145 3.92857C3.14145 4.03192 3.16184 4.13425 3.20145 4.22971C3.24106 4.32517 3.29911 4.41187 3.37229 4.48486L4.389 5.5L3.37229 6.51514C3.22475 6.66268 3.14187 6.86278 3.14187 7.07143C3.14187 7.28008 3.22475 7.48018 3.37229 7.62771C3.51982 7.77525 3.71992 7.85813 3.92857 7.85813C4.13722 7.85813 4.33732 7.77525 4.48486 7.62771L5.5 6.611L6.51514 7.62771C6.66268 7.77525 6.86278 7.85813 7.07143 7.85813C7.28008 7.85813 7.48018 7.77525 7.62771 7.62771C7.77525 7.48018 7.85813 7.28008 7.85813 7.07143C7.85813 6.86278 7.77525 6.66268 7.62771 6.51514L6.611 5.5L7.62771 4.48486C7.77525 4.33732 7.85813 4.13722 7.85813 3.92857C7.85813 3.71992 7.77525 3.51982 7.62771 3.37229C7.48018 3.22475 7.28008 3.14187 7.07143 3.14187C6.86278 3.14187 6.66268 3.22475 6.51514 3.37229L5.5 4.389L4.48486 3.37229C4.41187 3.29911 4.32517 3.24106 4.22971 3.20145C4.13425 3.16184 4.03192 3.14145 3.92857 3.14145C3.82522 3.14145 3.72289 3.16184 3.62743 3.20145C3.53198 3.24106 3.44527 3.29911 3.37229 3.37229Z" fill="#F24545"/>
</svg>
