<svg width="143" height="22" viewBox="0 0 143 22" fill="none" xmlns="http://www.w3.org/2000/svg">
<g clip-path="url(#clip0_247_7227)">
<path d="M0 20.9312V0.860107H4.36612V16.943H14.2575V20.9573L0 20.9312Z" fill="black"/>
<path d="M24.2781 21.27C23.2303 21.3108 22.1853 21.1354 21.2066 20.7545C20.2279 20.3736 19.3361 19.7951 18.5854 19.0543C17.8387 18.3003 17.2541 17.3981 16.8684 16.4045C16.4828 15.4109 16.3044 14.3473 16.3444 13.2806C16.2925 11.1784 17.0552 9.13895 18.4695 7.59815C19.1491 6.84234 19.9819 6.24382 20.911 5.84346C21.8401 5.44309 22.8436 5.2503 23.8531 5.27825C24.8929 5.21091 25.9337 5.39437 26.8898 5.81355C27.8459 6.23273 28.69 6.87564 29.3526 7.68938C30.6487 9.38234 31.3226 11.4788 31.2587 13.6195C31.2587 13.8541 31.2587 14.232 31.1943 14.7664H20.6075C20.76 15.6447 21.2166 16.4394 21.8954 17.0081C22.5945 17.5415 23.4547 17.8132 24.3296 17.7771C25.7143 17.7605 27.0371 17.1941 28.0131 16.2L30.4731 18.4027C29.7349 19.3386 28.7896 20.0857 27.7134 20.5838C26.6373 21.0819 25.4605 21.3169 24.2781 21.27ZM20.6075 12.0425H27.0472C26.9622 11.157 26.6014 10.3218 26.0168 9.65739C25.7346 9.36492 25.3954 9.13509 25.0206 8.98251C24.6459 8.82993 24.2439 8.75795 23.8402 8.77114C23.4401 8.76266 23.0424 8.83559 22.6708 8.98559C22.2991 9.13559 21.9609 9.35961 21.6764 9.64436C21.0799 10.3101 20.7058 11.1493 20.6075 12.0425Z" fill="black"/>
<path d="M38.7668 21.2176C37.4065 21.2577 36.0785 20.7943 35.0318 19.9142C34.537 19.4858 34.146 18.948 33.8892 18.3424C33.6324 17.7367 33.5166 17.0795 33.5507 16.4214C33.5062 15.7189 33.6334 15.0161 33.9209 14.3751C34.2084 13.7341 34.6474 13.1746 35.1992 12.746C36.5216 11.8656 38.0876 11.4363 39.6684 11.5209C40.9304 11.5209 42.1838 11.7323 43.3776 12.1465V11.8858C43.3776 10.009 42.2958 9.08368 40.1191 9.08368C38.6872 9.1079 37.2705 9.3858 35.9333 9.90477L34.8515 6.58131C36.7116 5.76053 38.721 5.3432 40.7502 5.35619C41.679 5.27979 42.6135 5.39267 43.4984 5.68817C44.3833 5.98367 45.2006 6.45579 45.902 7.07657C46.4851 7.74093 46.9303 8.51704 47.2113 9.35884C47.4922 10.2006 47.6032 11.091 47.5377 11.977V20.8917H43.3519V19.2626C42.7762 19.9089 42.067 20.4191 41.2746 20.7569C40.4822 21.0948 39.626 21.2521 38.7668 21.2176ZM40.0548 18.2069C40.9327 18.2521 41.7985 17.9846 42.5018 17.451C42.7971 17.2237 43.0359 16.9298 43.1991 16.5927C43.3624 16.2555 43.4455 15.8845 43.442 15.509V14.7401C42.5763 14.3457 41.6351 14.1498 40.6858 14.1666C39.9161 14.1177 39.1505 14.3137 38.4963 14.727C38.2393 14.9055 38.0321 15.148 37.8945 15.431C37.7569 15.7141 37.6936 16.0282 37.7107 16.3432C37.7091 16.5977 37.7679 16.849 37.8822 17.0758C37.9965 17.3026 38.163 17.4983 38.3676 17.6465C38.8484 18.0398 39.4494 18.2517 40.0676 18.246L40.0548 18.2069Z" fill="black"/>
<path d="M57.4683 21.218C56.5512 21.2258 55.6427 21.0384 54.8018 20.6679C53.9608 20.2974 53.2063 19.7522 52.5871 19.0675C51.1713 17.4656 50.4397 15.3617 50.5521 13.2156C50.4945 12.1617 50.6435 11.1067 50.9906 10.1113C51.3376 9.11596 51.8758 8.19988 52.5742 7.41588C53.1919 6.72669 53.9483 6.17934 54.7924 5.81066C55.6366 5.44197 56.5491 5.2605 57.4683 5.27844C58.3776 5.26622 59.2774 5.46691 60.0974 5.86482C60.9173 6.26274 61.6352 6.84711 62.1951 7.57227V0H66.4968V20.9313H62.1951V18.7287C61.6717 19.5064 60.9661 20.1409 60.1413 20.5753C59.3164 21.0096 58.3981 21.2305 57.4683 21.218ZM55.9357 16.3306C56.2667 16.7041 56.6717 17.0029 57.1244 17.2074C57.5771 17.4119 58.0673 17.5176 58.5631 17.5176C59.0589 17.5176 59.5491 17.4119 60.0018 17.2074C60.4545 17.0029 60.8595 16.7041 61.1905 16.3306C61.9226 15.4667 62.3004 14.3523 62.2466 13.2156C62.2917 12.1 61.9139 11.009 61.1905 10.1659C60.8595 9.79235 60.4545 9.49359 60.0018 9.28906C59.5491 9.08453 59.0589 8.97882 58.5631 8.97882C58.0673 8.97882 57.5771 9.08453 57.1244 9.28906C56.6717 9.49359 56.2667 9.79235 55.9357 10.1659C55.1897 11.023 54.8018 12.1398 54.8538 13.2808C54.8118 14.4006 55.1995 15.4934 55.9357 16.3306Z" fill="black"/>
<path d="M75.6791 21.2184C73.3077 21.2271 71.0059 20.4077 69.1621 18.8985L71.0039 16.0312C72.3661 17.1457 74.045 17.7896 75.795 17.8689C77.0057 17.8689 77.611 17.4649 77.611 16.6568C77.6285 16.562 77.6285 16.4648 77.611 16.3701C77.5819 16.2714 77.5288 16.1818 77.4564 16.1094L77.2246 15.9009C77.1151 15.8247 76.9986 15.7593 76.8769 15.7054L76.5162 15.5229L75.9882 15.3535L75.5117 15.1971L74.9707 15.0407L74.4298 14.8843C73.8878 14.732 73.3546 14.5492 72.8327 14.3369C72.3413 14.1015 71.8715 13.8223 71.4289 13.5028C70.9527 13.171 70.5672 12.7226 70.3084 12.1995C70.0383 11.6032 69.9062 10.9524 69.922 10.2966C69.8947 9.6166 70.0249 8.93955 70.3022 8.31952C70.5795 7.69948 70.9962 7.15363 71.519 6.72552C72.6507 5.83628 74.0539 5.37526 75.4859 5.42221C77.4964 5.39625 79.4676 5.98694 81.1399 7.11652L79.5043 10.1272C78.282 9.2944 76.8655 8.80012 75.3957 8.69353C74.3396 8.69353 73.8116 9.05846 73.8116 9.80135C73.8116 10.3227 74.6745 10.8831 76.3875 11.4696L76.8769 11.639C77.3792 11.8085 77.8171 11.9779 78.1648 12.1343C78.6097 12.3083 79.0403 12.5175 79.4527 12.7599C79.8517 12.9883 80.216 13.2736 80.5346 13.607C80.8275 13.9429 81.0626 14.3262 81.2301 14.7409C81.4253 15.2201 81.5217 15.7346 81.5135 16.2528C81.5561 16.962 81.427 17.671 81.1375 18.3183C80.848 18.9656 80.4067 19.5316 79.852 19.9672C78.637 20.8419 77.1688 21.2821 75.6791 21.2184Z" fill="black"/>
<path d="M84.579 20.9313V0H88.8679V7.74171C89.3642 7.00276 90.0273 6.39397 90.8021 5.96564C91.577 5.53732 92.4415 5.30176 93.3242 5.27844C94.0382 5.23009 94.754 5.34037 95.4214 5.60153C96.0889 5.86269 96.6918 6.26843 97.188 6.79029C98.1221 7.97626 98.5818 9.47414 98.4759 10.987V20.9313H94.1871V12.3555C94.2401 11.5245 93.998 10.7018 93.5045 10.0355C93.2631 9.76263 92.9641 9.54825 92.6297 9.40836C92.2952 9.26846 91.9339 9.20664 91.5726 9.22749C91.2062 9.21249 90.8409 9.27682 90.501 9.41617C90.1612 9.55553 89.8547 9.76669 89.602 10.0355C89.0794 10.6888 88.8175 11.5165 88.8679 12.3555V20.9313H84.579Z" fill="black"/>
<path d="M107.273 21.2183C106.557 21.2677 105.84 21.1566 105.172 20.893C104.504 20.6294 103.902 20.2198 103.409 19.6934C102.473 18.5133 102.013 17.0188 102.121 15.5097V5.56543H106.423V14.1413C106.37 14.9722 106.612 15.7949 107.105 16.4612C107.347 16.7325 107.647 16.9449 107.981 17.0826C108.316 17.2203 108.677 17.2796 109.037 17.2562C109.4 17.271 109.763 17.2078 110.1 17.0708C110.437 16.9337 110.742 16.726 110.995 16.4612C111.522 15.8104 111.784 14.9809 111.729 14.1413V5.56543H116.031V20.9315H111.729V18.755C111.233 19.4939 110.57 20.1027 109.795 20.5311C109.02 20.9594 108.155 21.195 107.273 21.2183Z" fill="black"/>
<path d="M128.923 21.218C128.013 21.2273 127.112 21.0254 126.29 20.6278C125.469 20.2301 124.748 19.6474 124.184 18.9242V20.9313H119.882V0H124.184V7.81991C124.709 7.04112 125.417 6.40618 126.244 5.97179C127.071 5.5374 127.991 5.3171 128.923 5.33057C129.838 5.32298 130.745 5.51055 131.584 5.88107C132.423 6.25159 133.175 6.79675 133.792 7.48104C134.498 8.27128 135.043 9.19528 135.394 10.1997C135.745 11.2041 135.897 12.269 135.839 13.3329C135.894 14.3876 135.742 15.4428 135.393 16.438C135.044 17.4332 134.504 18.3489 133.804 19.1327C133.18 19.8062 132.423 20.3397 131.582 20.6989C130.741 21.0581 129.836 21.2349 128.923 21.218ZM125.201 16.3306C125.519 16.7066 125.914 17.0076 126.359 17.2125C126.804 17.4174 127.288 17.5212 127.777 17.5166C128.276 17.5245 128.77 17.4225 129.226 17.2177C129.682 17.0129 130.088 16.7102 130.417 16.3306C131.154 15.4687 131.536 14.3541 131.486 13.2156C131.528 12.0982 131.145 11.0071 130.417 10.1659C130.088 9.78624 129.682 9.48351 129.226 9.27871C128.77 9.07391 128.276 8.97194 127.777 8.97986C127.288 8.97528 126.804 9.07908 126.359 9.28398C125.914 9.48887 125.519 9.78989 125.201 10.1659C124.464 11.0277 124.082 12.1424 124.132 13.2808C124.091 14.3982 124.473 15.4894 125.201 16.3306Z" fill="black"/>
<path d="M139.78 22C141.559 22 143 20.5412 143 18.7417C143 16.9422 141.559 15.4834 139.78 15.4834C138.002 15.4834 136.561 16.9422 136.561 18.7417C136.561 20.5412 138.002 22 139.78 22Z" fill="#F7971D"/>
</g>
<defs>
<clipPath id="clip0_247_7227">
<rect width="143" height="22" fill="white"/>
</clipPath>
</defs>
</svg>
