<svg width="49" height="50" viewBox="0 0 49 50" fill="none" xmlns="http://www.w3.org/2000/svg">
<rect y="0.163086" width="49" height="49.0108" rx="8" fill="#333333"/>
<g filter="url(#filter0_d_112_3691)">
<path d="M13.9219 30.9201C15.0188 32.8215 16.597 34.4003 18.4978 35.4977C20.3985 36.5951 22.5547 37.1724 24.7494 37.1715C26.9441 37.1724 29.1003 36.5951 31.001 35.4977C32.9017 34.4003 34.48 32.8215 35.5769 30.9201M13.9219 18.4174C15.0188 16.5161 16.597 14.9373 18.4978 13.8399C20.3985 12.7424 22.5547 12.1651 24.7494 12.166C26.9441 12.1651 29.1003 12.7424 31.001 13.8399C32.9017 14.9373 34.48 16.5161 35.5769 18.4174" stroke="#F7971D" stroke-width="1.5" stroke-linecap="round" stroke-linejoin="round"/>
<path d="M26 37.109C26 37.109 27.76 34.7922 28.8687 30.9201M26 12.2285C26 12.2285 27.76 14.544 28.8687 18.4174M23.5 37.109C23.5 37.109 21.74 34.7935 20.6312 30.9201M23.5 12.2285C23.5 12.2285 21.74 14.544 20.6312 18.4174M21 22.1682L22.875 28.4196L24.75 22.1682L26.625 28.4196L28.5 22.1682M11 22.1682L12.875 28.4196L14.75 22.1682L16.625 28.4196L18.5 22.1682M31 22.1682L32.875 28.4196L34.75 22.1682L36.625 28.4196L38.5 22.1682" stroke="#F7971D" stroke-width="1.5" stroke-linecap="round" stroke-linejoin="round"/>
</g>
<defs>
<filter id="filter0_d_112_3691" x="3.25" y="6.41602" width="43" height="40.5054" filterUnits="userSpaceOnUse" color-interpolation-filters="sRGB">
<feFlood flood-opacity="0" result="BackgroundImageFix"/>
<feColorMatrix in="SourceAlpha" type="matrix" values="0 0 0 0 0 0 0 0 0 0 0 0 0 0 0 0 0 0 127 0" result="hardAlpha"/>
<feOffset dy="2"/>
<feGaussianBlur stdDeviation="3.5"/>
<feComposite in2="hardAlpha" operator="out"/>
<feColorMatrix type="matrix" values="0 0 0 0 1 0 0 0 0 0.559634 0 0 0 0 0 0 0 0 0.5 0"/>
<feBlend mode="normal" in2="BackgroundImageFix" result="effect1_dropShadow_112_3691"/>
<feBlend mode="normal" in="SourceGraphic" in2="effect1_dropShadow_112_3691" result="shape"/>
</filter>
</defs>
</svg>
