<svg width="130" height="128" viewBox="0 0 130 128" fill="none" xmlns="http://www.w3.org/2000/svg">
<path d="M46.0409 42.088C49.1067 32.7356 50.6396 28.0594 53.6468 25.0787C56.2921 22.4567 59.7069 20.7321 63.4018 20.1521C67.6024 19.4926 72.3202 21.012 81.7557 24.0508L86.6757 25.6353C96.1113 28.6741 100.829 30.1935 103.836 33.1742C106.482 35.7962 108.222 39.1809 108.807 42.8432C109.472 47.0068 107.939 51.683 104.873 61.0354L103.275 65.912C100.209 75.2644 98.6761 79.9406 95.6688 82.9213C93.0235 85.5433 89.6087 87.2679 85.9138 87.8479C81.7132 88.5074 76.9955 86.988 67.5599 83.9492L62.6399 82.3647C53.2043 79.3259 48.4866 77.8065 45.4793 74.8258C42.834 72.2038 41.0941 68.8191 40.5089 65.1568C39.8436 60.9932 41.3765 56.317 44.4423 46.9646L46.0409 42.088Z" fill="url(#paint0_linear_112_3746)"/>
<g filter="url(#filter0_b_112_3746)">
<rect x="20" y="40" width="68" height="68" rx="20" fill="#FF747C" fill-opacity="0.08"/>
<rect x="20.25" y="40.25" width="67.5" height="67.5" rx="19.75" stroke="url(#paint1_linear_112_3746)" stroke-width="0.5"/>
<rect x="20.25" y="40.25" width="67.5" height="67.5" rx="19.75" stroke="url(#paint2_linear_112_3746)" stroke-width="0.5"/>
</g>
<path d="M48.4818 89.7311L48.7465 90.5098C49.6628 93.2113 52.5631 94.6467 55.2253 93.7169C57.8876 92.787 59.3022 89.844 58.3858 87.1424L58.1211 86.3638M50.6742 57.7498L50.0092 55.7908C49.2753 53.6309 46.9555 52.4821 44.8248 53.2269C42.6963 53.9717 41.5643 56.3257 42.296 58.4856L42.961 60.4446M39.552 72.3887C37.7394 67.0488 40.5373 61.2281 45.7996 59.3887L49.6117 58.0571C54.874 56.2177 60.61 59.057 62.4226 64.3969L64.4466 70.3642C64.8314 71.4972 65.6432 72.427 66.7018 72.9507L68.5145 73.8467C69.5754 74.3725 70.3872 75.3024 70.7698 76.4331C71.526 78.6607 70.3583 81.0892 68.1631 81.8565L45.6216 89.7332C43.4264 90.5006 41.0333 89.3157 40.2771 87.0881C39.8923 85.9551 39.9679 84.7161 40.4839 83.6395L41.3669 81.8001C41.8851 80.7235 41.9585 79.4845 41.5737 78.3515L39.552 72.3887Z" stroke="white" stroke-width="4" stroke-linecap="round" stroke-linejoin="round"/>
<defs>
<filter id="filter0_b_112_3746" x="-4" y="16" width="116" height="116" filterUnits="userSpaceOnUse" color-interpolation-filters="sRGB">
<feFlood flood-opacity="0" result="BackgroundImageFix"/>
<feGaussianBlur in="BackgroundImageFix" stdDeviation="12"/>
<feComposite in2="SourceAlpha" operator="in" result="effect1_backgroundBlur_112_3746"/>
<feBlend mode="normal" in="SourceGraphic" in2="effect1_backgroundBlur_112_3746" result="shape"/>
</filter>
<linearGradient id="paint0_linear_112_3746" x1="89.2103" y1="45.2821" x2="-11.5955" y2="66.0477" gradientUnits="userSpaceOnUse">
<stop stop-color="#FF747C"/>
<stop offset="0.0666667" stop-color="#FF737C"/>
<stop offset="0.133333" stop-color="#FF717D"/>
<stop offset="0.2" stop-color="#FF6D7D"/>
<stop offset="0.266667" stop-color="#FF677E"/>
<stop offset="0.333333" stop-color="#FF5F7F"/>
<stop offset="0.4" stop-color="#FF5680"/>
<stop offset="0.466667" stop-color="#FF4C81"/>
<stop offset="0.533333" stop-color="#FF4183"/>
<stop offset="0.6" stop-color="#FF3784"/>
<stop offset="0.666667" stop-color="#FF2E85"/>
<stop offset="0.733333" stop-color="#FF2686"/>
<stop offset="0.8" stop-color="#FF2086"/>
<stop offset="0.866667" stop-color="#FF1C87"/>
<stop offset="0.933333" stop-color="#FF1A87"/>
<stop offset="1" stop-color="#FF1987"/>
</linearGradient>
<linearGradient id="paint1_linear_112_3746" x1="32" y1="101.5" x2="82.9207" y2="47.4253" gradientUnits="userSpaceOnUse">
<stop stop-color="#FF747C" stop-opacity="0.16"/>
<stop offset="1" stop-color="white" stop-opacity="0"/>
</linearGradient>
<linearGradient id="paint2_linear_112_3746" x1="32" y1="101.5" x2="82.9207" y2="47.4253" gradientUnits="userSpaceOnUse">
<stop stop-color="white" stop-opacity="0"/>
<stop offset="1" stop-color="white" stop-opacity="0.16"/>
</linearGradient>
</defs>
</svg>
