<svg width="131" height="129" viewBox="0 0 131 129" fill="none" xmlns="http://www.w3.org/2000/svg">
<path d="M47.0067 41.6506C50.0725 32.5713 51.6054 28.0316 54.6127 25.1379C57.2579 22.5925 60.6727 20.9183 64.3676 20.3551C68.5682 19.715 73.286 21.19 82.7216 24.14L87.6415 25.6783C97.0771 28.6283 101.795 30.1034 104.802 32.9971C107.447 35.5425 109.187 38.8284 109.773 42.3838C110.438 46.4257 108.905 50.9654 105.839 60.0447L104.241 64.779C101.175 73.8583 99.6419 78.398 96.6346 81.2917C93.9893 83.8371 90.5745 85.5113 86.8796 86.0744C82.6791 86.7146 77.9613 85.2396 68.5257 82.2896L63.6057 80.7513C54.1702 77.8013 49.4524 76.3262 46.4451 73.4325C43.7998 70.8871 42.0599 67.6012 41.4747 64.0458C40.8094 60.0038 42.3423 55.4642 45.4081 46.3848L47.0067 41.6506Z" fill="url(#paint0_linear_112_3735)"/>
<g filter="url(#filter0_b_112_3735)">
<rect x="20.9658" y="40.2031" width="68" height="68" rx="20" fill="#B2E7FE" fill-opacity="0.08"/>
<rect x="21.2158" y="40.4531" width="67.5" height="67.5" rx="19.75" stroke="url(#paint1_linear_112_3735)" stroke-width="0.5"/>
<rect x="21.2158" y="40.4531" width="67.5" height="67.5" rx="19.75" stroke="url(#paint2_linear_112_3735)" stroke-width="0.5"/>
</g>
<path d="M53.8187 57.9756C58.6163 57.9756 62.4811 61.8071 62.4811 66.5636V68.7436C59.6159 68.4133 56.684 68.2812 53.8187 68.2812C50.9534 68.2812 48.0215 68.4133 45.1562 68.7436V66.5636C45.1562 61.8732 49.021 57.9756 53.8187 57.9756Z" fill="white"/>
<path d="M69.5439 83.0788L70.4102 75.5479C72.3426 75.8782 73.8085 77.4636 73.8085 79.2473C73.8085 81.3612 71.8761 83.0788 69.5439 83.0788Z" fill="white"/>
<path d="M38.0263 83.0788C35.6941 83.0788 33.7617 81.3612 33.7617 79.2473C33.7617 77.3976 35.2277 75.8782 37.1601 75.5479L38.0263 83.0788Z" fill="white"/>
<path d="M66.5454 70.5932C62.1476 70.1308 57.9496 69.9326 53.885 69.9326C49.8203 69.9326 45.5557 70.1308 41.2245 70.5932C39.7585 70.7254 38.6924 72.0466 38.8923 73.4339L40.225 86.2498C40.3582 87.4389 41.2911 88.4298 42.5572 88.5619C46.2887 89.0243 50.0868 89.2225 53.9516 89.2225C57.8164 89.2225 61.6145 89.0243 65.346 88.5619C66.5454 88.4298 67.545 87.4389 67.6782 86.2498L69.0109 73.4339C69.0109 71.9805 68.0114 70.7254 66.5454 70.5932ZM46.4886 82.22C45.4224 82.22 44.6228 81.163 44.6228 79.7758C44.6228 78.3885 45.4891 77.3315 46.4886 77.3315C47.4881 77.3315 48.3543 78.3885 48.3543 79.7758C48.3543 81.163 47.5547 82.22 46.4886 82.22ZM57.6165 84.9285C57.6165 85.0607 57.5498 85.1928 57.4832 85.2588C57.4166 85.3249 57.2833 85.391 57.15 85.391H50.5533C50.42 85.391 50.2867 85.3249 50.2201 85.2588C50.1534 85.1928 50.0868 85.0607 50.0868 84.9285V83.7394C50.0868 83.4752 50.2867 83.277 50.5533 83.277H50.6865C50.9531 83.277 51.153 83.4752 51.153 83.7394V84.334H56.5503V83.7394C56.5503 83.4752 56.7502 83.277 57.0168 83.277H57.15C57.4166 83.277 57.6165 83.4752 57.6165 83.7394V84.9285ZM61.1481 82.22C60.0819 82.22 59.2823 81.163 59.2823 79.7758C59.2823 78.3885 60.1486 77.3315 61.1481 77.3315C62.1476 77.3315 63.0138 78.3885 63.0138 79.7758C63.0138 81.163 62.2142 82.22 61.1481 82.22Z" fill="white"/>
<defs>
<filter id="filter0_b_112_3735" x="-3.03418" y="16.2031" width="116" height="116" filterUnits="userSpaceOnUse" color-interpolation-filters="sRGB">
<feFlood flood-opacity="0" result="BackgroundImageFix"/>
<feGaussianBlur in="BackgroundImageFix" stdDeviation="12"/>
<feComposite in2="SourceAlpha" operator="in" result="effect1_backgroundBlur_112_3735"/>
<feBlend mode="normal" in="SourceGraphic" in2="effect1_backgroundBlur_112_3735" result="shape"/>
</filter>
<linearGradient id="paint0_linear_112_3735" x1="109.926" y1="20.2075" x2="10.2274" y2="78.0838" gradientUnits="userSpaceOnUse">
<stop stop-color="#39C2FD"/>
<stop offset="0.0666667" stop-color="#39C2FD"/>
<stop offset="0.133333" stop-color="#39C0FD"/>
<stop offset="0.2" stop-color="#3ABEFD"/>
<stop offset="0.266667" stop-color="#3BBBFD"/>
<stop offset="0.333333" stop-color="#3CB7FD"/>
<stop offset="0.4" stop-color="#3EB2FE"/>
<stop offset="0.466667" stop-color="#3FACFE"/>
<stop offset="0.533333" stop-color="#41A7FE"/>
<stop offset="0.6" stop-color="#42A1FE"/>
<stop offset="0.666667" stop-color="#449CFF"/>
<stop offset="0.733333" stop-color="#4598FF"/>
<stop offset="0.8" stop-color="#4695FF"/>
<stop offset="0.866667" stop-color="#4792FF"/>
<stop offset="0.933333" stop-color="#4791FF"/>
<stop offset="1" stop-color="#4791FF"/>
</linearGradient>
<linearGradient id="paint1_linear_112_3735" x1="32.9658" y1="101.703" x2="83.8865" y2="47.6284" gradientUnits="userSpaceOnUse">
<stop stop-color="#3AC1FD" stop-opacity="0.16"/>
<stop offset="1" stop-color="white" stop-opacity="0"/>
</linearGradient>
<linearGradient id="paint2_linear_112_3735" x1="32.9658" y1="101.703" x2="83.8865" y2="47.6284" gradientUnits="userSpaceOnUse">
<stop stop-color="white" stop-opacity="0"/>
<stop offset="1" stop-color="white" stop-opacity="0.16"/>
</linearGradient>
</defs>
</svg>
