<svg width="49" height="50" viewBox="0 0 49 50" fill="none" xmlns="http://www.w3.org/2000/svg">
<rect y="0.163086" width="49" height="49.0108" rx="8" fill="#333333"/>
<g filter="url(#filter0_d_112_3701)">
<path d="M24.4938 13.166C23.2906 13.166 22.4953 14.0115 22.0438 14.7711C21.5844 15.5415 21.3406 16.4433 21.3078 17.0247C21.2437 18.1812 21.4172 19.1939 21.9937 19.9253C22.5938 20.688 23.4938 20.9802 24.4938 20.9802C25.5078 20.9802 26.4047 20.6536 27.0016 19.8909C27.5781 19.1533 27.7641 18.1484 27.6891 17.0169C27.6531 16.4667 27.4063 15.5697 26.9484 14.7961C26.5 14.0381 25.7031 13.166 24.4938 13.166ZM13.5797 25.3531L18.5844 29.9478C18.7372 30.0881 18.9163 30.1965 19.1114 30.2667C19.3065 30.337 19.5137 30.3677 19.7208 30.3571C19.9279 30.3465 20.1308 30.2947 20.3177 30.2049C20.5046 30.115 20.6717 29.9889 20.8094 29.8337L22.1625 28.31C22.4557 27.9795 22.8156 27.7149 23.2186 27.5337C23.6215 27.3525 24.0582 27.2588 24.5 27.2588C24.9418 27.2588 25.3785 27.3525 25.7814 27.5337C26.1844 27.7149 26.5443 27.9795 26.8375 28.31L28.1891 29.8337C28.3267 29.9889 28.4939 30.115 28.6808 30.2049C28.8677 30.2947 29.0706 30.3465 29.2777 30.3571C29.4848 30.3677 29.6919 30.337 29.887 30.2667C30.0821 30.1965 30.2613 30.0881 30.4141 29.9478L35.4203 25.3531C35.3393 24.5852 34.9769 23.8744 34.403 23.3579C33.8292 22.8414 33.0845 22.5556 32.3125 22.5556H16.6875C15.9152 22.5552 15.1702 22.8408 14.596 23.3574C14.0218 23.874 13.6608 24.5849 13.5797 25.3531ZM35.4375 27.4582L31.4703 31.0997C31.1648 31.3799 30.8065 31.5965 30.4165 31.7369C30.0264 31.8773 29.6123 31.9386 29.1983 31.9174C28.7843 31.8962 28.3787 31.7928 28.005 31.6132C27.6314 31.4336 27.2972 31.1815 27.0219 30.8715L25.6687 29.3461C25.5221 29.1809 25.3422 29.0486 25.1407 28.958C24.9393 28.8674 24.7209 28.8206 24.5 28.8206C24.2791 28.8206 24.0607 28.8674 23.8593 28.958C23.6578 29.0486 23.4779 29.1809 23.3313 29.3461L21.9781 30.8715C21.7028 31.1817 21.3685 31.4341 20.9947 31.6138C20.6209 31.7935 20.2151 31.897 19.8009 31.9182C19.3867 31.9394 18.9725 31.878 18.5823 31.7375C18.192 31.5969 17.8337 31.3801 17.5281 31.0997L13.5625 27.4582V35.0583H12.7812C12.574 35.0583 12.3753 35.1407 12.2288 35.2872C12.0823 35.4338 12 35.6325 12 35.8398C12 36.047 12.0823 36.2458 12.2288 36.3923C12.3753 36.5389 12.574 36.6212 12.7812 36.6212H36.2188C36.426 36.6212 36.6247 36.5389 36.7712 36.3923C36.9177 36.2458 37 36.047 37 35.8398C37 35.6325 36.9177 35.4338 36.7712 35.2872C36.6247 35.1407 36.426 35.0583 36.2188 35.0583H35.4375V27.4582Z" fill="#F7971D"/>
</g>
<defs>
<filter id="filter0_d_112_3701" x="5" y="8.16602" width="39" height="37.4551" filterUnits="userSpaceOnUse" color-interpolation-filters="sRGB">
<feFlood flood-opacity="0" result="BackgroundImageFix"/>
<feColorMatrix in="SourceAlpha" type="matrix" values="0 0 0 0 0 0 0 0 0 0 0 0 0 0 0 0 0 0 127 0" result="hardAlpha"/>
<feOffset dy="2"/>
<feGaussianBlur stdDeviation="3.5"/>
<feComposite in2="hardAlpha" operator="out"/>
<feColorMatrix type="matrix" values="0 0 0 0 1 0 0 0 0 0.559634 0 0 0 0 0 0 0 0 0.5 0"/>
<feBlend mode="normal" in2="BackgroundImageFix" result="effect1_dropShadow_112_3701"/>
<feBlend mode="normal" in="SourceGraphic" in2="effect1_dropShadow_112_3701" result="shape"/>
</filter>
</defs>
</svg>
