<svg width="188" height="186" viewBox="0 0 188 186" fill="none" xmlns="http://www.w3.org/2000/svg">
<g clip-path="url(#clip0_112_4017)">
<path d="M160.121 70.7207C160.349 59.6795 149.411 52.0205 139.113 56.011L109.549 67.468C103.122 69.9586 98.6652 75.9691 98.0904 82.8265C96.943 96.5175 111.074 106.257 123.415 100.055C123.756 99.884 124.146 100.157 124.102 100.536C122.495 114.254 136.481 124.202 148.954 118.441C155.201 115.556 159.325 109.312 159.467 102.421L160.121 70.7207Z" fill="url(#paint0_linear_112_4017)"/>
<path d="M118.897 111.652C119.709 110.493 119.439 108.903 118.294 108.101C117.148 107.299 115.562 107.589 114.75 108.748L110.831 114.346C110.019 115.505 110.289 117.095 111.435 117.897C112.58 118.698 114.166 118.409 114.978 117.249L118.897 111.652Z" fill="url(#paint1_linear_112_4017)"/>
<path d="M106.08 107.891C107.225 108.693 107.496 110.283 106.684 111.442L102.764 117.039C101.953 118.199 100.366 118.488 99.2212 117.687C98.076 116.885 97.8058 115.295 98.6175 114.136L102.537 108.538C103.349 107.379 104.935 107.089 106.08 107.891Z" fill="url(#paint2_linear_112_4017)"/>
<path d="M123.272 123.057C124.083 121.898 123.813 120.308 122.668 119.506C121.523 118.704 119.937 118.994 119.125 120.153L115.205 125.751C114.394 126.91 114.664 128.5 115.809 129.302C116.954 130.103 118.541 129.814 119.352 128.654L123.272 123.057Z" fill="url(#paint3_linear_112_4017)"/>
</g>
<g clip-path="url(#clip1_112_4017)">
<g filter="url(#filter0_b_112_4017)">
<path d="M137.829 59.4193C138.092 41.846 120.537 29.5539 104.113 35.8112L56.9591 53.7767C46.7086 57.6821 39.6401 67.2088 38.7844 78.119C37.0761 99.9018 59.7548 115.536 79.4249 105.777C79.9681 105.507 80.5943 105.946 80.5268 106.548C78.0841 128.37 100.532 144.334 120.417 135.279C130.376 130.743 136.911 120.842 137.075 109.874L137.829 59.4193Z" fill="#29ACD6" fill-opacity="0.35"/>
<path d="M72.3092 124.195C73.5961 122.357 73.1494 119.824 71.3115 118.537C69.4736 117.25 66.9405 117.696 65.6536 119.534L59.4398 128.409C58.1529 130.246 58.5996 132.78 60.4375 134.066C62.2754 135.353 64.8085 134.907 66.0954 133.069L72.3092 124.195Z" fill="#29ACD6" fill-opacity="0.35"/>
<path d="M51.7866 118.09C53.6244 119.377 54.0711 121.91 52.7842 123.748L46.5705 132.622C45.2836 134.46 42.7504 134.907 40.9125 133.62C39.0746 132.333 38.6279 129.8 39.9149 127.962L46.1286 119.088C47.4155 117.25 49.9487 116.803 51.7866 118.09Z" fill="#29ACD6" fill-opacity="0.35"/>
<path d="M79.4066 142.389C80.6936 140.552 80.2469 138.018 78.409 136.731C76.5711 135.445 74.0379 135.891 72.751 137.729L66.5373 146.603C65.2504 148.441 65.697 150.974 67.5349 152.261C69.3728 153.548 71.906 153.101 73.1929 151.264L79.4066 142.389Z" fill="#29ACD6" fill-opacity="0.35"/>
<path d="M137.829 59.4193C138.092 41.846 120.537 29.5539 104.113 35.8112L56.9591 53.7767C46.7086 57.6821 39.6401 67.2088 38.7844 78.119C37.0761 99.9018 59.7548 115.536 79.4249 105.777C79.9681 105.507 80.5943 105.946 80.5268 106.548C78.0841 128.37 100.532 144.334 120.417 135.279C130.376 130.743 136.911 120.842 137.075 109.874L137.829 59.4193Z" stroke="url(#paint4_linear_112_4017)" stroke-linecap="round"/>
<path d="M72.3092 124.195C73.5961 122.357 73.1494 119.824 71.3115 118.537C69.4736 117.25 66.9405 117.696 65.6536 119.534L59.4398 128.409C58.1529 130.246 58.5996 132.78 60.4375 134.066C62.2754 135.353 64.8085 134.907 66.0954 133.069L72.3092 124.195Z" stroke="url(#paint5_linear_112_4017)" stroke-linecap="round"/>
<path d="M51.7866 118.09C53.6244 119.377 54.0711 121.91 52.7842 123.748L46.5705 132.622C45.2836 134.46 42.7504 134.907 40.9125 133.62C39.0746 132.333 38.6279 129.8 39.9149 127.962L46.1286 119.088C47.4155 117.25 49.9487 116.803 51.7866 118.09Z" stroke="url(#paint6_linear_112_4017)" stroke-linecap="round"/>
<path d="M79.4066 142.389C80.6936 140.552 80.2469 138.018 78.409 136.731C76.5711 135.445 74.0379 135.891 72.751 137.729L66.5373 146.603C65.2504 148.441 65.697 150.974 67.5349 152.261C69.3728 153.548 71.906 153.101 73.1929 151.264L79.4066 142.389Z" stroke="url(#paint7_linear_112_4017)" stroke-linecap="round"/>
</g>
</g>
<defs>
<filter id="filter0_b_112_4017" x="14.1934" y="9.65723" width="148.139" height="167.839" filterUnits="userSpaceOnUse" color-interpolation-filters="sRGB">
<feFlood flood-opacity="0" result="BackgroundImageFix"/>
<feGaussianBlur in="BackgroundImageFix" stdDeviation="12"/>
<feComposite in2="SourceAlpha" operator="in" result="effect1_backgroundBlur_112_4017"/>
<feBlend mode="normal" in="SourceGraphic" in2="effect1_backgroundBlur_112_4017" result="shape"/>
</filter>
<linearGradient id="paint0_linear_112_4017" x1="80.0714" y1="104.278" x2="182.329" y2="97.7999" gradientUnits="userSpaceOnUse">
<stop stop-color="#207894"/>
<stop offset="1" stop-color="#2ECDFF"/>
</linearGradient>
<linearGradient id="paint1_linear_112_4017" x1="80.0714" y1="104.278" x2="182.329" y2="97.7999" gradientUnits="userSpaceOnUse">
<stop stop-color="#207894"/>
<stop offset="1" stop-color="#2ECDFF"/>
</linearGradient>
<linearGradient id="paint2_linear_112_4017" x1="80.0714" y1="104.278" x2="182.329" y2="97.7999" gradientUnits="userSpaceOnUse">
<stop stop-color="#207894"/>
<stop offset="1" stop-color="#2ECDFF"/>
</linearGradient>
<linearGradient id="paint3_linear_112_4017" x1="80.0714" y1="104.278" x2="182.329" y2="97.7999" gradientUnits="userSpaceOnUse">
<stop stop-color="#207894"/>
<stop offset="1" stop-color="#2ECDFF"/>
</linearGradient>
<linearGradient id="paint4_linear_112_4017" x1="83.1831" y1="7.83789" x2="125.241" y2="166.638" gradientUnits="userSpaceOnUse">
<stop stop-color="white" stop-opacity="0.25"/>
<stop offset="1" stop-color="white" stop-opacity="0"/>
</linearGradient>
<linearGradient id="paint5_linear_112_4017" x1="83.1831" y1="7.83789" x2="125.241" y2="166.638" gradientUnits="userSpaceOnUse">
<stop stop-color="white" stop-opacity="0.25"/>
<stop offset="1" stop-color="white" stop-opacity="0"/>
</linearGradient>
<linearGradient id="paint6_linear_112_4017" x1="83.1831" y1="7.83789" x2="125.241" y2="166.638" gradientUnits="userSpaceOnUse">
<stop stop-color="white" stop-opacity="0.25"/>
<stop offset="1" stop-color="white" stop-opacity="0"/>
</linearGradient>
<linearGradient id="paint7_linear_112_4017" x1="83.1831" y1="7.83789" x2="125.241" y2="166.638" gradientUnits="userSpaceOnUse">
<stop stop-color="white" stop-opacity="0.25"/>
<stop offset="1" stop-color="white" stop-opacity="0"/>
</linearGradient>
<clipPath id="clip0_112_4017">
<rect width="81" height="82" fill="white" transform="translate(120.879 33.7998) rotate(35)"/>
</clipPath>
<clipPath id="clip1_112_4017">
<rect width="130" height="130" fill="white" transform="translate(74.7607 0.287109) rotate(35)"/>
</clipPath>
</defs>
</svg>
