<svg width="214" height="207" viewBox="0 0 214 207" fill="none" xmlns="http://www.w3.org/2000/svg">
<g clip-path="url(#clip0_112_4029)">
<path fill-rule="evenodd" clip-rule="evenodd" d="M52.3141 73.872C57.9443 70.6213 62.3577 68.0732 66.0782 66.431C69.8749 64.7552 73.2344 63.8878 76.7433 64.2566C78.8675 64.4799 80.9434 65.0361 82.8947 65.9049C86.1178 67.3399 88.5936 69.7708 91.0437 73.1205C93.4446 76.4029 95.9927 80.8164 99.2433 86.4466L99.4037 86.7244C102.654 92.3545 105.202 96.7678 106.844 100.488C108.52 104.285 109.388 107.644 109.019 111.153C108.796 113.278 108.239 115.353 107.371 117.305C105.936 120.528 103.505 123.004 100.155 125.454C96.8726 127.855 92.4591 130.403 86.8289 133.653L86.5511 133.814C80.921 137.064 76.5077 139.612 72.7872 141.254C68.9905 142.93 65.631 143.798 62.1222 143.429C59.9979 143.206 57.9221 142.649 55.9708 141.781C52.7476 140.346 50.2719 137.915 47.8218 134.565C45.4208 131.283 42.8728 126.869 39.6222 121.239L39.462 120.961C36.2113 115.331 33.6632 110.918 32.021 107.197C30.3451 103.401 29.4778 100.041 29.8466 96.5322C30.0698 94.408 30.6261 92.3321 31.4948 90.3808C32.9299 87.1576 35.3608 84.6819 38.7105 82.2318C41.9929 79.8309 46.4063 77.2828 52.0366 74.0322L52.3141 73.872ZM62.8821 87.1867C62.1489 85.9169 60.5251 85.4818 59.2553 86.2149C57.9854 86.9481 57.5503 88.5718 58.2835 89.8417L75.9834 120.499C76.7165 121.769 78.3403 122.204 79.6102 121.471C80.88 120.737 81.3151 119.114 80.582 117.844L62.8821 87.1867ZM82.2249 92.3696C81.4917 91.0997 79.8679 90.6647 78.5981 91.3978C77.3282 92.131 76.8931 93.7547 77.6263 95.0246L88.2462 113.419C88.9794 114.689 90.6031 115.124 91.873 114.391C93.1429 113.657 93.5779 112.034 92.8448 110.764L82.2249 92.3696ZM61.2392 112.661C60.506 111.391 58.8822 110.956 57.6124 111.689C56.3425 112.422 55.9074 114.046 56.6406 115.316L63.7205 127.579C64.4537 128.849 66.0775 129.284 67.3473 128.551C68.6172 127.817 69.0523 126.194 68.3191 124.924L61.2392 112.661Z" fill="url(#paint0_linear_112_4029)"/>
</g>
<g filter="url(#filter0_b_112_4029)">
<path fill-rule="evenodd" clip-rule="evenodd" d="M112.073 46.7285C122.475 46.7285 130.629 46.7284 137.098 47.4293C143.699 48.1445 149.048 49.6303 153.615 52.9484C156.38 54.9572 158.811 57.3886 160.82 60.1534C164.138 64.7204 165.624 70.0694 166.339 76.6709C167.04 83.1398 167.04 91.2939 167.04 101.696V102.209C167.04 112.611 167.04 120.764 166.339 127.233C165.624 133.835 164.138 139.184 160.82 143.751C158.811 146.516 156.38 148.947 153.615 150.956C149.048 154.274 143.699 155.76 137.098 156.475C130.629 157.176 122.475 157.176 112.073 157.176H111.56C101.158 157.176 93.0041 157.176 86.5352 156.475C79.9336 155.76 74.5847 154.274 70.0177 150.956C67.2529 148.947 64.8214 146.516 62.8127 143.751C59.4946 139.184 58.0088 133.835 57.2936 127.233C56.5927 120.764 56.5927 112.611 56.5928 102.208V101.696C56.5927 91.2938 56.5927 83.1399 57.2936 76.6709C58.0088 70.0694 59.4946 64.7204 62.8127 60.1534C64.8214 57.3886 67.2529 54.9572 70.0177 52.9484C74.5847 49.6303 79.9336 48.1445 86.5352 47.4293C93.0042 46.7284 101.158 46.7285 111.56 46.7285H112.073Z" fill="#29ACD6" fill-opacity="0.35"/>
<path fill-rule="evenodd" clip-rule="evenodd" d="M112.073 46.7285C122.475 46.7285 130.629 46.7284 137.098 47.4293C143.699 48.1445 149.048 49.6303 153.615 52.9484C156.38 54.9572 158.811 57.3886 160.82 60.1534C164.138 64.7204 165.624 70.0694 166.339 76.6709C167.04 83.1398 167.04 91.2939 167.04 101.696V102.209C167.04 112.611 167.04 120.764 166.339 127.233C165.624 133.835 164.138 139.184 160.82 143.751C158.811 146.516 156.38 148.947 153.615 150.956C149.048 154.274 143.699 155.76 137.098 156.475C130.629 157.176 122.475 157.176 112.073 157.176H111.56C101.158 157.176 93.0041 157.176 86.5352 156.475C79.9336 155.76 74.5847 154.274 70.0177 150.956C67.2529 148.947 64.8214 146.516 62.8127 143.751C59.4946 139.184 58.0088 133.835 57.2936 127.233C56.5927 120.764 56.5927 112.611 56.5928 102.208V101.696C56.5927 91.2938 56.5927 83.1399 57.2936 76.6709C58.0088 70.0694 59.4946 64.7204 62.8127 60.1534C64.8214 57.3886 67.2529 54.9572 70.0177 52.9484C74.5847 49.6303 79.9336 48.1445 86.5352 47.4293C93.0042 46.7284 101.158 46.7285 111.56 46.7285H112.073Z" stroke="url(#paint1_linear_112_4029)" stroke-linecap="round"/>
</g>
<g filter="url(#filter1_d_112_4029)">
<path fill-rule="evenodd" clip-rule="evenodd" d="M116.064 73.6322C116.064 71.2862 114.163 69.3843 111.816 69.3843C109.47 69.3843 107.568 71.2862 107.568 73.6322V130.272C107.568 132.618 109.47 134.52 111.816 134.52C114.163 134.52 116.064 132.618 116.064 130.272V73.6322ZM138.72 96.2881C138.72 93.942 136.818 92.0401 134.472 92.0401C132.126 92.0401 130.224 93.942 130.224 96.2881V130.272C130.224 132.618 132.126 134.52 134.472 134.52C136.818 134.52 138.72 132.618 138.72 130.272V96.2881ZM93.4085 107.616C93.4085 105.27 91.5067 103.368 89.1606 103.368C86.8145 103.368 84.9126 105.27 84.9126 107.616V130.272C84.9126 132.618 86.8145 134.52 89.1606 134.52C91.5067 134.52 93.4085 132.618 93.4085 130.272V107.616Z" fill="url(#paint2_linear_112_4029)"/>
</g>
<defs>
<filter id="filter0_b_112_4029" x="32.0928" y="22.2285" width="159.447" height="159.447" filterUnits="userSpaceOnUse" color-interpolation-filters="sRGB">
<feFlood flood-opacity="0" result="BackgroundImageFix"/>
<feGaussianBlur in="BackgroundImageFix" stdDeviation="12"/>
<feComposite in2="SourceAlpha" operator="in" result="effect1_backgroundBlur_112_4029"/>
<feBlend mode="normal" in="SourceGraphic" in2="effect1_backgroundBlur_112_4029" result="shape"/>
</filter>
<filter id="filter1_d_112_4029" x="81.9126" y="66.3843" width="69.8076" height="81.1357" filterUnits="userSpaceOnUse" color-interpolation-filters="sRGB">
<feFlood flood-opacity="0" result="BackgroundImageFix"/>
<feColorMatrix in="SourceAlpha" type="matrix" values="0 0 0 0 0 0 0 0 0 0 0 0 0 0 0 0 0 0 127 0" result="hardAlpha"/>
<feOffset dx="5" dy="5"/>
<feGaussianBlur stdDeviation="4"/>
<feColorMatrix type="matrix" values="0 0 0 0 0.176471 0 0 0 0 0.556863 0 0 0 0 0.678431 0 0 0 0.5 0"/>
<feBlend mode="normal" in2="BackgroundImageFix" result="effect1_dropShadow_112_4029"/>
<feBlend mode="normal" in="SourceGraphic" in2="effect1_dropShadow_112_4029" result="shape"/>
</filter>
<linearGradient id="paint0_linear_112_4029" x1="56.7994" y1="150.991" x2="84.1081" y2="57.2898" gradientUnits="userSpaceOnUse">
<stop stop-color="#207894"/>
<stop offset="1" stop-color="#2ECDFF"/>
</linearGradient>
<linearGradient id="paint1_linear_112_4029" x1="56.5928" y1="46.7285" x2="167.096" y2="157.12" gradientUnits="userSpaceOnUse">
<stop stop-color="white" stop-opacity="0.25"/>
<stop offset="1" stop-color="white" stop-opacity="0"/>
</linearGradient>
<linearGradient id="paint2_linear_112_4029" x1="112.27" y1="148.397" x2="200.22" y2="77.1772" gradientUnits="userSpaceOnUse">
<stop stop-color="white"/>
<stop offset="1" stop-color="white" stop-opacity="0.2"/>
</linearGradient>
<clipPath id="clip0_112_4029">
<rect width="84.9594" height="84.9594" fill="white" transform="translate(11.4043 88.2939) rotate(-30)"/>
</clipPath>
</defs>
</svg>
