<svg width="36" height="38" viewBox="0 0 36 38" fill="none" xmlns="http://www.w3.org/2000/svg">
<g filter="url(#filter0_d_112_3663)">
<path d="M27.8133 9.61437C27.7235 9.51172 27.6134 9.42872 27.49 9.37058C27.3665 9.31243 27.2325 9.28039 27.0961 9.27645C24.9776 9.22106 22.297 6.95533 20.5247 6.06621C19.43 5.5187 18.7072 5.1577 18.1644 5.0626C18.0542 5.04654 17.9422 5.04685 17.8321 5.06352C17.2893 5.15862 16.5666 5.51962 15.4727 6.06713C13.7004 6.95533 11.0198 9.22106 8.90134 9.27645C8.76488 9.28059 8.63072 9.31272 8.50719 9.37085C8.38366 9.42898 8.27337 9.51186 8.18318 9.61437C7.99623 9.82593 7.89978 10.1024 7.91457 10.3844C8.36964 19.6384 11.6881 25.3655 17.5109 28.694C17.6623 28.7798 17.8303 28.8241 17.9973 28.8241C18.1644 28.8241 18.3324 28.7798 18.4847 28.694C24.3075 25.3655 27.625 19.6384 28.081 10.3844C28.0967 10.1025 28.0005 9.82576 27.8133 9.61437ZM23.1832 13.2539L18.2696 20.5063C18.0933 20.7667 17.8164 20.9393 17.5423 20.9393C17.2672 20.9393 16.9616 20.7888 16.7687 20.5959L13.3053 17.1308C13.1923 17.0173 13.1288 16.8636 13.1288 16.7033C13.1288 16.5431 13.1923 16.3894 13.3053 16.2758L14.161 15.4181C14.2748 15.3055 14.4284 15.2423 14.5884 15.2423C14.7485 15.2423 14.9021 15.3055 15.0158 15.4181L17.2681 17.6709L21.181 11.894C21.2716 11.7618 21.4107 11.6708 21.5681 11.6408C21.7255 11.6109 21.8883 11.6445 22.021 11.7342L23.0226 12.4138C23.1549 12.5042 23.246 12.6433 23.2761 12.8007C23.3062 12.9581 23.2728 13.1211 23.1832 13.2539Z" fill="#F7971D"/>
</g>
<defs>
<filter id="filter0_d_112_3663" x="0.913086" y="0.0507812" width="34.1694" height="37.7734" filterUnits="userSpaceOnUse" color-interpolation-filters="sRGB">
<feFlood flood-opacity="0" result="BackgroundImageFix"/>
<feColorMatrix in="SourceAlpha" type="matrix" values="0 0 0 0 0 0 0 0 0 0 0 0 0 0 0 0 0 0 127 0" result="hardAlpha"/>
<feOffset dy="2"/>
<feGaussianBlur stdDeviation="3.5"/>
<feComposite in2="hardAlpha" operator="out"/>
<feColorMatrix type="matrix" values="0 0 0 0 1 0 0 0 0 0.559634 0 0 0 0 0 0 0 0 0.5 0"/>
<feBlend mode="normal" in2="BackgroundImageFix" result="effect1_dropShadow_112_3663"/>
<feBlend mode="normal" in="SourceGraphic" in2="effect1_dropShadow_112_3663" result="shape"/>
</filter>
</defs>
</svg>
