<svg width="11" height="13" viewBox="0 0 11 13" fill="none" xmlns="http://www.w3.org/2000/svg">
<path d="M10.0764 5.78435L8.13849 7.5813L8.71899 10.2566C8.74971 10.3965 8.74095 10.5429 8.69379 10.6775C8.64664 10.8121 8.56319 10.9289 8.45388 11.0134C8.34457 11.0979 8.21424 11.1462 8.0792 11.1524C7.94416 11.1586 7.81039 11.1224 7.69462 11.0483L5.49849 9.633L3.30708 11.0483C3.19131 11.1224 3.05754 11.1586 2.9225 11.1524C2.78746 11.1462 2.65713 11.0979 2.54782 11.0134C2.43851 10.9289 2.35506 10.8121 2.3079 10.6775C2.26075 10.5429 2.25199 10.3965 2.2827 10.2566L2.86235 7.58404L0.924033 5.78435C0.821513 5.6904 0.747381 5.56639 0.710932 5.42785C0.674483 5.28932 0.677341 5.14244 0.719146 5.00563C0.760951 4.86881 0.839843 4.74816 0.945929 4.65879C1.05201 4.56943 1.18057 4.51533 1.31548 4.50329L3.8704 4.26817L4.8677 1.74075C4.91979 1.60813 5.00763 1.49485 5.12018 1.41517C5.23273 1.33549 5.36496 1.29297 5.50021 1.29297C5.63545 1.29297 5.76768 1.33549 5.88023 1.41517C5.99278 1.49485 6.08062 1.60813 6.13271 1.74075L7.13302 4.26817L9.68708 4.50329C9.82199 4.51533 9.95054 4.56943 10.0566 4.65879C10.1627 4.74816 10.2416 4.86881 10.2834 5.00563C10.3252 5.14244 10.3281 5.28932 10.2916 5.42785C10.2552 5.56639 10.181 5.6904 10.0785 5.78435H10.0764Z" fill="#FFCD3E"/>
</svg>
