<svg width="49" height="50" viewBox="0 0 49 50" fill="none" xmlns="http://www.w3.org/2000/svg">
<rect width="49" height="49.0108" rx="8" fill="#333333"/>
<g clip-path="url(#clip0_379_353)" filter="url(#filter0_d_379_353)">
<g filter="url(#filter1_d_379_353)">
<path d="M17.1999 18.1999V15.6499C17.1999 15.0651 17.3104 14.516 17.5314 14.0026C17.7524 13.4807 18.0584 13.0285 18.4477 12.6477C18.8285 12.2584 19.2807 11.9524 19.8026 11.7314C20.316 11.5104 20.8651 11.3999 21.4499 11.3999C21.9276 11.3999 22.3832 11.4747 22.8184 11.626C23.2536 11.7773 23.6514 11.9898 24.0135 12.2635C24.7403 11.7033 25.6323 11.3996 26.5499 11.3999C27.3876 11.3962 28.2074 11.6417 28.9052 12.1051C29.6029 12.5686 30.1471 13.2291 30.4684 14.0026C30.6894 14.516 30.7999 15.0651 30.7999 15.6499V18.1999H32.4999C32.9508 18.1999 33.3832 18.3791 33.702 18.6979C34.0208 19.0167 34.1999 19.4491 34.1999 19.8999V24.3046C33.4309 23.6559 32.4572 23.3 31.451 23.2999H27.3999V18.1999H29.0999V15.6499C29.0999 15.2963 29.0336 14.9631 28.901 14.6537C28.7086 14.1899 28.382 13.7942 27.9631 13.5174C27.5441 13.2405 27.0521 13.0952 26.5499 13.0999C26.028 13.0999 25.5588 13.2461 25.1423 13.5385C25.5087 14.1819 25.7009 14.9096 25.6999 15.6499V23.3883C24.7389 23.5884 23.8761 24.1135 23.2568 24.8752C22.6376 25.6369 22.2997 26.5887 22.2999 27.5703V32.4646C22.2999 33.5815 22.7385 34.6559 23.5205 35.4532L26.6009 38.5999H18.8999C17.5508 38.5997 16.2567 38.0648 15.301 37.1124C14.8346 36.647 14.4608 36.0973 14.1994 35.4923C13.9309 34.8627 13.7949 34.1845 13.7999 33.4999V19.8999C13.7999 19.4491 13.979 19.0167 14.2979 18.6979C14.6167 18.3791 15.0491 18.1999 15.4999 18.1999H17.1999ZM23.9999 18.1999V15.6499C23.9999 15.2963 23.9336 14.9631 23.801 14.6537C23.6086 14.1899 23.282 13.7942 22.8631 13.5174C22.4441 13.2405 21.9521 13.0952 21.4499 13.0999C21.0963 13.0999 20.7631 13.1662 20.4537 13.2988C19.9899 13.4913 19.5942 13.8179 19.3174 14.2368C19.0405 14.6557 18.8951 15.1478 18.8999 15.6499V18.1999H23.9999ZM24.7343 34.2649C24.263 33.7836 23.9993 33.1366 23.9999 32.4629V27.5703C23.9995 27.233 24.0656 26.8988 24.1944 26.587C24.3232 26.2751 24.5122 25.9917 24.7506 25.753C24.989 25.5143 25.2721 25.3249 25.5838 25.1957C25.8955 25.0665 26.2296 24.9999 26.5669 24.9999H31.451C32.1361 24.9999 32.7923 25.2736 33.2734 25.7598L38.5553 31.0978C38.7951 31.3399 38.9844 31.6272 39.1121 31.943C39.2399 32.2589 39.3037 32.5969 39.2997 32.9376C39.2958 33.2783 39.2242 33.6148 39.0891 33.9276C38.954 34.2404 38.7581 34.5232 38.5128 34.7596L33.5029 39.5825C33.0159 40.0519 32.363 40.3097 31.6867 40.2999C31.0103 40.29 30.3653 40.0132 29.8921 39.5298L24.7343 34.2649ZM27.3999 29.6749C27.3999 30.0131 27.5343 30.3374 27.7734 30.5765C28.0125 30.8156 28.3368 30.9499 28.6749 30.9499C29.0131 30.9499 29.3374 30.8156 29.5765 30.5765C29.8156 30.3374 29.9499 30.0131 29.9499 29.6749C29.9499 29.3368 29.8156 29.0125 29.5765 28.7734C29.3374 28.5343 29.0131 28.3999 28.6749 28.3999C28.3368 28.3999 28.0125 28.5343 27.7734 28.7734C27.5343 29.0125 27.3999 29.3368 27.3999 29.6749Z" fill="#F7971D"/>
</g>
</g>
<defs>
<filter id="filter0_d_379_353" x="0" y="3" width="48" height="48" filterUnits="userSpaceOnUse" color-interpolation-filters="sRGB">
<feFlood flood-opacity="0" result="BackgroundImageFix"/>
<feColorMatrix in="SourceAlpha" type="matrix" values="0 0 0 0 0 0 0 0 0 0 0 0 0 0 0 0 0 0 127 0" result="hardAlpha"/>
<feOffset dy="2"/>
<feGaussianBlur stdDeviation="3.5"/>
<feComposite in2="hardAlpha" operator="out"/>
<feColorMatrix type="matrix" values="0 0 0 0 1 0 0 0 0 0.559634 0 0 0 0 0 0 0 0 0.5 0"/>
<feBlend mode="normal" in2="BackgroundImageFix" result="effect1_dropShadow_379_353"/>
<feBlend mode="normal" in="SourceGraphic" in2="effect1_dropShadow_379_353" result="shape"/>
</filter>
<filter id="filter1_d_379_353" x="6.7998" y="6.3999" width="39.5001" height="42.9004" filterUnits="userSpaceOnUse" color-interpolation-filters="sRGB">
<feFlood flood-opacity="0" result="BackgroundImageFix"/>
<feColorMatrix in="SourceAlpha" type="matrix" values="0 0 0 0 0 0 0 0 0 0 0 0 0 0 0 0 0 0 127 0" result="hardAlpha"/>
<feOffset dy="2"/>
<feGaussianBlur stdDeviation="3.5"/>
<feComposite in2="hardAlpha" operator="out"/>
<feColorMatrix type="matrix" values="0 0 0 0 1 0 0 0 0 0.559634 0 0 0 0 0 0 0 0 0.5 0"/>
<feBlend mode="normal" in2="BackgroundImageFix" result="effect1_dropShadow_379_353"/>
<feBlend mode="normal" in="SourceGraphic" in2="effect1_dropShadow_379_353" result="shape"/>
</filter>
<clipPath id="clip0_379_353">
<rect width="34" height="34" fill="white" transform="translate(7 8)"/>
</clipPath>
</defs>
</svg>
