<svg width="14" height="14" viewBox="0 0 14 14" fill="none" xmlns="http://www.w3.org/2000/svg">
<path fill-rule="evenodd" clip-rule="evenodd" d="M11.5339 2.58415C11.678 2.52347 11.8358 2.50255 11.9907 2.52355C12.1457 2.54455 12.2922 2.6067 12.4149 2.70355C12.5377 2.80039 12.6323 2.92838 12.6889 3.07419C12.7454 3.22001 12.7619 3.37832 12.7365 3.53265L11.4138 11.5576C11.2855 12.3316 10.4363 12.7756 9.72655 12.39C9.13285 12.0674 8.25104 11.5704 7.45788 11.0518C7.06131 10.7922 5.84649 9.96098 5.99579 9.36948C6.1241 8.86373 8.16531 6.96323 9.33172 5.83331C9.78954 5.3894 9.58075 5.13331 9.04012 5.54165C7.697 6.55548 5.54206 8.09723 4.82938 8.53123C4.20069 8.9139 3.87292 8.97923 3.48101 8.9139C2.766 8.7949 2.1029 8.61056 1.56168 8.38598C0.830345 8.08265 0.86592 7.07698 1.5611 6.78415L11.5339 2.58415Z" fill="#2EAAE8"/>
</svg>
