<svg width="20" height="21" viewBox="0 0 20 21" fill="currentColor" xmlns="http://www.w3.org/2000/svg">
<g clip-path="url(#clip0_112_3886)">
<path fill-rule="evenodd" clip-rule="evenodd" d="M16.4809 3.70338C16.6868 3.61668 16.9122 3.58678 17.1336 3.61679C17.355 3.64679 17.5643 3.73561 17.7398 3.87399C17.9152 4.01236 18.0504 4.19525 18.1312 4.4036C18.212 4.61195 18.2355 4.83816 18.1992 5.05868L16.3092 16.5254C16.1259 17.6314 14.9125 18.2658 13.8984 17.7148C13.05 17.2539 11.79 16.5437 10.6567 15.8027C10.09 15.4318 8.3542 14.244 8.56754 13.3988C8.75087 12.6762 11.6675 9.96059 13.3342 8.34607C13.9884 7.71176 13.69 7.34585 12.9175 7.92931C10.9984 9.37796 7.9192 11.5809 6.90087 12.2011C6.00254 12.7479 5.5342 12.8412 4.9742 12.7479C3.95254 12.5778 3.00504 12.3144 2.2317 11.9935C1.1867 11.5601 1.23754 10.1231 2.23087 9.7047L16.4809 3.70338Z" fill="currentColor"/>
</g>
<defs>
<clipPath id="clip0_112_3886">
<rect width="20" height="20.0044" fill="white" transform="translate(0 0.0107422)"/>
</clipPath>
</defs>
</svg>
