<svg width="19" height="19" viewBox="0 0 19 19" fill="none" xmlns="http://www.w3.org/2000/svg">
<g clip-path="url(#clip0_112_3871)">
<path d="M18.7071 3.69423C18.3413 3.06564 17.6684 2.63867 16.8889 2.63867H9.5V3.69423H18.7071ZM0 13.1942H19V14.2498H0V13.1942ZM9.5 8.97201H19V10.0276H9.5V8.97201ZM9.5 6.86089H19V7.91645H9.5V6.86089ZM0 11.0831H19V12.1387H0V11.0831ZM2.11111 16.3609H16.8889C17.6684 16.3609 18.3413 15.9339 18.7071 15.3053H0.292917C0.658667 15.9339 1.33158 16.3609 2.11111 16.3609ZM9.5 4.74978H19V5.80534H9.5V4.74978Z" fill="#B22334"/>
<path d="M0.0358889 14.6083C0.0448611 14.6573 0.0548889 14.7064 0.0670278 14.7544C0.08075 14.8078 0.0976389 14.8589 0.115583 14.9107C0.162556 15.0474 0.219556 15.1793 0.291333 15.3028L0.292917 15.3054H18.7071L18.7081 15.3033C18.779 15.1789 18.8377 15.0479 18.8834 14.9123C18.9181 14.8132 18.9449 14.7116 18.9636 14.6083C18.9852 14.4921 19 14.3729 19 14.2499H0C0 14.3729 0.0147778 14.4916 0.0358889 14.6083ZM0 12.1388H19V13.1943H0V12.1388ZM0 10.0277V11.0832H19V10.0277H9.5H0ZM9.5 7.91656H19V8.97211H9.5V7.91656ZM9.5 5.80545H19V6.861H9.5V5.80545ZM0.0675556 4.24534C0.08075 4.1915 0.0992222 4.14031 0.116111 4.08859C0.097783 4.14015 0.0815841 4.19244 0.0675556 4.24534ZM9.5 4.74989H19C19 4.62692 18.9852 4.50764 18.9636 4.391C18.9451 4.28761 18.9181 4.18593 18.8828 4.087C18.8371 3.95074 18.7782 3.81923 18.7071 3.69434H9.5V4.74989Z" fill="#EEEEEE"/>
<path d="M9.5 2.63867H2.11111C1.55121 2.63867 1.01424 2.86109 0.61833 3.257C0.22242 3.65291 0 4.18988 0 4.74978L0 10.0276H9.5V2.63867Z" fill="#3C3B6E"/>
<path d="M1.05566 4.0775L1.38183 4.31447L1.25728 4.69711L1.58291 4.46067L1.90908 4.69711L1.78453 4.31447L2.11069 4.0775H1.70747L1.58291 3.69434L1.45889 4.0775H1.05566ZM2.11122 5.13306L2.43739 5.37003L2.31283 5.75267L2.63847 5.51622L2.96464 5.75267L2.84008 5.37003L3.16625 5.13306H2.76303L2.63847 4.74989L2.51444 5.13306H2.11122ZM4.22233 5.13306L4.5485 5.37003L4.42394 5.75267L4.74958 5.51622L5.07575 5.75267L4.95119 5.37003L5.27736 5.13306H4.87414L4.74958 4.74989L4.62555 5.13306H4.22233ZM6.33344 5.13306L6.65961 5.37003L6.53505 5.75267L6.86069 5.51622L7.18686 5.75267L7.0623 5.37003L7.38847 5.13306H6.98525L6.86069 4.74989L6.73666 5.13306H6.33344ZM2.11122 7.24417L2.43739 7.48114L2.31283 7.86378L2.63847 7.62734L2.96464 7.86378L2.84008 7.48114L3.16625 7.24417H2.76303L2.63847 6.861L2.51444 7.24417H2.11122ZM4.22233 7.24417L4.5485 7.48114L4.42394 7.86378L4.74958 7.62734L5.07575 7.86378L4.95119 7.48114L5.27736 7.24417H4.87414L4.74958 6.861L4.62555 7.24417H4.22233ZM6.33344 7.24417L6.65961 7.48114L6.53505 7.86378L6.86069 7.62734L7.18686 7.86378L7.0623 7.48114L7.38847 7.24417H6.98525L6.86069 6.861L6.73666 7.24417H6.33344ZM3.16678 4.0775L3.49294 4.31447L3.36839 4.69711L3.69403 4.46067L4.02019 4.69711L3.89564 4.31447L4.2218 4.0775H3.81858L3.69403 3.69434L3.57 4.0775H3.16678ZM5.27789 4.0775L5.60405 4.31447L5.4795 4.69711L5.80514 4.46067L6.1313 4.69711L6.00675 4.31447L6.33291 4.0775H5.92969L5.80514 3.69434L5.68111 4.0775H5.27789ZM7.389 4.0775L7.71516 4.31447L7.59061 4.69711L7.91625 4.46067L8.24241 4.69711L8.11786 4.31447L8.44403 4.0775H8.0408L7.91625 3.69434L7.79222 4.0775H7.389ZM1.05566 6.18861L1.38183 6.42559L1.25728 6.80822L1.58291 6.57178L1.90908 6.80822L1.78453 6.42559L2.11069 6.18861H1.70747L1.58291 5.80545L1.45889 6.18861H1.05566ZM3.36839 6.80822L3.69403 6.57178L4.02019 6.80822L3.89564 6.42559L4.2218 6.18861H3.81858L3.69403 5.80545L3.57 6.18861H3.16678L3.49294 6.42559L3.36839 6.80822ZM5.27789 6.18861L5.60405 6.42559L5.4795 6.80822L5.80514 6.57178L6.1313 6.80822L6.00675 6.42559L6.33291 6.18861H5.92969L5.80514 5.80545L5.68111 6.18861H5.27789ZM7.389 6.18861L7.71516 6.42559L7.59061 6.80822L7.91625 6.57178L8.24241 6.80822L8.11786 6.42559L8.44403 6.18861H8.0408L7.91625 5.80545L7.79222 6.18861H7.389ZM1.05566 8.29973L1.38183 8.5367L1.25728 8.91934L1.58291 8.68289L1.90908 8.91934L1.78453 8.5367L2.11069 8.29973H1.70747L1.58291 7.91656L1.45889 8.29973H1.05566ZM3.36839 8.91934L3.69403 8.68289L4.02019 8.91934L3.89564 8.5367L4.2218 8.29973H3.81858L3.69403 7.91656L3.57 8.29973H3.16678L3.49294 8.5367L3.36839 8.91934ZM5.27789 8.29973L5.60405 8.5367L5.4795 8.91934L5.80514 8.68289L6.1313 8.91934L6.00675 8.5367L6.33291 8.29973H5.92969L5.80514 7.91656L5.68111 8.29973H5.27789ZM7.389 8.29973L7.71516 8.5367L7.59061 8.91934L7.91625 8.68289L8.24241 8.91934L8.11786 8.5367L8.44403 8.29973H8.0408L7.91625 7.91656L7.79222 8.29973H7.389Z" fill="white"/>
</g>
<defs>
<clipPath id="clip0_112_3871">
<rect width="19" height="19" fill="white"/>
</clipPath>
</defs>
</svg>
