<svg width="96" height="32" viewBox="0 0 96 32" fill="none" xmlns="http://www.w3.org/2000/svg">
<path d="M56.9693 14.2069H54.9682V21.5173L47.2155 14.2069H45V23.8621H47.0011V16.7862L54.4965 23.8621H56.9693V14.2069Z" fill="#4B5563"/>
<path d="M69.7102 23.8621V22.1242H60.9482V19.9772H68.9128V18.1427H60.9482V15.9448H69.7102V14.2069H58.9471V23.8621H69.7102Z" fill="#4B5563"/>
<path d="M83.7159 14.2069H71.8807V16.1379H76.7977V23.8897H78.7989V16.1379H83.7159V14.2069Z" fill="#4B5563"/>
<path fill-rule="evenodd" clip-rule="evenodd" d="M37 5H15L15 21H37V5ZM15 2C13.3431 2 12 3.34315 12 5V21C12 22.6569 13.3431 24 15 24H37C38.6569 24 40 22.6569 40 21V5C40 3.34315 38.6569 2 37 2H15Z" fill="#FB923C"/>
<path fill-rule="evenodd" clip-rule="evenodd" d="M24.0002 10.7776L15.0005 5.02992L14.9998 21.2224L23.9995 26.9701L24.0002 10.7776ZM16.6056 2.47432C14.6083 1.19874 12.0008 2.64576 12.0007 5.02979L12 21.2223C12 22.2589 12.5263 23.2234 13.3948 23.778L22.3944 29.5257C24.3917 30.8013 26.9992 29.3542 26.9993 26.9702L27 10.7777C27 9.74108 26.4737 8.77663 25.6052 8.22198L16.6056 2.47432Z" fill="#4B5563"/>
<path d="M55.7631 11.6552V9.91724H47.0011V7.77025H54.9657V5.93576H47.0011V3.73793H55.7631V2H45V11.6552H55.7631Z" fill="#4B5563"/>
<path d="M68.0686 2.9C67.7995 2.62857 67.4738 2.4 67.1056 2.24286C66.7516 2.08571 66.3409 2 65.9019 2H58V12H59.9826V8.2H65.9019C66.3126 8.2 66.7091 8.11429 67.1056 7.95714C67.4596 7.8 67.7712 7.58571 68.0686 7.28571C68.3659 6.98571 68.5784 6.65714 68.7341 6.3C68.8899 5.9 68.9749 5.5 68.9749 5.1C68.9749 4.68571 68.8899 4.28571 68.7341 3.88571C68.5784 3.51429 68.3518 3.18571 68.0686 2.9ZM67.1339 5.1C67.1339 5.44286 67.0065 5.74286 66.7657 5.98571C66.525 6.22857 66.2276 6.35714 65.9019 6.35714H59.9826V3.84286H65.9019C66.2559 3.84286 66.5392 3.97143 66.7657 4.21429C67.0065 4.44286 67.1339 4.74286 67.1339 5.1Z" fill="#4B5563"/>
<path d="M82.9693 2H80.9682V9.31034L73.2155 2H71V11.6552H73.0011V4.57931L80.4965 11.6552H82.9693V2Z" fill="#4B5563"/>
</svg>
