<svg width="20" height="20" viewBox="0 0 20 20" fill="none" xmlns="http://www.w3.org/2000/svg">
<path d="M11.083 14.3962C10.9163 14.2295 10.8363 14.0281 10.843 13.792C10.8497 13.5559 10.9366 13.3545 11.1038 13.1878L13.458 10.8337H4.16634C3.93023 10.8337 3.73218 10.7537 3.57218 10.5937C3.41218 10.4337 3.33246 10.2359 3.33301 10.0003C3.33301 9.76421 3.41301 9.56616 3.57301 9.40616C3.73301 9.24616 3.93079 9.16644 4.16634 9.16699H13.458L11.083 6.79199C10.9163 6.62532 10.833 6.42727 10.833 6.19783C10.833 5.96838 10.9163 5.7706 11.083 5.60449C11.2497 5.43783 11.4477 5.35449 11.6772 5.35449C11.9066 5.35449 12.1044 5.43783 12.2705 5.60449L16.083 9.41699C16.1663 9.50033 16.2255 9.5906 16.2605 9.68783C16.2955 9.78505 16.3127 9.88921 16.3122 10.0003C16.3122 10.1114 16.2947 10.2156 16.2597 10.3128C16.2247 10.41 16.1658 10.5003 16.083 10.5837L12.2497 14.417C12.0969 14.5698 11.9061 14.6462 11.6772 14.6462C11.4483 14.6462 11.2502 14.5628 11.083 14.3962Z" fill="white"/>
</svg>
