<svg width="30" height="14" viewBox="0 0 30 14" fill="none" xmlns="http://www.w3.org/2000/svg">
<path fill-rule="evenodd" clip-rule="evenodd" d="M22.2623 0.340513C22.4786 0.122471 22.7719 0 23.0777 0C23.3835 0 23.6768 0.122471 23.8931 0.340513L29.6625 6.16217C29.8786 6.38049 30 6.67642 30 6.98497C30 7.29352 29.8786 7.58945 29.6625 7.80776L23.8931 13.6294C23.7875 13.7438 23.6601 13.8356 23.5185 13.8992C23.377 13.9628 23.2242 13.9971 23.0693 13.9998C22.9143 14.0026 22.7605 13.9738 22.6168 13.9153C22.4731 13.8567 22.3426 13.7695 22.233 13.659C22.1234 13.5484 22.0371 13.4167 21.979 13.2717C21.921 13.1268 21.8925 12.9715 21.8952 12.8151C21.898 12.6588 21.9319 12.5046 21.9949 12.3618C22.058 12.219 22.1489 12.0904 22.2623 11.9838L26.0624 8.1493H1.15389C0.847856 8.1493 0.55436 8.02663 0.337965 7.80827C0.12157 7.58992 0 7.29377 0 6.98497C0 6.67617 0.12157 6.38002 0.337965 6.16166C0.55436 5.94331 0.847856 5.82063 1.15389 5.82063H26.0624L22.2623 1.9861C22.0462 1.76779 21.9248 1.47186 21.9248 1.16331C21.9248 0.854758 22.0462 0.558825 22.2623 0.340513Z" fill="black"/>
</svg>
