<?xml version="1.0" encoding="utf-8"?>
<!-- Generator: Adobe Illustrator 17.0.0, SVG Export Plug-In . SVG Version: 6.00 Build 0)  -->
<!DOCTYPE svg PUBLIC "-//W3C//DTD SVG 1.1//EN" "http://www.w3.org/Graphics/SVG/1.1/DTD/svg11.dtd">
<svg version="1.1" id="Layer_1" xmlns="http://www.w3.org/2000/svg" xmlns:xlink="http://www.w3.org/1999/xlink" x="0px" y="0px"
	 width="150px" height="30px" viewBox="0 0 150 30" enable-background="new 0 0 150 30" xml:space="preserve">
<g>
	<path d="M16.427,18.767c-0.104,0.889-0.356,1.694-0.76,2.418c-0.403,0.724-0.914,1.344-1.534,1.859
		c-0.62,0.518-1.328,0.92-2.124,1.21c-0.796,0.289-1.659,0.434-2.588,0.434c-1.034,0-1.979-0.171-2.837-0.512
		s-1.596-0.857-2.216-1.55s-1.101-1.55-1.441-2.573c-0.341-1.022-0.512-2.217-0.512-3.58c0-1.364,0.17-2.542,0.512-3.535
		c0.341-0.992,0.821-1.803,1.441-2.433s1.369-1.101,2.248-1.411c0.878-0.31,1.854-0.465,2.93-0.465c0.992,0,1.896,0.134,2.712,0.403
		c0.816,0.269,1.529,0.662,2.139,1.178c0.609,0.517,1.09,1.137,1.442,1.86c0.351,0.724,0.558,1.529,0.62,2.418h-4.061
		c-0.104-0.785-0.418-1.4-0.945-1.845c-0.527-0.444-1.173-0.667-1.938-0.667c-0.434,0-0.837,0.073-1.209,0.217
		s-0.697,0.387-0.977,0.729c-0.279,0.341-0.501,0.796-0.667,1.364c-0.166,0.569-0.248,1.266-0.248,2.093
		c0,1.674,0.299,2.913,0.899,3.72c0.6,0.806,1.292,1.209,2.077,1.209c0.785,0,1.457-0.217,2.015-0.651
		c0.558-0.434,0.878-1.064,0.961-1.891H16.427z"/>
	<path d="M25.107,24.688c-1.24,0-2.346-0.196-3.317-0.589c-0.972-0.393-1.793-0.94-2.465-1.644c-0.672-0.702-1.183-1.55-1.534-2.542
		c-0.352-0.991-0.527-2.077-0.527-3.255c0-1.198,0.181-2.294,0.542-3.286c0.361-0.992,0.884-1.839,1.566-2.542
		c0.682-0.702,1.503-1.245,2.464-1.627c0.961-0.382,2.051-0.573,3.271-0.573c1.198,0,2.273,0.191,3.224,0.573
		c0.95,0.383,1.761,0.92,2.433,1.612c0.671,0.693,1.188,1.535,1.55,2.527c0.361,0.992,0.542,2.098,0.542,3.317
		c0,1.22-0.181,2.32-0.542,3.302c-0.362,0.981-0.879,1.824-1.55,2.526c-0.672,0.703-1.488,1.245-2.449,1.628
		C27.354,24.496,26.285,24.688,25.107,24.688z M25.107,21.309c2.459,0,3.689-1.55,3.689-4.65c0-3.079-1.23-4.619-3.689-4.619
		c-2.46,0-3.689,1.54-3.689,4.619C21.418,19.759,22.647,21.309,25.107,21.309z"/>
	<path d="M34.313,24.284V9.032h3.782v1.829c0.331-0.517,0.677-0.919,1.039-1.209c0.361-0.29,0.733-0.512,1.116-0.667
		c0.382-0.155,0.77-0.253,1.162-0.294s0.795-0.062,1.209-0.062h0.527v4.123c-0.372-0.062-0.744-0.093-1.116-0.093
		c-2.459,0-3.689,1.23-3.689,3.689v7.936H34.313z"/>
	<path d="M50.836,24.688c-1.24,0-2.346-0.196-3.317-0.589c-0.972-0.393-1.793-0.94-2.465-1.644c-0.672-0.702-1.183-1.55-1.534-2.542
		c-0.352-0.991-0.527-2.077-0.527-3.255c0-1.198,0.181-2.294,0.542-3.286c0.361-0.992,0.884-1.839,1.566-2.542
		c0.682-0.702,1.503-1.245,2.464-1.627c0.961-0.382,2.051-0.573,3.271-0.573c1.198,0,2.273,0.191,3.224,0.573
		c0.95,0.383,1.761,0.92,2.433,1.612c0.671,0.693,1.188,1.535,1.55,2.527c0.361,0.992,0.542,2.098,0.542,3.317
		c0,1.22-0.181,2.32-0.542,3.302c-0.362,0.981-0.879,1.824-1.55,2.526c-0.672,0.703-1.488,1.245-2.449,1.628
		C53.084,24.496,52.014,24.688,50.836,24.688z M50.836,21.309c2.459,0,3.689-1.55,3.689-4.65c0-3.079-1.23-4.619-3.689-4.619
		c-2.46,0-3.689,1.54-3.689,4.619C47.147,19.759,48.376,21.309,50.836,21.309z"/>
	<path d="M69.808,24.284v-9.238c0-1.178-0.197-1.974-0.59-2.387c-0.393-0.413-1.064-0.62-2.015-0.62
		c-2.087,0-3.131,1.168-3.131,3.503v8.742h-4.03V9.032h3.844v2.232c0.475-0.868,1.105-1.524,1.891-1.968
		c0.785-0.444,1.798-0.667,3.038-0.667c0.723,0,1.395,0.108,2.015,0.325c0.62,0.217,1.152,0.542,1.597,0.977
		s0.796,0.966,1.054,1.597c0.259,0.63,0.388,1.359,0.388,2.186v10.571H69.808z"/>
	<path d="M75.729,7.203V3.452h4.029v3.751H75.729z M75.729,24.284V9.032h4.029v15.252H75.729z"/>
	<path d="M91.506,24.284v-2.139c-1.033,1.694-2.614,2.542-4.742,2.542c-0.766,0-1.463-0.135-2.093-0.403
		c-0.631-0.269-1.173-0.65-1.628-1.146c-0.454-0.496-0.811-1.085-1.069-1.768c-0.259-0.682-0.388-1.446-0.388-2.294V9.032h4.03
		v9.424c0,1.902,0.857,2.853,2.573,2.853c1.033,0,1.813-0.325,2.34-0.977c0.527-0.651,0.791-1.482,0.791-2.496V9.032h3.999v15.252
		H91.506z"/>
	<path d="M114.974,24.284v-9.238c0-0.93-0.218-1.685-0.651-2.263c-0.434-0.578-1.013-0.868-1.736-0.868
		c-0.744,0-1.358,0.31-1.844,0.93c-0.486,0.62-0.729,1.395-0.729,2.325v9.114h-4.03v-9.176c0-0.62-0.042-1.126-0.124-1.519
		c-0.083-0.393-0.223-0.703-0.419-0.93c-0.196-0.227-0.449-0.388-0.759-0.48c-0.311-0.093-0.683-0.14-1.116-0.14
		c-1.633,0-2.449,0.992-2.449,2.976v9.269h-4.03V9.032h3.782v2.232c0.517-1.012,1.137-1.705,1.86-2.077
		c0.723-0.372,1.591-0.558,2.604-0.558c0.517,0,0.977,0.042,1.38,0.124s0.765,0.222,1.085,0.418s0.625,0.449,0.914,0.759
		s0.579,0.682,0.868,1.116c0.413-0.847,0.961-1.462,1.644-1.845c0.682-0.382,1.508-0.573,2.479-0.573
		c0.765,0,1.468,0.129,2.108,0.387c0.64,0.259,1.188,0.62,1.643,1.085c0.454,0.465,0.811,1.008,1.069,1.627
		c0.259,0.62,0.388,1.282,0.388,1.984v10.571H114.974z"/>
	<path d="M120.367,24.284V20.1h4.31v4.185H120.367z"/>
	<path d="M126.351,7.203V3.452h4.029v3.751H126.351z M126.351,24.284V9.032h4.029v15.252H126.351z"/>
	<path d="M139.711,24.688c-1.239,0-2.346-0.196-3.316-0.589c-0.972-0.393-1.793-0.94-2.465-1.644
		c-0.672-0.702-1.184-1.55-1.534-2.542c-0.352-0.991-0.527-2.077-0.527-3.255c0-1.198,0.181-2.294,0.543-3.286
		c0.361-0.992,0.883-1.839,1.565-2.542c0.682-0.702,1.503-1.245,2.464-1.627c0.961-0.382,2.051-0.573,3.271-0.573
		c1.198,0,2.273,0.191,3.225,0.573c0.95,0.383,1.762,0.92,2.434,1.612c0.671,0.693,1.188,1.535,1.55,2.527
		c0.361,0.992,0.542,2.098,0.542,3.317c0,1.22-0.181,2.32-0.542,3.302c-0.362,0.981-0.879,1.824-1.55,2.526
		c-0.672,0.703-1.488,1.245-2.449,1.628C141.959,24.496,140.89,24.688,139.711,24.688z M139.711,21.309
		c2.46,0,3.689-1.55,3.689-4.65c0-3.079-1.229-4.619-3.689-4.619c-2.459,0-3.688,1.54-3.688,4.619
		C136.022,19.759,137.252,21.309,139.711,21.309z"/>
</g>
</svg>
