<svg width="11" height="11" viewBox="0 0 11 11" fill="none" xmlns="http://www.w3.org/2000/svg">
<path d="M11 5.5C11 6.95869 10.4205 8.35764 9.38909 9.38909C8.35764 10.4205 6.95869 11 5.5 11C4.04131 11 2.64236 10.4205 1.61091 9.38909C0.579463 8.35764 0 6.95869 0 5.5C0 4.04131 0.579463 2.64236 1.61091 1.61091C2.64236 0.579463 4.04131 0 5.5 0C6.95869 0 8.35764 0.579463 9.38909 1.61091C10.4205 2.64236 11 4.04131 11 5.5ZM7.86814 2.86157C7.77962 2.80852 7.68151 2.77342 7.57942 2.75829C7.47733 2.74317 7.37326 2.7483 7.27315 2.7734C7.17304 2.7985 7.07886 2.84307 6.99599 2.90458C6.91311 2.96608 6.84316 3.04331 6.79014 3.13186L4.95157 6.19614L4.092 5.33657C3.94446 5.18903 3.74436 5.10615 3.53571 5.10615C3.32707 5.10615 3.12696 5.18903 2.97943 5.33657C2.83189 5.48411 2.74901 5.68421 2.74901 5.89286C2.74901 6.1015 2.83189 6.30161 2.97943 6.44914L4.19571 7.66386C4.32231 7.7907 4.47617 7.887 4.64558 7.94544C4.815 8.00388 4.99551 8.02291 5.17339 8.0011C5.35126 7.97928 5.52182 7.91718 5.67209 7.81953C5.82236 7.72188 5.94838 7.59125 6.04057 7.43757L8.13843 3.93957C8.19148 3.85105 8.22658 3.75294 8.2417 3.65085C8.25683 3.54876 8.2517 3.44469 8.2266 3.34458C8.2015 3.24447 8.15693 3.15029 8.09542 3.06742C8.03392 2.98454 7.95669 2.91459 7.86814 2.86157Z" fill="#41DC92"/>
</svg>
