<svg width="143" height="36" viewBox="0 0 143 36" fill="none" xmlns="http://www.w3.org/2000/svg">
<path d="M51.7295 8.46399H57.9946C60.9902 8.46399 63.2603 9.22251 64.8034 10.7388C66.3465 12.2559 67.1185 14.422 67.1185 17.2372V18.7629C67.1185 21.5421 66.3379 23.6988 64.776 25.2342C63.2142 26.7693 60.9535 27.5361 57.9946 27.5361H51.7295V8.46399ZM54.9982 11.3519V24.6481H57.9946C59.8825 24.6481 61.3036 24.1668 62.2569 23.2042C63.2099 22.2415 63.6867 20.7612 63.6867 18.7629V17.2372C63.6867 15.2575 63.2052 13.7815 62.2429 12.8095C61.2806 11.8383 59.8641 11.3519 57.9942 11.3519H54.9982Z" fill="#28334A"/>
<path d="M75.8345 27.7815C73.7825 27.7815 72.1803 27.2005 71.0273 26.038C69.8735 24.876 69.2974 23.2498 69.2974 21.1608V20.2888C69.2974 19.2535 69.4471 18.3268 69.7468 17.5096C70.0463 16.6924 70.4821 15.9976 71.0543 15.4252C71.6261 14.8528 72.3113 14.4172 73.1102 14.1174C73.9095 13.8175 74.8171 13.6677 75.8341 13.6677C77.8858 13.6677 79.4883 14.2495 80.6413 15.4116C81.7944 16.5744 82.3713 18.2001 82.3713 20.2888V21.1608C82.3713 22.1961 82.2216 23.1224 81.9218 23.9396C81.6224 24.7572 81.1866 25.452 80.6144 26.0244C80.0425 26.5964 79.3519 27.0324 78.5444 27.3322C77.7364 27.6314 76.8331 27.7815 75.8345 27.7815ZM75.8345 24.8392C76.8695 24.8392 77.6634 24.5394 78.2179 23.9396C78.7714 23.3406 79.0485 22.4139 79.0485 21.1608V20.2888C79.0485 19.0537 78.7628 18.1321 78.191 17.5233C77.6188 16.9153 76.8331 16.6107 75.8349 16.6107C74.7999 16.6107 74.0053 16.9106 73.4514 17.51C72.8976 18.1094 72.6208 19.0357 72.6208 20.2892V21.1611C72.6208 22.3963 72.9066 23.3182 73.4784 23.9263C74.0506 24.5347 74.8358 24.8392 75.8345 24.8392Z" fill="#28334A"/>
<path d="M86.2524 26.3783C85.4805 25.6068 85.0947 24.4944 85.0947 23.0411V8.46399H88.2541V22.7139C88.2541 23.422 88.4081 23.9397 88.7172 24.2669C89.0256 24.5941 89.4978 24.7576 90.133 24.7576H90.8142V27.5364H89.5611C88.127 27.5361 87.0237 27.1505 86.2524 26.3783Z" fill="#28334A"/>
<path d="M99.9931 27.7815C98.2859 27.7815 96.9608 27.2458 96.0165 26.1741V32.9857H92.8572V13.9129H95.3353L95.6351 15.7658C96.1072 15.0573 96.7107 14.5306 97.4463 14.1854C98.1819 13.8409 99.0305 13.6677 99.9931 13.6677C100.774 13.6677 101.496 13.8088 102.159 14.09C102.821 14.3722 103.389 14.7898 103.861 15.3435C104.333 15.8979 104.705 16.588 104.977 17.4142C105.25 18.2412 105.386 19.1995 105.386 20.2888V21.1608C105.386 22.2505 105.25 23.2041 104.977 24.0217C104.705 24.8392 104.328 25.5297 103.847 26.0924C103.366 26.6558 102.798 27.0781 102.145 27.3592C101.491 27.6404 100.774 27.7815 99.9931 27.7815ZM99.0402 24.8392C100.002 24.8392 100.747 24.5487 101.274 23.9673C101.8 23.3859 102.064 22.4506 102.064 21.1608V20.2888C102.064 19.0353 101.791 18.109 101.247 17.5096C100.701 16.9106 99.9665 16.6104 99.0406 16.6104C98.1689 16.6104 97.456 16.9102 96.9022 17.5096C96.3483 18.109 96.0529 18.9813 96.0169 20.1254V21.1608C96.0169 22.3596 96.3026 23.2722 96.8748 23.8989C97.4463 24.5257 98.1682 24.8392 99.0402 24.8392Z" fill="#28334A"/>
<path d="M108.11 8.46399H111.269V15.0847C112.177 14.1405 113.439 13.6678 115.055 13.6678C116.726 13.6678 118.028 14.1628 118.964 15.1528C119.899 16.1431 120.367 17.6368 120.367 19.6348V27.5361H117.207V19.6348C117.207 18.6358 116.966 17.8819 116.485 17.3733C116.004 16.8649 115.345 16.6104 114.51 16.6104C113.53 16.6104 112.754 16.8739 112.182 17.401C111.609 17.928 111.305 18.6268 111.269 19.4987V27.5361H108.11V8.46399Z" fill="#28334A"/>
<path d="M125.487 12.2785C124.906 12.2785 124.42 12.0834 124.03 11.6924C123.639 11.3022 123.444 10.8162 123.444 10.2348C123.444 9.65336 123.639 9.16772 124.03 8.77676C124.42 8.38652 124.906 8.19104 125.487 8.19104C126.05 8.19104 126.531 8.38616 126.931 8.77676C127.33 9.16736 127.53 9.65336 127.53 10.2348C127.53 10.8162 127.33 11.3018 126.931 11.6924C126.531 12.0834 126.05 12.2785 125.487 12.2785ZM123.908 13.9129H127.067V27.536H123.908V13.9129Z" fill="#28334A"/>
<path d="M130.743 13.9129H133.222L133.467 15.4386C134.483 14.2581 135.891 13.6674 137.689 13.6674C139.359 13.6674 140.661 14.1624 141.597 15.1524C142.532 16.1427 143 17.6364 143 19.6344V27.5356H139.841V19.6347C139.841 18.6357 139.599 17.8819 139.118 17.3732C138.637 16.8649 137.979 16.6104 137.144 16.6104C136.163 16.6104 135.387 16.8739 134.815 17.4009C134.243 17.928 133.939 18.6267 133.902 19.4986V27.536H130.743V13.9129H130.743Z" fill="#28334A"/>
<path d="M0 18C0 0 0 0 17.9938 0C35.9875 0 35.9875 0 35.9875 18C35.9875 36 35.9875 36 17.9938 36C0 36 0 36 0 18Z" fill="url(#paint0_linear)"/>
<path d="M25.3881 17.2393V18.7722C25.3881 21.5421 24.605 23.6992 23.0392 25.2429C21.4842 26.7757 19.226 27.5368 16.2638 27.5368H11.259C12.5751 26.9691 13.2333 25.7429 13.2333 23.8583V20.9974C13.2333 20.214 13.4035 19.6575 13.7443 19.3061C14.0963 18.9652 14.5047 18.7607 14.9924 18.6815V17.3196C14.5047 17.2397 14.0963 17.0359 13.7443 16.695C13.4035 16.3429 13.2333 15.7871 13.2333 15.0037V12.1421C13.2333 10.2579 12.5751 9.03171 11.259 8.46399H16.2635C19.2598 8.46399 21.5295 9.22467 23.0727 10.746C24.6169 12.2551 25.3881 14.4238 25.3881 17.2393Z" fill="white"/>
<defs>
<linearGradient id="paint0_linear" x1="17.9938" y1="36.2939" x2="17.9938" y2="0.127118" gradientUnits="userSpaceOnUse">
<stop stop-color="#0062E0"/>
<stop offset="1" stop-color="#19AFFF"/>
</linearGradient>
</defs>
</svg>
