<svg width="15" height="15" viewBox="0 0 15 15" fill="none" xmlns="http://www.w3.org/2000/svg">
<path fill-rule="evenodd" clip-rule="evenodd" d="M4.37487 5.625C4.25127 5.62503 4.13046 5.6617 4.02771 5.73037C3.92495 5.79905 3.84486 5.89665 3.79757 6.01084C3.75027 6.12503 3.7379 6.25067 3.762 6.37189C3.78611 6.49311 3.84561 6.60447 3.93299 6.69187L7.05799 9.81687C7.1752 9.93404 7.33414 9.99987 7.49987 9.99987C7.6656 9.99987 7.82454 9.93404 7.94174 9.81687L11.0667 6.69187C11.1541 6.60447 11.2136 6.49311 11.2377 6.37189C11.2618 6.25067 11.2495 6.12503 11.2022 6.01084C11.1549 5.89665 11.0748 5.79905 10.972 5.73037C10.8693 5.6617 10.7485 5.62503 10.6249 5.625H4.37487Z" fill="white"/>
</svg>
