<svg width="49" height="50" viewBox="0 0 49 50" fill="none" xmlns="http://www.w3.org/2000/svg">
<rect y="0.163086" width="49" height="49.0108" rx="8" fill="#333333"/>
<g filter="url(#filter0_d_112_3751)">
<mask id="mask0_112_3751" style="mask-type:luminance" maskUnits="userSpaceOnUse" x="8" y="10" width="34" height="30">
<path d="M18.0114 12.166C13.5869 12.166 10 15.7537 10 20.1792C10 28.1924 19.468 35.4771 24.5662 37.1715C29.6644 35.4771 39.1324 28.1924 39.1324 20.1792C39.1324 15.7537 35.5455 12.166 31.121 12.166C28.4117 12.166 26.0156 13.5115 24.5662 15.5709C23.8275 14.5184 22.8461 13.6594 21.7051 13.0668C20.5641 12.4741 19.2971 12.1651 18.0114 12.166Z" fill="white" stroke="white" stroke-width="4" stroke-linecap="round" stroke-linejoin="round"/>
</mask>
<g mask="url(#mask0_112_3751)">
<path d="M7.08691 6.33789H42.0458V41.3045H7.08691V6.33789Z" fill="#F7971D"/>
</g>
</g>
<defs>
<filter id="filter0_d_112_3751" x="1" y="5.16602" width="47.1323" height="43.0054" filterUnits="userSpaceOnUse" color-interpolation-filters="sRGB">
<feFlood flood-opacity="0" result="BackgroundImageFix"/>
<feColorMatrix in="SourceAlpha" type="matrix" values="0 0 0 0 0 0 0 0 0 0 0 0 0 0 0 0 0 0 127 0" result="hardAlpha"/>
<feOffset dy="2"/>
<feGaussianBlur stdDeviation="3.5"/>
<feComposite in2="hardAlpha" operator="out"/>
<feColorMatrix type="matrix" values="0 0 0 0 1 0 0 0 0 0.559634 0 0 0 0 0 0 0 0 0.5 0"/>
<feBlend mode="normal" in2="BackgroundImageFix" result="effect1_dropShadow_112_3751"/>
<feBlend mode="normal" in="SourceGraphic" in2="effect1_dropShadow_112_3751" result="shape"/>
</filter>
</defs>
</svg>
