<svg width="130" height="128" viewBox="0 0 130 128" fill="none" xmlns="http://www.w3.org/2000/svg">
<ellipse cx="76.6757" cy="52" rx="32.2846" ry="32" fill="url(#paint0_linear_112_3714)"/>
<g filter="url(#filter0_b_112_3714)">
<path d="M54 108C35.2207 108 20 92.7793 20 74C20 55.2207 35.2207 40 54 40C72.7793 40 88 55.2207 88 74C88 92.7793 72.7793 108 54 108Z" fill="#FFD953" fill-opacity="0.32"/>
<path d="M54 108C35.2207 108 20 92.7793 20 74C20 55.2207 35.2207 40 54 40C72.7793 40 88 55.2207 88 74C88 92.7793 72.7793 108 54 108Z" stroke="url(#paint1_linear_112_3714)" stroke-width="0.5" stroke-linecap="round" stroke-linejoin="round"/>
</g>
<path d="M60.1553 69.778L50.0009 79.845M63.9625 76.0703L66.5011 73.5536C69.3051 70.7736 69.3059 66.2661 66.5019 63.4861C63.6978 60.7062 59.1503 60.7071 56.3462 63.487L53.8104 66.0034M56.3478 83.6212L53.8093 86.138C51.0053 88.9179 46.4595 88.9174 43.6555 86.1375C40.8514 83.3575 40.8516 78.8503 43.6556 76.0705L46.1929 73.5538" stroke="white" stroke-width="3.55844" stroke-linecap="round" stroke-linejoin="round"/>
<defs>
<filter id="filter0_b_112_3714" x="-4.25" y="15.75" width="116.5" height="116.5" filterUnits="userSpaceOnUse" color-interpolation-filters="sRGB">
<feFlood flood-opacity="0" result="BackgroundImageFix"/>
<feGaussianBlur in="BackgroundImageFix" stdDeviation="12"/>
<feComposite in2="SourceAlpha" operator="in" result="effect1_backgroundBlur_112_3714"/>
<feBlend mode="normal" in="SourceGraphic" in2="effect1_backgroundBlur_112_3714" result="shape"/>
</filter>
<linearGradient id="paint0_linear_112_3714" x1="108.96" y1="20" x2="49.04" y2="90.0248" gradientUnits="userSpaceOnUse">
<stop stop-color="#FFD953"/>
<stop offset="0.0666667" stop-color="#FFD953"/>
<stop offset="0.133333" stop-color="#FFD752"/>
<stop offset="0.2" stop-color="#FED551"/>
<stop offset="0.266667" stop-color="#FED150"/>
<stop offset="0.333333" stop-color="#FDCC4E"/>
<stop offset="0.4" stop-color="#FCC74C"/>
<stop offset="0.466667" stop-color="#FBC14A"/>
<stop offset="0.533333" stop-color="#FABA48"/>
<stop offset="0.6" stop-color="#F9B446"/>
<stop offset="0.666667" stop-color="#F8AF44"/>
<stop offset="0.733333" stop-color="#F7AA42"/>
<stop offset="0.8" stop-color="#F6A641"/>
<stop offset="0.866667" stop-color="#F6A440"/>
<stop offset="0.933333" stop-color="#F6A240"/>
<stop offset="1" stop-color="#F5A23F"/>
</linearGradient>
<linearGradient id="paint1_linear_112_3714" x1="23.633" y1="44.923" x2="75.9662" y2="109.756" gradientUnits="userSpaceOnUse">
<stop stop-color="white" stop-opacity="0.25"/>
<stop offset="1" stop-color="white" stop-opacity="0"/>
</linearGradient>
</defs>
</svg>
