<svg width="35" height="35" viewBox="0 0 35 35" fill="none" xmlns="http://www.w3.org/2000/svg">
<path d="M19.5569 17.5001L25.8277 11.2439C26.1023 10.9692 26.2566 10.5968 26.2566 10.2084C26.2566 9.82008 26.1023 9.44763 25.8277 9.17302C25.5531 8.89841 25.1807 8.74414 24.7923 8.74414C24.4039 8.74414 24.0315 8.89841 23.7569 9.17302L17.5006 15.4439L11.2444 9.17302C10.9698 8.89841 10.5973 8.74414 10.209 8.74414C9.82062 8.74414 9.44817 8.89841 9.17356 9.17302C8.89895 9.44763 8.74468 9.82008 8.74468 10.2084C8.74468 10.5968 8.89895 10.9692 9.17356 11.2439L15.4444 17.5001L9.17356 23.7564C9.03687 23.8919 8.92838 24.0532 8.85434 24.2309C8.78031 24.4086 8.74219 24.5993 8.74219 24.7918C8.74219 24.9843 8.78031 25.1749 8.85434 25.3526C8.92838 25.5303 9.03687 25.6916 9.17356 25.8272C9.30913 25.9639 9.47042 26.0724 9.64814 26.1464C9.82585 26.2204 10.0165 26.2586 10.209 26.2586C10.4015 26.2586 10.5921 26.2204 10.7698 26.1464C10.9475 26.0724 11.1088 25.9639 11.2444 25.8272L17.5006 19.5564L23.7569 25.8272C23.8925 25.9639 24.0538 26.0724 24.2315 26.1464C24.4092 26.2204 24.5998 26.2586 24.7923 26.2586C24.9848 26.2586 25.1754 26.2204 25.3531 26.1464C25.5309 26.0724 25.6922 25.9639 25.8277 25.8272C25.9644 25.6916 26.0729 25.5303 26.1469 25.3526C26.221 25.1749 26.2591 24.9843 26.2591 24.7918C26.2591 24.5993 26.221 24.4086 26.1469 24.2309C26.0729 24.0532 25.9644 23.8919 25.8277 23.7564L19.5569 17.5001Z" fill="#333333"/>
</svg>
