<svg width="50" height="34" viewBox="0 0 50 34" fill="none" xmlns="http://www.w3.org/2000/svg">
<path d="M49.9681 0.0320452C49.9681 0.192271 50 0.352498 50 0.480679C50 8.52403 50 16.5674 50 24.6428C50 24.803 50 24.9632 50 25.1876C49.8084 25.1876 49.6169 25.1876 49.4572 25.1876C39.304 25.1876 29.1507 25.1876 18.9974 25.1876C18.6782 25.1876 18.4866 25.2837 18.2631 25.476C15.5172 28.1998 12.7714 30.9237 10.0255 33.6475C9.92976 33.7436 9.80204 33.8398 9.6424 34C9.6424 27.7832 9.6424 21.6305 9.6424 15.4138C9.77012 15.4138 9.92976 15.4138 10.0575 15.4138C11.175 15.4138 12.3244 15.4779 13.41 15.3497C15.9642 15.0292 17.7203 13.2667 18.1354 10.6711C18.3589 9.26107 18.2631 7.85108 17.6245 6.53723C16.7305 4.71065 15.2299 3.65316 13.2184 3.55702C10.7599 3.46089 8.26948 3.52498 5.77905 3.49293C5.7152 3.49293 5.61941 3.49293 5.52363 3.52498C5.52363 10.7031 5.52363 17.9133 5.52363 25.1555C3.67177 25.1555 1.81992 25.1555 0 25.1555C0 16.7597 0 8.39585 0 0C16.6667 0.0320452 33.3333 0.0320452 49.9681 0.0320452ZM37.3244 21.1499C37.7075 21.0858 38.5057 21.0217 39.272 20.7974C41.6667 20.0603 43.3269 18.5221 43.8378 15.9906C44.3167 13.491 43.6462 11.312 41.6028 9.67766C39.0805 7.65881 35.0894 7.59472 32.4713 9.51744C29.5658 11.6004 28.9911 15.8624 31.2261 18.6183C32.6948 20.4128 34.6743 21.0858 37.3244 21.1499ZM20.3384 20.7974C21.6794 20.7974 22.9885 20.7974 24.3295 20.7974C24.3295 20.6051 24.3295 20.4449 24.3295 20.2846C24.3614 18.6183 24.2976 16.9519 24.3934 15.2856C24.4891 13.5872 25.5109 12.4656 27.1392 12.2092C27.6181 12.1451 28.129 12.2092 28.6398 12.2092C28.6398 10.8633 28.6398 9.58153 28.6398 8.20358C28.2248 8.23563 27.8097 8.23563 27.4266 8.33176C25.9579 8.68426 25 9.64562 24.4253 11.0556C24.3614 11.1838 24.2976 11.2799 24.2337 11.4081C24.2018 11.4081 24.1699 11.3761 24.1379 11.3761C24.1379 10.4147 24.1379 9.48539 24.1379 8.49199C22.8608 8.49199 21.5837 8.49199 20.3065 8.49199C20.3384 12.5617 20.3384 16.6635 20.3384 20.7974Z" fill="#3663E0"/>
<path d="M9.6106 11.953C9.6106 10.2867 9.6106 8.6844 9.6106 7.05009C9.70638 7.05009 9.80217 7.01805 9.89795 7.01805C10.4727 7.01805 11.0793 7.05009 11.654 7.01805C13.4101 6.95396 14.1444 8.10759 14.0806 9.61371C14.0167 11.1198 13.1547 11.953 11.654 11.953C10.9835 11.953 10.313 11.953 9.6106 11.953Z" fill="#3663E0"/>
<path d="M39.8787 14.6446C39.8467 13.4269 39.3997 12.4014 38.2503 11.7926C36.9093 11.0876 35.2809 11.5362 34.4827 12.786C33.5887 14.196 33.8761 16.2148 35.0894 17.1441C36.0472 17.8812 37.1328 17.9773 38.2184 17.4646C39.3997 16.9198 39.8467 15.8944 39.8787 14.6446Z" fill="#3663E0"/>
<path d="M39.8787 14.6449C39.8468 15.8947 39.3998 16.9201 38.2503 17.4969C37.1648 18.0417 36.0792 17.9135 35.1214 17.1765C33.9081 16.2472 33.6207 14.1963 34.5147 12.8183C35.3129 11.5686 36.9413 11.1199 38.2823 11.8249C39.3998 12.4017 39.8148 13.4272 39.8787 14.6449Z" fill="#3663E0"/>
</svg>
