<svg width="219" height="22" viewBox="0 0 219 22" fill="none" xmlns="http://www.w3.org/2000/svg">
<path d="M9.58 -1.43051e-06C11.44 -1.43051e-06 13.05 0.309999 14.41 0.929999C15.79 1.55 16.85 2.43 17.59 3.57C18.33 4.71 18.7 6.06 18.7 7.62C18.7 9.16 18.33 10.51 17.59 11.67C16.85 12.81 15.79 13.69 14.41 14.31C13.05 14.91 11.44 15.21 9.58 15.21H5.35V21H0.49V-1.43051e-06H9.58ZM9.31 11.25C10.77 11.25 11.88 10.94 12.64 10.32C13.4 9.68 13.78 8.78 13.78 7.62C13.78 6.44 13.4 5.54 12.64 4.92C11.88 4.28 10.77 3.96 9.31 3.96H5.35V11.25H9.31ZM53.6753 -1.43051e-06L46.8053 21H41.5853L36.9653 6.78L32.1953 21H27.0053L20.1053 -1.43051e-06H25.1453L29.8853 14.76L34.8353 -1.43051e-06H39.3353L44.1353 14.88L49.0253 -1.43051e-06H53.6753ZM69.5153 16.5H59.7653L57.9053 21H52.9253L62.2853 -1.43051e-06H67.0853L76.4753 21H71.3753L69.5153 16.5ZM67.9853 12.81L64.6553 4.77L61.3253 12.81H67.9853Z" fill="#F4274D"/>
<path d="M80.0941 21.24C79.2741 21.24 78.5841 20.96 78.0241 20.4C77.4641 19.84 77.1841 19.14 77.1841 18.3C77.1841 17.44 77.4641 16.75 78.0241 16.23C78.5841 15.69 79.2741 15.42 80.0941 15.42C80.9141 15.42 81.6041 15.69 82.1641 16.23C82.7241 16.75 83.0041 17.44 83.0041 18.3C83.0041 19.14 82.7241 19.84 82.1641 20.4C81.6041 20.96 80.9141 21.24 80.0941 21.24ZM105.616 21L105.586 8.4L99.4056 18.78H97.2156L91.0656 8.67V21H86.5056V-1.43051e-06H90.5256L98.3856 13.05L106.126 -1.43051e-06H110.116L110.176 21H105.616ZM128.988 16.5H119.238L117.378 21H112.398L121.758 -1.43051e-06H126.558L135.948 21H130.848L128.988 16.5ZM127.458 12.81L124.128 4.77L120.798 12.81H127.458ZM151.507 21L147.457 15.15H147.217H142.987V21H138.127V-1.43051e-06H147.217C149.077 -1.43051e-06 150.687 0.309999 152.047 0.929999C153.427 1.55 154.487 2.43 155.227 3.57C155.967 4.71 156.337 6.06 156.337 7.62C156.337 9.18 155.957 10.53 155.197 11.67C154.457 12.79 153.397 13.65 152.017 14.25L156.727 21H151.507ZM151.417 7.62C151.417 6.44 151.037 5.54 150.277 4.92C149.517 4.28 148.407 3.96 146.947 3.96H142.987V11.28H146.947C148.407 11.28 149.517 10.96 150.277 10.32C151.037 9.68 151.417 8.78 151.417 7.62ZM167.837 12.75L165.017 15.69V21H160.187V-1.43051e-06H165.017V9.81L174.317 -1.43051e-06H179.717L171.017 9.36L180.227 21H174.557L167.837 12.75ZM198.654 17.1V21H182.394V-1.43051e-06H198.264V3.9H187.224V8.46H196.974V12.24H187.224V17.1H198.654ZM206.871 3.96H200.151V-1.43051e-06H218.451V3.96H211.731V21H206.871V3.96Z" fill="black"/>
</svg>
