<svg width="147" height="131" viewBox="0 0 147 131" fill="none" xmlns="http://www.w3.org/2000/svg">
<rect y="0.108398" width="81.25" height="81.25" rx="10" fill="url(#paint0_linear_112_4023)"/>
<g filter="url(#filter0_b_112_4023)">
<path fill-rule="evenodd" clip-rule="evenodd" d="M51.1576 17.7124C35.6182 17.7124 23.021 30.3096 23.021 45.849C23.021 50.3542 25.6046 54.4602 29.6662 56.4097L32.3061 57.6769C38.5408 60.6696 38.5408 69.5469 32.3061 72.5396L29.6662 73.8067C25.6046 75.7563 23.021 79.8623 23.021 84.3675C23.021 99.9069 35.6182 112.504 51.1576 112.504H111.343C126.882 112.504 139.479 99.9069 139.479 84.3675C139.479 79.8623 136.896 75.7563 132.834 73.8067L130.194 72.5396C123.959 69.5469 123.959 60.6696 130.194 57.6769L132.834 56.4097C136.896 54.4602 139.479 50.3542 139.479 45.849C139.479 30.3096 126.882 17.7124 111.343 17.7124H51.1576Z" fill="#5925BA" fill-opacity="0.35"/>
<path d="M51.1576 17.2124C35.342 17.2124 22.521 30.0334 22.521 45.849C22.521 50.5465 25.2149 54.8278 29.4498 56.8605L32.0897 58.1277C37.9463 60.9388 37.9463 69.2777 32.0897 72.0888L29.4498 73.356C25.2149 75.3887 22.521 79.67 22.521 84.3675C22.521 100.183 35.342 113.004 51.1576 113.004H111.343C127.158 113.004 139.979 100.183 139.979 84.3675C139.979 79.67 137.285 75.3887 133.051 73.356L130.411 72.0888C124.554 69.2777 124.554 60.9388 130.411 58.1277L133.051 56.8605C137.285 54.8277 139.979 50.5465 139.979 45.849C139.979 30.0334 127.158 17.2124 111.343 17.2124H51.1576Z" stroke="url(#paint1_linear_112_4023)" stroke-linecap="round"/>
</g>
<g filter="url(#filter1_d_112_4023)">
<path d="M98.5141 47.8442C100.101 49.4307 100.101 52.0029 98.5141 53.5894L67.8728 84.2307C66.2863 85.8172 63.714 85.8172 62.1275 84.2307C60.541 82.6442 60.541 80.072 62.1275 78.4855L92.7688 47.8442C94.3553 46.2577 96.9276 46.2577 98.5141 47.8442Z" fill="url(#paint2_linear_112_4023)"/>
<path d="M65.0002 54.2747C62.0086 54.2747 59.5835 51.8496 59.5835 48.8581C59.5835 45.8665 62.0086 43.4414 65.0002 43.4414C67.9917 43.4414 70.4168 45.8665 70.4168 48.8581C70.4168 51.8496 67.9917 54.2747 65.0002 54.2747Z" fill="url(#paint3_linear_112_4023)"/>
<path d="M97.5002 86.7747C94.5086 86.7747 92.0835 84.3496 92.0835 81.3581C92.0835 78.3665 94.5086 75.9414 97.5002 75.9414C100.492 75.9414 102.917 78.3665 102.917 81.3581C102.917 84.3496 100.492 86.7747 97.5002 86.7747Z" fill="url(#paint4_linear_112_4023)"/>
</g>
<defs>
<filter id="filter0_b_112_4023" x="-1.979" y="-7.2876" width="166.458" height="144.792" filterUnits="userSpaceOnUse" color-interpolation-filters="sRGB">
<feFlood flood-opacity="0" result="BackgroundImageFix"/>
<feGaussianBlur in="BackgroundImageFix" stdDeviation="12"/>
<feComposite in2="SourceAlpha" operator="in" result="effect1_backgroundBlur_112_4023"/>
<feBlend mode="normal" in="SourceGraphic" in2="effect1_backgroundBlur_112_4023" result="shape"/>
</filter>
<filter id="filter1_d_112_4023" x="56.3277" y="40.1856" width="56.3568" height="56.3568" filterUnits="userSpaceOnUse" color-interpolation-filters="sRGB">
<feFlood flood-opacity="0" result="BackgroundImageFix"/>
<feColorMatrix in="SourceAlpha" type="matrix" values="0 0 0 0 0 0 0 0 0 0 0 0 0 0 0 0 0 0 127 0" result="hardAlpha"/>
<feOffset dx="3.25583" dy="3.25583"/>
<feGaussianBlur stdDeviation="3.25583"/>
<feColorMatrix type="matrix" values="0 0 0 0 0.376471 0 0 0 0 0.156863 0 0 0 0 0.811765 0 0 0 0.5 0"/>
<feBlend mode="normal" in2="BackgroundImageFix" result="effect1_dropShadow_112_4023"/>
<feBlend mode="normal" in="SourceGraphic" in2="effect1_dropShadow_112_4023" result="shape"/>
</filter>
<linearGradient id="paint0_linear_112_4023" x1="3.26502e-07" y1="81.3584" x2="82.9813" y2="1.91682" gradientUnits="userSpaceOnUse">
<stop stop-color="#4C2094"/>
<stop offset="1" stop-color="#712EFF"/>
</linearGradient>
<linearGradient id="paint1_linear_112_4023" x1="23.021" y1="17.7124" x2="115.905" y2="131.712" gradientUnits="userSpaceOnUse">
<stop stop-color="white" stop-opacity="0.25"/>
<stop offset="1" stop-color="white" stop-opacity="0"/>
</linearGradient>
<linearGradient id="paint2_linear_112_4023" x1="81.6151" y1="96.0066" x2="141.422" y2="37.3811" gradientUnits="userSpaceOnUse">
<stop stop-color="white"/>
<stop offset="1" stop-color="white" stop-opacity="0.2"/>
</linearGradient>
<linearGradient id="paint3_linear_112_4023" x1="81.6151" y1="96.0066" x2="141.422" y2="37.3811" gradientUnits="userSpaceOnUse">
<stop stop-color="white"/>
<stop offset="1" stop-color="white" stop-opacity="0.2"/>
</linearGradient>
<linearGradient id="paint4_linear_112_4023" x1="81.6151" y1="96.0066" x2="141.422" y2="37.3811" gradientUnits="userSpaceOnUse">
<stop stop-color="white"/>
<stop offset="1" stop-color="white" stop-opacity="0.2"/>
</linearGradient>
</defs>
</svg>
