<svg width="141" height="126" viewBox="0 0 141 126" fill="none" xmlns="http://www.w3.org/2000/svg">
<circle cx="39.0277" cy="42.5482" r="39.0277" fill="url(#paint0_linear_112_4035)"/>
<g filter="url(#filter0_b_112_4035)">
<path fill-rule="evenodd" clip-rule="evenodd" d="M130.092 62.8416C130.092 91.5809 106.795 114.879 78.0555 114.879C49.3163 114.879 26.0186 91.5809 26.0186 62.8416C26.0186 34.1024 49.3163 10.8047 78.0555 10.8047C106.795 10.8047 130.092 34.1024 130.092 62.8416Z" fill="#C72752" fill-opacity="0.35"/>
<path fill-rule="evenodd" clip-rule="evenodd" d="M130.092 62.8416C130.092 91.5809 106.795 114.879 78.0555 114.879C49.3163 114.879 26.0186 91.5809 26.0186 62.8416C26.0186 34.1024 49.3163 10.8047 78.0555 10.8047C106.795 10.8047 130.092 34.1024 130.092 62.8416Z" stroke="url(#paint1_linear_112_4035)" stroke-linecap="round"/>
</g>
<g filter="url(#filter1_d_112_4035)">
<path fill-rule="evenodd" clip-rule="evenodd" d="M78.2037 76.0274C80.3591 76.0274 82.1065 74.2801 82.1065 72.1247V40.9025C82.1065 38.7471 80.3591 36.9997 78.2037 36.9997C76.0483 36.9997 74.3009 38.7471 74.3009 40.9025V72.1247C74.3009 74.2801 76.0483 76.0274 78.2037 76.0274ZM78.2037 82.5321C81.0776 82.5321 83.4074 84.8618 83.4074 87.7358C83.4074 90.6097 81.0776 92.9395 78.2037 92.9395C75.3298 92.9395 73 90.6097 73 87.7358C73 84.8618 75.3298 82.5321 78.2037 82.5321Z" fill="url(#paint2_linear_112_4035)"/>
</g>
<defs>
<filter id="filter0_b_112_4035" x="1.51855" y="-13.6953" width="153.074" height="153.074" filterUnits="userSpaceOnUse" color-interpolation-filters="sRGB">
<feFlood flood-opacity="0" result="BackgroundImageFix"/>
<feGaussianBlur in="BackgroundImageFix" stdDeviation="12"/>
<feComposite in2="SourceAlpha" operator="in" result="effect1_backgroundBlur_112_4035"/>
<feBlend mode="normal" in="SourceGraphic" in2="effect1_backgroundBlur_112_4035" result="shape"/>
</filter>
<filter id="filter1_d_112_4035" x="69.7442" y="33.7437" width="23.4305" height="68.9633" filterUnits="userSpaceOnUse" color-interpolation-filters="sRGB">
<feFlood flood-opacity="0" result="BackgroundImageFix"/>
<feColorMatrix in="SourceAlpha" type="matrix" values="0 0 0 0 0 0 0 0 0 0 0 0 0 0 0 0 0 0 127 0" result="hardAlpha"/>
<feOffset dx="3.25583" dy="3.25583"/>
<feGaussianBlur stdDeviation="3.25583"/>
<feColorMatrix type="matrix" values="0 0 0 0 0.8 0 0 0 0 0.156863 0 0 0 0 0.32549 0 0 0 0.5 0"/>
<feBlend mode="normal" in2="BackgroundImageFix" result="effect1_dropShadow_112_4035"/>
<feBlend mode="normal" in="SourceGraphic" in2="effect1_dropShadow_112_4035" result="shape"/>
</filter>
<linearGradient id="paint0_linear_112_4035" x1="3.13664e-07" y1="81.5759" x2="79.7186" y2="5.25783" gradientUnits="userSpaceOnUse">
<stop stop-color="#942050"/>
<stop offset="1" stop-color="#FF2E54"/>
</linearGradient>
<linearGradient id="paint1_linear_112_4035" x1="26.0186" y1="10.8047" x2="130.145" y2="114.826" gradientUnits="userSpaceOnUse">
<stop stop-color="white" stop-opacity="0.25"/>
<stop offset="1" stop-color="white" stop-opacity="0"/>
</linearGradient>
<linearGradient id="paint2_linear_112_4035" x1="78.2913" y1="25.0822" x2="105.551" y2="30.0535" gradientUnits="userSpaceOnUse">
<stop stop-color="white"/>
<stop offset="1" stop-color="white" stop-opacity="0.2"/>
</linearGradient>
</defs>
</svg>
