<svg width="22" height="24" viewBox="0 0 22 24" fill="none" xmlns="http://www.w3.org/2000/svg">
<path d="M20.8133 4.61437C20.7235 4.51172 20.6134 4.42872 20.49 4.37058C20.3665 4.31243 20.2325 4.28039 20.0961 4.27645C17.9776 4.22106 15.297 1.95533 13.5247 1.06621C12.43 0.518701 11.7072 0.157698 11.1644 0.0626006C11.0542 0.0465379 10.9422 0.046849 10.8321 0.0635238C10.2893 0.158622 9.56657 0.519624 8.47272 1.06713C6.70041 1.95533 4.0198 4.22106 1.90134 4.27645C1.76488 4.28059 1.63072 4.31272 1.50719 4.37085C1.38366 4.42898 1.27337 4.51186 1.18318 4.61437C0.996234 4.82593 0.899778 5.10243 0.914567 5.38439C1.36964 14.6384 4.6881 20.3655 10.5109 23.694C10.6623 23.7798 10.8303 23.8241 10.9973 23.8241C11.1644 23.8241 11.3324 23.7798 11.4847 23.694C17.3075 20.3655 20.625 14.6384 21.081 5.38439C21.0967 5.10247 21.0005 4.82576 20.8133 4.61437ZM16.1832 8.25394L11.2696 15.5063C11.0933 15.7667 10.8164 15.9393 10.5423 15.9393C10.2672 15.9393 9.96164 15.7888 9.76872 15.5959L6.30534 12.1308C6.19226 12.0173 6.12877 11.8636 6.12877 11.7033C6.12877 11.5431 6.19226 11.3894 6.30534 11.2758L7.16103 10.4181C7.27476 10.3055 7.42835 10.2423 7.58841 10.2423C7.74847 10.2423 7.90207 10.3055 8.0158 10.4181L10.2681 12.6709L14.181 6.89395C14.2716 6.76175 14.4107 6.67076 14.5681 6.64083C14.7255 6.6109 14.8883 6.64448 15.021 6.73422L16.0226 7.41376C16.1549 7.50417 16.246 7.64329 16.2761 7.80071C16.3062 7.95814 16.2728 8.12108 16.1832 8.25394Z" fill="#F7971D"/>
</svg>
