<svg width="14" height="14" viewBox="0 0 14 14" fill="none" xmlns="http://www.w3.org/2000/svg">
<g clip-path="url(#clip0_247_7329)">
<path d="M12.7711 8.30158C12.8612 7.89626 12.9061 7.48222 12.9051 7.06701C12.9051 3.88638 10.2891 1.30568 7.06054 1.30568C6.72606 1.30544 6.39213 1.33287 6.06217 1.38771C5.52259 1.05079 4.89888 0.873076 4.2628 0.875016C2.39345 0.875016 0.874835 2.37127 0.874835 4.21505C0.872846 4.81061 1.03354 5.39539 1.33958 5.90627C1.26131 6.2873 1.22174 6.67528 1.22148 7.06427C1.22148 10.2482 3.83742 12.8256 7.06273 12.8256C7.42112 12.8265 7.77883 12.7945 8.13136 12.7299C8.6255 12.9902 9.17571 13.1258 9.73417 13.125C11.6068 13.125 13.1221 11.6288 13.1221 9.78498C13.1253 9.26957 13.0049 8.7609 12.7711 8.30158ZM10.0603 9.81642C9.78912 10.1927 9.39026 10.4926 8.87358 10.7032C8.3569 10.9137 7.74645 11.0195 7.04469 11.0195C6.20569 11.0195 5.50393 10.8727 4.95198 10.5856C4.56936 10.3842 4.23937 10.0957 3.9886 9.74341C3.73956 9.39259 3.61517 9.04177 3.61517 8.70435C3.61517 8.4938 3.69718 8.31197 3.85765 8.15884C4.01731 8.01201 4.22453 7.93544 4.46701 7.93544C4.66794 7.93544 4.84017 7.99287 4.98069 8.11099C5.11464 8.22255 5.22946 8.38853 5.32186 8.60537C5.41143 8.81304 5.52452 9.00974 5.65894 9.19162C5.77412 9.34146 5.93687 9.46587 6.14719 9.56486C6.36097 9.66384 6.64474 9.7147 6.99466 9.7147C7.47635 9.7147 7.87193 9.61271 8.16854 9.41173C8.46215 9.21705 8.60266 8.98107 8.60266 8.69396C8.60266 8.46755 8.52913 8.28873 8.37603 8.14845C8.21666 8.00162 8.00916 7.88677 7.75082 7.81021C7.48592 7.72818 7.12561 7.64123 6.67891 7.5488C6.07283 7.42111 5.55806 7.26798 5.14799 7.09572C4.73027 6.92017 4.39211 6.67462 4.14306 6.37166C3.89101 6.06213 3.76662 5.67302 3.76662 5.21666C3.76234 4.79487 3.90186 4.3842 4.1622 4.05236C4.42382 3.7174 4.80354 3.45572 5.29808 3.27716C5.78305 3.09861 6.36042 3.0092 7.01106 3.0092C7.53431 3.0092 7.99057 3.0699 8.3733 3.18474C8.75603 3.29959 9.08162 3.46228 9.33996 3.65998C9.5983 3.85767 9.78666 4.06822 9.90777 4.28888C10.0289 4.50955 10.0898 4.7324 10.0898 4.94513C10.0898 5.14912 10.01 5.33752 9.85036 5.50021C9.77293 5.5808 9.67968 5.6445 9.57646 5.68732C9.47325 5.73014 9.36229 5.75116 9.25057 5.74904C9.03378 5.74904 8.86456 5.69791 8.74673 5.59591C8.63738 5.50021 8.52338 5.35337 8.399 5.13955C8.25219 4.86857 8.07669 4.65146 7.87575 4.49834C7.67783 4.35177 7.35251 4.27521 6.89952 4.27521C6.48153 4.27521 6.14035 4.35724 5.88803 4.5213C5.64554 4.67771 5.52744 4.85955 5.52744 5.0731C5.52443 5.19546 5.56646 5.31466 5.64554 5.40806C5.74176 5.51879 5.86025 5.60796 5.99328 5.66974C6.14308 5.74506 6.30017 5.80489 6.46212 5.8483C6.62615 5.89314 6.89597 5.96013 7.2694 6.04298C7.74453 6.14197 8.17838 6.25681 8.56138 6.37466C8.95067 6.49908 9.28556 6.6481 9.55976 6.82447C9.83208 6.99644 10.0587 7.23184 10.2202 7.51052C10.3766 7.78396 10.4564 8.12931 10.4564 8.52498C10.4738 8.98782 10.3342 9.44295 10.0603 9.81642Z" fill="#1295FF"/>
</g>
<defs>
<clipPath id="clip0_247_7329">
<rect width="13.9969" height="14" fill="white"/>
</clipPath>
</defs>
</svg>
