<svg width="40" height="40" viewBox="0 0 40 40" xmlns="http://www.w3.org/2000/svg">
<path d="M26.768 4.09036C27.2367 4.55918 27.5 5.19495 27.5 5.85786C27.5 6.52077 27.2367 7.15654 26.768 7.62536L14.393 20.0004L26.768 32.3754C27.2234 32.8469 27.4754 33.4784 27.4697 34.1339C27.464 34.7894 27.2011 35.4164 26.7376 35.8799C26.2741 36.3434 25.647 36.6063 24.9915 36.612C24.336 36.6177 23.7045 36.3658 23.233 35.9104L9.09053 21.7679C8.62185 21.299 8.35857 20.6633 8.35857 20.0004C8.35857 19.3375 8.62185 18.7017 9.09053 18.2329L23.233 4.09036C23.7019 3.62169 24.3376 3.3584 25.0005 3.3584C25.6634 3.3584 26.2992 3.62169 26.768 4.09036Z" fill="currentColor"/>
</svg>
