<svg width="112" height="112" viewBox="0 0 112 112" fill="none" xmlns="http://www.w3.org/2000/svg">
<path d="M111.748 4.8026C112.003 4.16655 112.065 3.46977 111.928 2.79863C111.79 2.1275 111.458 1.51153 110.974 1.02708C110.489 0.542635 109.873 0.211021 109.202 0.0733486C108.531 -0.0643236 107.834 -0.00199903 107.198 0.252596L5.36933 40.9856C4.47255 41.3446 3.6922 41.944 3.11415 42.7179C2.53609 43.4918 2.18275 44.4101 2.09302 45.3719C2.00328 46.3337 2.18063 47.3016 2.60553 48.169C3.03044 49.0365 3.68644 49.7699 4.50133 50.2886L39.4663 72.5346L50.1833 89.3766C50.6895 90.1408 51.4752 90.676 52.3717 90.867C53.2682 91.0581 54.2039 90.8899 54.9777 90.3985C55.7515 89.9071 56.3016 89.1317 56.5098 88.2391C56.7181 87.3464 56.5678 86.4077 56.0913 85.6246L46.4593 70.4906L98.9173 18.0326L85.6523 51.1986C85.4701 51.6272 85.3752 52.0879 85.3733 52.5536C85.3714 53.0194 85.4624 53.4808 85.6411 53.9109C85.8198 54.341 86.0825 54.7312 86.4139 55.0584C86.7453 55.3857 87.1387 55.6435 87.571 55.8168C88.0033 55.9901 88.4658 56.0754 88.9315 56.0676C89.3972 56.0599 89.8567 55.9593 90.283 55.7717C90.7093 55.5841 91.0938 55.3133 91.4141 54.9752C91.7345 54.6371 91.984 54.2384 92.1483 53.8026L111.748 4.8026ZM93.9683 13.0836L41.5103 65.5416L11.1373 46.2146L93.9683 13.0836Z" fill="#20C6FB"/>
<path d="M112 87.5C112 93.9978 109.419 100.229 104.824 104.824C100.229 109.419 93.9978 112 87.5 112C81.0022 112 74.7705 109.419 70.1759 104.824C65.5812 100.229 63 93.9978 63 87.5C63 81.0022 65.5812 74.7705 70.1759 70.1759C74.7705 65.5812 81.0022 63 87.5 63C93.9978 63 100.229 65.5812 104.824 70.1759C109.419 74.7705 112 81.0022 112 87.5ZM98.049 75.747C97.6547 75.5107 97.2176 75.3543 96.7629 75.287C96.3081 75.2196 95.8445 75.2424 95.3986 75.3542C94.9527 75.466 94.5331 75.6646 94.1639 75.9386C93.7948 76.2126 93.4832 76.5566 93.247 76.951L85.057 90.601L81.228 86.772C80.5708 86.1148 79.6794 85.7456 78.75 85.7456C77.8206 85.7456 76.9292 86.1148 76.272 86.772C75.6148 87.4292 75.2456 88.3206 75.2456 89.25C75.2456 90.1794 75.6148 91.0708 76.272 91.728L81.69 97.139C82.2539 97.704 82.9393 98.133 83.694 98.3933C84.4486 98.6536 85.2527 98.7384 86.0451 98.6413C86.8374 98.5441 87.5972 98.2675 88.2666 97.8325C88.936 97.3975 89.4973 96.8156 89.908 96.131L99.253 80.549C99.4893 80.1547 99.6457 79.7176 99.7131 79.2629C99.7804 78.8081 99.7576 78.3445 99.6458 77.8986C99.534 77.4526 99.3354 77.0331 99.0614 76.6639C98.7874 76.2948 98.4434 75.9832 98.049 75.747Z" fill="#41DC92"/>
</svg>
