<svg width="17" height="11" viewBox="0 0 17 11" fill="none" xmlns="http://www.w3.org/2000/svg">
<path d="M16.4524 1.2906C16.2763 1.85327 16.0187 2.38711 15.6878 2.87511L15.7011 2.85406C15.3869 3.37779 15.0116 3.98288 14.5754 4.66934C14.2013 5.2113 14.0032 5.49187 13.9813 5.51104C13.8813 5.63623 13.8166 5.7859 13.794 5.94452L13.7933 5.94943C13.8111 6.09234 13.8775 6.2248 13.9813 6.32469L14.2618 6.63752C15.7629 8.18018 16.6071 9.24353 16.7947 9.82758C16.8302 9.92352 16.8416 10.0267 16.8279 10.1281C16.8142 10.2295 16.7758 10.326 16.7161 10.4091L16.7175 10.407C16.6469 10.4798 16.5608 10.5358 16.4656 10.5709C16.3704 10.606 16.2686 10.6192 16.1676 10.6097H16.1704H14.3214C14.0851 10.6097 13.8676 10.5269 13.6972 10.3894L13.6993 10.3908C13.4559 10.1913 13.2325 9.9686 13.0322 9.72587L13.0259 9.71746C12.7028 9.35225 12.4162 9.04479 12.166 8.79509C11.3327 8.00295 10.7178 7.60688 10.3212 7.60688C10.1933 7.59542 10.0653 7.6289 9.95931 7.70158L9.96142 7.70017C9.91589 7.75726 9.88246 7.82302 9.86317 7.89344C9.84387 7.96387 9.83912 8.03748 9.84919 8.1098V8.107C9.82193 8.43427 9.81303 8.76282 9.82254 9.09109V9.07916V9.89211C9.84245 9.98921 9.83562 10.0899 9.80276 10.1834C9.76989 10.2769 9.71224 10.3598 9.63596 10.4231L9.63526 10.4238C9.28006 10.5843 8.889 10.6488 8.50106 10.6111L8.51018 10.6118C7.44836 10.5936 6.41163 10.286 5.51161 9.72237L5.53616 9.73639C4.49833 9.11072 3.60877 8.26711 2.92898 7.26389L2.91004 7.23443C2.25017 6.35448 1.67013 5.41741 1.17683 4.43436L1.12773 4.32634C0.799019 3.68976 0.510179 3.03337 0.262881 2.36096L0.220796 2.2312C0.106139 1.88213 0.0331522 1.52073 0.00335597 1.15452L0.00195312 1.13699C0.00195312 0.782536 0.210509 0.605311 0.62762 0.605311H2.47235C2.65885 0.590704 2.84399 0.647071 2.9907 0.76313L2.9893 0.761728C3.12959 0.915338 3.2334 1.10402 3.2846 1.31445L3.2867 1.32286C3.59146 2.19565 3.96364 3.04342 4.39986 3.8585L4.35286 3.7624C4.66814 4.40282 5.0497 5.00841 5.49127 5.56926L5.47513 5.54751C5.84923 6.00671 6.14102 6.23631 6.35051 6.23631L6.37295 6.23701C6.42227 6.23708 6.47074 6.22415 6.51347 6.19952C6.5562 6.1749 6.59168 6.13944 6.61634 6.09673L6.61705 6.09532C6.6842 5.91952 6.71081 5.73083 6.6949 5.54331V5.54751V2.82671C6.68179 2.51822 6.60539 2.21572 6.47045 1.93801L6.47606 1.95134C6.39424 1.77484 6.28798 1.61073 6.16042 1.46385L6.16253 1.46665C6.04491 1.34923 5.96839 1.19693 5.94438 1.03248L5.94368 1.02827C5.94368 0.909025 5.99839 0.801708 6.08397 0.731566L6.08467 0.730865C6.17273 0.650215 6.28791 0.605645 6.40732 0.606012H9.32102C9.39416 0.597476 9.46827 0.607235 9.53671 0.634414C9.60514 0.661592 9.66576 0.705339 9.71311 0.761728L9.71381 0.762429C9.80241 0.926123 9.84117 1.11216 9.82534 1.29761V1.29411V4.92255C9.81417 5.06566 9.84749 5.20873 9.92073 5.33218L9.91933 5.32937C9.94502 5.36776 9.97977 5.39924 10.0205 5.42101C10.0612 5.44279 10.1067 5.45419 10.1529 5.45423C10.2712 5.44654 10.386 5.4073 10.484 5.3406L10.4819 5.342C10.6727 5.21083 10.8368 5.06143 10.9792 4.89239L10.982 4.88888C11.4153 4.39857 11.8038 3.87039 12.1428 3.31069L12.1702 3.26159C12.4115 2.86178 12.6724 2.36938 12.9088 1.86366L12.9523 1.76055L13.2651 1.13488C13.3202 0.973111 13.4264 0.833665 13.5678 0.737619C13.7091 0.641572 13.8779 0.594145 14.0486 0.602505H14.0465H15.8919C16.3904 0.602505 16.5774 0.831869 16.4531 1.2906H16.4524Z" fill="#0076FE"/>
</svg>
