<svg width="20" height="20" viewBox="0 0 20 20" fill="none" xmlns="http://www.w3.org/2000/svg">
<path d="M19.5471 4.8196C19.3379 5.48809 19.0319 6.12233 18.6388 6.7021L18.6546 6.6771C18.2813 7.29932 17.8354 8.01821 17.3171 8.83376C16.8727 9.47765 16.6374 9.81098 16.6113 9.83376C16.4925 9.9825 16.4156 10.1603 16.3888 10.3488L16.3879 10.3546C16.4092 10.5244 16.488 10.6818 16.6113 10.8004L16.9446 11.1721C18.7279 13.0049 19.731 14.2682 19.9538 14.9621C19.996 15.0761 20.0096 15.1987 19.9933 15.3192C19.977 15.4396 19.9314 15.5542 19.8604 15.6529L19.8621 15.6504C19.7782 15.737 19.6759 15.8035 19.5628 15.8452C19.4498 15.8869 19.3288 15.9026 19.2088 15.8913H19.2121H17.0154C16.7346 15.8913 16.4763 15.7929 16.2738 15.6296L16.2763 15.6313C15.9871 15.3942 15.7217 15.1296 15.4838 14.8413L15.4763 14.8313C15.0924 14.3974 14.7518 14.0321 14.4546 13.7354C13.4646 12.7943 12.734 12.3238 12.2629 12.3238C12.1109 12.3101 11.9588 12.3499 11.8329 12.4363L11.8354 12.4346C11.7813 12.5024 11.7416 12.5805 11.7187 12.6642C11.6958 12.7479 11.6901 12.8353 11.7021 12.9213V12.9179C11.6697 13.3068 11.6591 13.6971 11.6704 14.0871V14.0729V15.0388C11.6941 15.1541 11.686 15.2738 11.6469 15.3849C11.6079 15.496 11.5394 15.5944 11.4488 15.6696L11.4479 15.6704C11.0259 15.8611 10.5613 15.9378 10.1004 15.8929L10.1113 15.8938C8.84976 15.8721 7.61805 15.5068 6.54876 14.8371L6.57793 14.8538C5.34492 14.1104 4.28807 13.1082 3.48043 11.9163L3.45793 11.8813C2.67396 10.8358 1.98484 9.72252 1.39876 8.5546L1.34043 8.42626C0.949897 7.66996 0.606735 6.89013 0.31293 6.09126L0.26293 5.9371C0.126709 5.52238 0.0399962 5.09301 0.00459635 4.65793L0.00292969 4.6371C0.00292969 4.21599 0.250707 4.00543 0.746263 4.00543H2.93793C3.1595 3.98808 3.37946 4.05504 3.55376 4.19293L3.5521 4.19126C3.71876 4.37376 3.8421 4.59793 3.90293 4.84793L3.90543 4.85793C4.26751 5.89486 4.70967 6.90206 5.22793 7.87043L5.1721 7.75626C5.54667 8.51712 5.99998 9.23661 6.5246 9.90293L6.50543 9.8771C6.94987 10.4227 7.29654 10.6954 7.54543 10.6954L7.5721 10.6963C7.63069 10.6963 7.68827 10.681 7.73904 10.6517C7.78981 10.6225 7.83196 10.5803 7.86126 10.5296L7.8621 10.5279C7.94188 10.3191 7.9735 10.0949 7.9546 9.8721V9.8771V6.6446C7.93902 6.27809 7.84825 5.91871 7.68793 5.58876L7.6946 5.6046C7.59739 5.3949 7.47115 5.19994 7.3196 5.02543L7.3221 5.02876C7.18236 4.88925 7.09145 4.70832 7.06293 4.51293L7.0621 4.50793C7.0621 4.36626 7.1271 4.23876 7.22876 4.15543L7.2296 4.1546C7.33422 4.05878 7.47106 4.00583 7.61293 4.00626H11.0746C11.1615 3.99612 11.2495 4.00772 11.3308 4.04001C11.4122 4.0723 11.4842 4.12427 11.5404 4.19126L11.5413 4.1921C11.6465 4.38658 11.6926 4.6076 11.6738 4.82793V4.82376V9.1346C11.6605 9.30462 11.7001 9.47459 11.7871 9.62126L11.7854 9.61793C11.8159 9.66354 11.8572 9.70093 11.9056 9.7268C11.954 9.75267 12.0081 9.76622 12.0629 9.76626C12.2035 9.75713 12.3398 9.71052 12.4563 9.63126L12.4538 9.63293C12.6804 9.4771 12.8754 9.2996 13.0446 9.09876L13.0479 9.0946C13.5628 8.51207 14.0243 7.88456 14.4271 7.2196L14.4596 7.16126C14.7463 6.68626 15.0563 6.10126 15.3371 5.50043L15.3888 5.37793L15.7604 4.6346C15.8259 4.4424 15.9521 4.27673 16.12 4.16262C16.288 4.04851 16.4885 3.99216 16.6913 4.0021H16.6888H18.8813C19.4735 4.0021 19.6957 4.2746 19.5479 4.8196H19.5471Z" fill="#ACACAC"/>
</svg>
