<svg xmlns="http://www.w3.org/2000/svg" xmlns:xlink="http://www.w3.org/1999/xlink" viewBox="0 0 152.4 152.3"><defs><style>.a{fill:#fff;}.b{fill:url(#a);}.c{fill:url(#c);}.d{fill:url(#e);}.e{fill:url(#g);}.f{fill:url(#h);}.g{fill:url(#i);}.h{fill:#13232d;}.i{fill:url(#j);}.j{fill:url(#m);}.k{fill:url(#p);}.l{fill:url(#s);}.m{fill:url(#v);}.n{fill:url(#y);}.o{fill:url(#ab);}.p{fill:url(#ae);}</style><linearGradient id="a" x1="117.46" y1="94.42" x2="129.2" y2="94.42" gradientTransform="matrix(1, 0, 0, -1, 0, 150.12)" gradientUnits="userSpaceOnUse"><stop offset="0" stop-color="#88c743"/><stop offset="1" stop-color="#66c83d"/></linearGradient><linearGradient id="c" x1="15.7" y1="46.49" x2="140.38" y2="46.49" xlink:href="#a"/><linearGradient id="e" x1="68.7" y1="135.85" x2="81.9" y2="135.85" xlink:href="#a"/><linearGradient id="g" x1="23.82" y1="88.99" x2="63.63" y2="128.79" xlink:href="#a"/><linearGradient id="h" x1="23.71" y1="108.27" x2="63.6" y2="108.27" xlink:href="#a"/><linearGradient id="i" x1="21.51" y1="77.77" x2="137.5" y2="77.77" xlink:href="#a"/><linearGradient id="j" x1="57.93" y1="47.05" x2="75.41" y2="47.05" xlink:href="#a"/><linearGradient id="m" x1="69.42" y1="35.51" x2="86.91" y2="35.51" xlink:href="#a"/><linearGradient id="p" x1="60.48" y1="103.77" x2="129.2" y2="103.77" xlink:href="#a"/><linearGradient id="s" x1="16.43" y1="47.15" x2="139.53" y2="47.15" xlink:href="#a"/><linearGradient id="v" x1="68.91" y1="130.73" x2="85.8" y2="130.73" xlink:href="#a"/><linearGradient id="y" x1="34.82" y1="70.1" x2="52.31" y2="70.1" xlink:href="#a"/><linearGradient id="ab" x1="25.47" y1="85.62" x2="120.1" y2="85.62" xlink:href="#a"/><linearGradient id="ae" x1="46.33" y1="58.55" x2="63.81" y2="58.55" xlink:href="#a"/></defs><title>welcom-epartners</title><path class="a" d="M146.7,62.4,89.9,5.7a19.43,19.43,0,0,0-27.5,0L5.7,62.4a19.31,19.31,0,0,0,0,27.4l56.8,56.8a19.31,19.31,0,0,0,27.4,0l56.8-56.8A19.31,19.31,0,0,0,146.7,62.4Zm-4.3,23.3L85.6,142.5a13.52,13.52,0,0,1-19,0L9.9,85.7a13.64,13.64,0,0,1,0-19.1L66.6,9.9a13.52,13.52,0,0,1,19,0l56.7,56.7A13.37,13.37,0,0,1,142.4,85.7Z"/><path class="b" d="M129.2,61.7l-12.1-12Z"/><path class="b" d="M129.2,61.7l-12.1-12Z"/><path class="c" d="M137.5,70.1a8.92,8.92,0,0,1-.6,12L82.4,136.6a9,9,0,0,1-12.7,0L15.4,82.4a9,9,0,0,1,0-12.7L18,67h-.1l-3.8,3.8a7.67,7.67,0,0,0,0,10.7l56.7,56.7a7.67,7.67,0,0,0,10.7,0l56.7-56.7a7.67,7.67,0,0,0,0-10.7Z"/><path class="c" d="M137.5,70.1a8.92,8.92,0,0,1-.6,12L82.4,136.6a9,9,0,0,1-12.7,0L15.4,82.4a9,9,0,0,1,0-12.7L18,67h-.1l-3.8,3.8a7.67,7.67,0,0,0,0,10.7l56.7,56.7a7.67,7.67,0,0,0,10.7,0l56.7-56.7a7.67,7.67,0,0,0,0-10.7Z"/><path class="d" d="M81.9,14.5l-.4-.4a7.67,7.67,0,0,0-10.7,0l-2.5,2.5h.1l1.5-1.5A8.92,8.92,0,0,1,81.9,14.5Z"/><path class="d" d="M81.9,14.5l-.4-.4a7.67,7.67,0,0,0-10.7,0l-2.5,2.5h.1l1.5-1.5A8.92,8.92,0,0,1,81.9,14.5Z"/><path class="e" d="M63.59,21.29l-41,41,.07.07,41-41Z"/><path class="f" d="M63.5,21.3l-41,41,.1.1,41-41Z"/><path class="g" d="M31.1,92.5a11.54,11.54,0,0,0,8.3,3.2,11,11,0,0,0,3.2,8.3,11.38,11.38,0,0,0,8.3,3.2,11.14,11.14,0,0,0,3.2,8.3,11.54,11.54,0,0,0,8.3,3.2,11.14,11.14,0,0,0,3.2,8.3,11.7,11.7,0,0,0,8,3.2,12.28,12.28,0,0,0,8.7-3.7l7.8-7.8a10.93,10.93,0,0,0,2.9-4.4,10.75,10.75,0,0,0,7.6-3.2,11.14,11.14,0,0,0,3.2-8.3,11,11,0,0,0,8.3-3.2,11.14,11.14,0,0,0,3.2-8.3h.3a11.09,11.09,0,0,0,8-3.2,11.48,11.48,0,0,0,2-13.3l8.3-8.3,3.6,3.6c-.2-.2-.4-.5-.6-.7l-7.7-7.7-7.9,7.9L89.5,37.8,69,58.3c-2,2-5.4,2.2-7.2.4l-3.4-3.4L90.5,23.1l26.6,26.6L82.6,15.1c-.2-.2-.5-.4-.7-.6l3.9,3.9L78,26.3l-9.6-9.7-4.8,4.8L73.2,31,49,55.3l8.1,8.1a11.36,11.36,0,0,0,8,3.3A12.28,12.28,0,0,0,73.8,63L89.5,47.3l28.9,28.8a6.29,6.29,0,0,1,1.7,3.8,4.75,4.75,0,0,1-1.3,3.5c-1.8,1.8-5.2,1.6-7.2-.4L88.7,60.2A3.32,3.32,0,1,0,84,64.9l22.9,22.8a5.61,5.61,0,0,1,1.7,4,4.63,4.63,0,0,1-1.3,3.2c-1.8,1.8-5.2,1.6-7.2-.4L77.2,71.6a3.32,3.32,0,0,0-4.7,0,3.69,3.69,0,0,0-1,2.4,3.49,3.49,0,0,0,1,2.4L95.4,99.2a5.09,5.09,0,0,1,.4,7.2,4.56,4.56,0,0,1-2.4,1.2,11,11,0,0,0-11.3-8.7,11.14,11.14,0,0,0-3.2-8.3,11.54,11.54,0,0,0-8.3-3.2,11.14,11.14,0,0,0-3.2-8.3,11.54,11.54,0,0,0-8.3-3.2,11.14,11.14,0,0,0-3.2-8.3,11.36,11.36,0,0,0-8-3.3A12.58,12.58,0,0,0,39.1,68l-5.5,5.4-11-11L18,67,29.5,78.4A11.58,11.58,0,0,0,31.1,92.5Zm51.3,13.1a4.63,4.63,0,0,1,3.2,1.3c1.9,1.8,1.7,5.1-.4,7.2l-7.8,7.8c-2,2.1-5.4,2.3-7.2.4a5.09,5.09,0,0,1,.4-7.2l7.8-7.8A5.61,5.61,0,0,1,82.4,105.6ZM70.9,94.1a4.63,4.63,0,0,1,3.2,1.3c1.9,1.8,1.7,5.1-.4,7.2l-7.8,7.8c-2,2-5.5,2.2-7.2.4a4.45,4.45,0,0,1-1.3-3.2,5.61,5.61,0,0,1,1.7-4l7.8-7.8A5.61,5.61,0,0,1,70.9,94.1ZM59.3,82.6a4.63,4.63,0,0,1,3.2,1.3c1.9,1.8,1.7,5.1-.4,7.2l-7.8,7.8c-2,2-5.4,2.2-7.2.4a4.45,4.45,0,0,1-1.3-3.2,5.61,5.61,0,0,1,1.7-4l7.8-7.8A5.61,5.61,0,0,1,59.3,82.6ZM36,80.6l7.8-7.9a5.61,5.61,0,0,1,4-1.7A4.63,4.63,0,0,1,51,72.3c1.9,1.9,1.7,5.1-.4,7.3l-7.8,7.8c-2,2-5.4,2.2-7.2.4A5.09,5.09,0,0,1,36,80.6Z"/><path class="h" d="M31.1,92.5a11.54,11.54,0,0,0,8.3,3.2,11,11,0,0,0,3.2,8.3,11.38,11.38,0,0,0,8.3,3.2,11.14,11.14,0,0,0,3.2,8.3,11.54,11.54,0,0,0,8.3,3.2,11.14,11.14,0,0,0,3.2,8.3,11.7,11.7,0,0,0,8,3.2,12.28,12.28,0,0,0,8.7-3.7l7.8-7.8a10.93,10.93,0,0,0,2.9-4.4,10.75,10.75,0,0,0,7.6-3.2,11.14,11.14,0,0,0,3.2-8.3,11,11,0,0,0,8.3-3.2,11.14,11.14,0,0,0,3.2-8.3h.3a11.09,11.09,0,0,0,8-3.2,11.48,11.48,0,0,0,2-13.3l8.3-8.3,3.6,3.6c-.2-.2-.4-.5-.6-.7l-7.7-7.7-7.9,7.9L89.5,37.8,69,58.3c-2,2-5.4,2.2-7.2.4l-3.4-3.4L90.5,23.1l26.6,26.6L82.6,15.1c-.2-.2-.5-.4-.7-.6l3.9,3.9L78,26.3l-9.6-9.7-4.8,4.8L73.2,31,49,55.3l8.1,8.1a11.36,11.36,0,0,0,8,3.3A12.28,12.28,0,0,0,73.8,63L89.5,47.3l28.9,28.8a6.29,6.29,0,0,1,1.7,3.8,4.75,4.75,0,0,1-1.3,3.5c-1.8,1.8-5.2,1.6-7.2-.4L88.7,60.2A3.32,3.32,0,1,0,84,64.9l22.9,22.8a5.61,5.61,0,0,1,1.7,4,4.63,4.63,0,0,1-1.3,3.2c-1.8,1.8-5.2,1.6-7.2-.4L77.2,71.6a3.32,3.32,0,0,0-4.7,0,3.69,3.69,0,0,0-1,2.4,3.49,3.49,0,0,0,1,2.4L95.4,99.2a5.09,5.09,0,0,1,.4,7.2,4.56,4.56,0,0,1-2.4,1.2,11,11,0,0,0-11.3-8.7,11.14,11.14,0,0,0-3.2-8.3,11.54,11.54,0,0,0-8.3-3.2,11.14,11.14,0,0,0-3.2-8.3,11.54,11.54,0,0,0-8.3-3.2,11.14,11.14,0,0,0-3.2-8.3,11.36,11.36,0,0,0-8-3.3A12.58,12.58,0,0,0,39.1,68l-5.5,5.4-11-11L18,67,29.5,78.4A11.58,11.58,0,0,0,31.1,92.5Zm51.3,13.1a4.63,4.63,0,0,1,3.2,1.3c1.9,1.8,1.7,5.1-.4,7.2l-7.8,7.8c-2,2.1-5.4,2.3-7.2.4a5.09,5.09,0,0,1,.4-7.2l7.8-7.8A5.61,5.61,0,0,1,82.4,105.6ZM70.9,94.1a4.63,4.63,0,0,1,3.2,1.3c1.9,1.8,1.7,5.1-.4,7.2l-7.8,7.8c-2,2-5.5,2.2-7.2.4a4.45,4.45,0,0,1-1.3-3.2,5.61,5.61,0,0,1,1.7-4l7.8-7.8A5.61,5.61,0,0,1,70.9,94.1ZM59.3,82.6a4.63,4.63,0,0,1,3.2,1.3c1.9,1.8,1.7,5.1-.4,7.2l-7.8,7.8c-2,2-5.4,2.2-7.2.4a4.45,4.45,0,0,1-1.3-3.2,5.61,5.61,0,0,1,1.7-4l7.8-7.8A5.61,5.61,0,0,1,59.3,82.6ZM36,80.6l7.8-7.9a5.61,5.61,0,0,1,4-1.7A4.63,4.63,0,0,1,51,72.3c1.9,1.9,1.7,5.1-.4,7.3l-7.8,7.8c-2,2-5.4,2.2-7.2.4A5.09,5.09,0,0,1,36,80.6Z"/><path class="i" d="M57.4,107.6a4.45,4.45,0,0,0,1.3,3.2c1.7,1.8,5.2,1.6,7.2-.4l7.8-7.8c2.1-2.1,2.3-5.4.4-7.2a4.63,4.63,0,0,0-3.2-1.3,5.61,5.61,0,0,0-4,1.7l-7.8,7.8A5.61,5.61,0,0,0,57.4,107.6Z"/><path class="i" d="M57.4,107.6a4.45,4.45,0,0,0,1.3,3.2c1.7,1.8,5.2,1.6,7.2-.4l7.8-7.8c2.1-2.1,2.3-5.4.4-7.2a4.63,4.63,0,0,0-3.2-1.3,5.61,5.61,0,0,0-4,1.7l-7.8,7.8A5.61,5.61,0,0,0,57.4,107.6Z"/><path class="i" d="M57.4,107.6a4.45,4.45,0,0,0,1.3,3.2c1.7,1.8,5.2,1.6,7.2-.4l7.8-7.8c2.1-2.1,2.3-5.4.4-7.2a4.63,4.63,0,0,0-3.2-1.3,5.61,5.61,0,0,0-4,1.7l-7.8,7.8A5.61,5.61,0,0,0,57.4,107.6Z"/><path class="j" d="M70.2,122.3c1.8,1.9,5.2,1.7,7.2-.4l7.8-7.8c2.1-2.1,2.3-5.4.4-7.2a4.63,4.63,0,0,0-3.2-1.3,5.61,5.61,0,0,0-4,1.7l-7.8,7.8A5.09,5.09,0,0,0,70.2,122.3Z"/><path class="j" d="M70.2,122.3c1.8,1.9,5.2,1.7,7.2-.4l7.8-7.8c2.1-2.1,2.3-5.4.4-7.2a4.63,4.63,0,0,0-3.2-1.3,5.61,5.61,0,0,0-4,1.7l-7.8,7.8A5.09,5.09,0,0,0,70.2,122.3Z"/><path class="j" d="M70.2,122.3c1.8,1.9,5.2,1.7,7.2-.4l7.8-7.8c2.1-2.1,2.3-5.4.4-7.2a4.63,4.63,0,0,0-3.2-1.3,5.61,5.61,0,0,0-4,1.7l-7.8,7.8A5.09,5.09,0,0,0,70.2,122.3Z"/><path class="k" d="M58.4,55.3l3.4,3.4c1.8,1.8,5.2,1.6,7.2-.4L89.5,37.8l31.8,31.8,7.9-7.9L117.1,49.6,90.5,23.1Z"/><path class="k" d="M58.4,55.3l3.4,3.4c1.8,1.8,5.2,1.6,7.2-.4L89.5,37.8l31.8,31.8,7.9-7.9L117.1,49.6,90.5,23.1Z"/><path class="k" d="M58.4,55.3l3.4,3.4c1.8,1.8,5.2,1.6,7.2-.4L89.5,37.8l31.8,31.8,7.9-7.9L117.1,49.6,90.5,23.1Z"/><path class="l" d="M15.4,82.4l54.3,54.3a9,9,0,0,0,12.7,0l54.5-54.5a8.92,8.92,0,0,0,.6-12l-3.6-3.6-8.3,8.3a11.48,11.48,0,0,1-2,13.3,11.09,11.09,0,0,1-8,3.2h-.3a11.14,11.14,0,0,1-3.2,8.3,11,11,0,0,1-8.3,3.2,11.14,11.14,0,0,1-3.2,8.3,10.75,10.75,0,0,1-7.6,3.2,10.93,10.93,0,0,1-2.9,4.4l-7.8,7.8a12.28,12.28,0,0,1-8.7,3.7,11.7,11.7,0,0,1-8-3.2,11.14,11.14,0,0,1-3.2-8.3,11.54,11.54,0,0,1-8.3-3.2,11.14,11.14,0,0,1-3.2-8.3,11.38,11.38,0,0,1-8.3-3.2,11,11,0,0,1-3.2-8.3,11.24,11.24,0,0,1-9.9-17.3L18,67l-2.6,2.6A8.94,8.94,0,0,0,15.4,82.4Z"/><path class="l" d="M15.4,82.4l54.3,54.3a9,9,0,0,0,12.7,0l54.5-54.5a8.92,8.92,0,0,0,.6-12l-3.6-3.6-8.3,8.3a11.48,11.48,0,0,1-2,13.3,11.09,11.09,0,0,1-8,3.2h-.3a11.14,11.14,0,0,1-3.2,8.3,11,11,0,0,1-8.3,3.2,11.14,11.14,0,0,1-3.2,8.3,10.75,10.75,0,0,1-7.6,3.2,10.93,10.93,0,0,1-2.9,4.4l-7.8,7.8a12.28,12.28,0,0,1-8.7,3.7,11.7,11.7,0,0,1-8-3.2,11.14,11.14,0,0,1-3.2-8.3,11.54,11.54,0,0,1-8.3-3.2,11.14,11.14,0,0,1-3.2-8.3,11.38,11.38,0,0,1-8.3-3.2,11,11,0,0,1-3.2-8.3,11.24,11.24,0,0,1-9.9-17.3L18,67l-2.6,2.6A8.94,8.94,0,0,0,15.4,82.4Z"/><path class="l" d="M15.4,82.4l54.3,54.3a9,9,0,0,0,12.7,0l54.5-54.5a8.92,8.92,0,0,0,.6-12l-3.6-3.6-8.3,8.3a11.48,11.48,0,0,1-2,13.3,11.09,11.09,0,0,1-8,3.2h-.3a11.14,11.14,0,0,1-3.2,8.3,11,11,0,0,1-8.3,3.2,11.14,11.14,0,0,1-3.2,8.3,10.75,10.75,0,0,1-7.6,3.2,10.93,10.93,0,0,1-2.9,4.4l-7.8,7.8a12.28,12.28,0,0,1-8.7,3.7,11.7,11.7,0,0,1-8-3.2,11.14,11.14,0,0,1-3.2-8.3,11.54,11.54,0,0,1-8.3-3.2,11.14,11.14,0,0,1-3.2-8.3,11.38,11.38,0,0,1-8.3-3.2,11,11,0,0,1-3.2-8.3,11.24,11.24,0,0,1-9.9-17.3L18,67l-2.6,2.6A8.94,8.94,0,0,0,15.4,82.4Z"/><path class="m" d="M85.8,18.4l-3.9-3.9a8.92,8.92,0,0,0-12,.6l-1.5,1.5L78,26.3Z"/><path class="m" d="M85.8,18.4l-3.9-3.9a8.92,8.92,0,0,0-12,.6l-1.5,1.5L78,26.3Z"/><path class="m" d="M85.8,18.4l-3.9-3.9a8.92,8.92,0,0,0-12,.6l-1.5,1.5L78,26.3Z"/><path class="n" d="M42.8,87.4l7.8-7.8c2.1-2.2,2.3-5.4.4-7.3A4.63,4.63,0,0,0,47.8,71a5.61,5.61,0,0,0-4,1.7L36,80.6a5.09,5.09,0,0,0-.4,7.2C37.4,89.6,40.8,89.4,42.8,87.4Z"/><path class="n" d="M42.8,87.4l7.8-7.8c2.1-2.2,2.3-5.4.4-7.3A4.63,4.63,0,0,0,47.8,71a5.61,5.61,0,0,0-4,1.7L36,80.6a5.09,5.09,0,0,0-.4,7.2C37.4,89.6,40.8,89.4,42.8,87.4Z"/><path class="n" d="M42.8,87.4l7.8-7.8c2.1-2.2,2.3-5.4.4-7.3A4.63,4.63,0,0,0,47.8,71a5.61,5.61,0,0,0-4,1.7L36,80.6a5.09,5.09,0,0,0-.4,7.2C37.4,89.6,40.8,89.4,42.8,87.4Z"/><path class="o" d="M39.1,68a12.58,12.58,0,0,1,8.8-3.7,11.36,11.36,0,0,1,8,3.3,11.14,11.14,0,0,1,3.2,8.3,11.54,11.54,0,0,1,8.3,3.2,11.14,11.14,0,0,1,3.2,8.3,11.54,11.54,0,0,1,8.3,3.2,11.14,11.14,0,0,1,3.2,8.3,11,11,0,0,1,11.3,8.7,4.56,4.56,0,0,0,2.4-1.2,5.09,5.09,0,0,0-.4-7.2L72.5,76.4a3.49,3.49,0,0,1-1-2.4,3.69,3.69,0,0,1,1-2.4,3.32,3.32,0,0,1,4.7,0l22.9,22.9c2,2,5.4,2.2,7.2.4a4.63,4.63,0,0,0,1.3-3.2,5.61,5.61,0,0,0-1.7-4L84,64.9a3.32,3.32,0,1,1,4.7-4.7L111.6,83c2,2,5.4,2.2,7.2.4a4.75,4.75,0,0,0,1.3-3.5,6.29,6.29,0,0,0-1.7-3.8L89.5,47.3,73.8,63a12.28,12.28,0,0,1-8.7,3.7,11.36,11.36,0,0,1-8-3.3L49,55.3,73.2,31l-9.6-9.6-41,41,11,11Z"/><path class="o" d="M39.1,68a12.58,12.58,0,0,1,8.8-3.7,11.36,11.36,0,0,1,8,3.3,11.14,11.14,0,0,1,3.2,8.3,11.54,11.54,0,0,1,8.3,3.2,11.14,11.14,0,0,1,3.2,8.3,11.54,11.54,0,0,1,8.3,3.2,11.14,11.14,0,0,1,3.2,8.3,11,11,0,0,1,11.3,8.7,4.56,4.56,0,0,0,2.4-1.2,5.09,5.09,0,0,0-.4-7.2L72.5,76.4a3.49,3.49,0,0,1-1-2.4,3.69,3.69,0,0,1,1-2.4,3.32,3.32,0,0,1,4.7,0l22.9,22.9c2,2,5.4,2.2,7.2.4a4.63,4.63,0,0,0,1.3-3.2,5.61,5.61,0,0,0-1.7-4L84,64.9a3.32,3.32,0,1,1,4.7-4.7L111.6,83c2,2,5.4,2.2,7.2.4a4.75,4.75,0,0,0,1.3-3.5,6.29,6.29,0,0,0-1.7-3.8L89.5,47.3,73.8,63a12.28,12.28,0,0,1-8.7,3.7,11.36,11.36,0,0,1-8-3.3L49,55.3,73.2,31l-9.6-9.6-41,41,11,11Z"/><path class="o" d="M39.1,68a12.58,12.58,0,0,1,8.8-3.7,11.36,11.36,0,0,1,8,3.3,11.14,11.14,0,0,1,3.2,8.3,11.54,11.54,0,0,1,8.3,3.2,11.14,11.14,0,0,1,3.2,8.3,11.54,11.54,0,0,1,8.3,3.2,11.14,11.14,0,0,1,3.2,8.3,11,11,0,0,1,11.3,8.7,4.56,4.56,0,0,0,2.4-1.2,5.09,5.09,0,0,0-.4-7.2L72.5,76.4a3.49,3.49,0,0,1-1-2.4,3.69,3.69,0,0,1,1-2.4,3.32,3.32,0,0,1,4.7,0l22.9,22.9c2,2,5.4,2.2,7.2.4a4.63,4.63,0,0,0,1.3-3.2,5.61,5.61,0,0,0-1.7-4L84,64.9a3.32,3.32,0,1,1,4.7-4.7L111.6,83c2,2,5.4,2.2,7.2.4a4.75,4.75,0,0,0,1.3-3.5,6.29,6.29,0,0,0-1.7-3.8L89.5,47.3,73.8,63a12.28,12.28,0,0,1-8.7,3.7,11.36,11.36,0,0,1-8-3.3L49,55.3,73.2,31l-9.6-9.6-41,41,11,11Z"/><path class="p" d="M45.8,96.1a4.45,4.45,0,0,0,1.3,3.2c1.8,1.8,5.2,1.6,7.2-.4l7.8-7.8c2.1-2.1,2.3-5.4.4-7.2a4.63,4.63,0,0,0-3.2-1.3,5.61,5.61,0,0,0-4,1.7l-7.8,7.8A5.61,5.61,0,0,0,45.8,96.1Z"/><path class="p" d="M45.8,96.1a4.45,4.45,0,0,0,1.3,3.2c1.8,1.8,5.2,1.6,7.2-.4l7.8-7.8c2.1-2.1,2.3-5.4.4-7.2a4.63,4.63,0,0,0-3.2-1.3,5.61,5.61,0,0,0-4,1.7l-7.8,7.8A5.61,5.61,0,0,0,45.8,96.1Z"/><path class="p" d="M45.8,96.1a4.45,4.45,0,0,0,1.3,3.2c1.8,1.8,5.2,1.6,7.2-.4l7.8-7.8c2.1-2.1,2.3-5.4.4-7.2a4.63,4.63,0,0,0-3.2-1.3,5.61,5.61,0,0,0-4,1.7l-7.8,7.8A5.61,5.61,0,0,0,45.8,96.1Z"/></svg>